<?xml version="1.0" encoding="UTF-8" standalone="no"?><!DOCTYPE svg PUBLIC "-//W3C//DTD SVG 1.1//EN" "http://www.w3.org/Graphics/SVG/1.1/DTD/svg11.dtd"><svg width="100%" height="100%" viewBox="0 0 351 52" version="1.1" xmlns="http://www.w3.org/2000/svg" xmlns:xlink="http://www.w3.org/1999/xlink" xml:space="preserve" xmlns:serif="http://www.serif.com/" style="fill-rule:evenodd;clip-rule:evenodd;stroke-linejoin:round;stroke-miterlimit:2;"><g><g><g><path d="M72.432,40.636c-4.997,0 -9.061,-4.209 -9.061,-9.384c0,-5.123 3.981,-9.135 9.061,-9.135c5.079,0 9.058,4.012 9.058,9.135c0,5.175 -4.064,9.384 -9.058,9.384Zm0,-16.998c-4.172,0 -7.438,3.345 -7.438,7.614c0,4.41 3.266,7.862 7.438,7.862c4.171,0 7.439,-3.452 7.439,-7.862c0,-4.27 -3.268,-7.614 -7.439,-7.614Z" style="fill:#e31837;fill-rule:nonzero;"/><path d="M72.432,22.368c4.851,0 8.807,3.88 8.807,8.883c0,5.126 -3.956,9.135 -8.807,9.135c-4.854,0 -8.811,-4.009 -8.811,-9.135c0.001,-5.003 3.957,-8.883 8.811,-8.883m0,16.997c4.255,0 7.689,-3.539 7.689,-8.114c0,-4.453 -3.434,-7.863 -7.689,-7.863c-4.255,0 -7.688,3.41 -7.688,7.863c0,4.575 3.433,8.114 7.688,8.114m0,-17.497c-5.221,0 -9.311,4.121 -9.311,9.383c0,5.312 4.177,9.635 9.311,9.635c5.132,0 9.307,-4.322 9.307,-9.635c0,-5.262 -4.088,-9.383 -9.307,-9.383Zm0,16.997c-4.031,0 -7.188,-3.345 -7.188,-7.614c0,-4.129 3.158,-7.363 7.188,-7.363c4.031,0 7.189,3.234 7.189,7.363c0.001,4.27 -3.158,7.614 -7.189,7.614Z" style="fill:#e31837;fill-rule:nonzero;"/></g><g><path d="M98.488,40.339l-0.251,0l-0.473,0c-1.598,0 -1.877,-0.236 -2.603,-1.444l-3.111,-5.25c-0.479,-0.82 -0.746,-1.025 -1.85,-1.025l-2.66,0l0,6.219l2.365,0l0,1.501l-0.251,0l-5.798,0l-0.25,0l0,-0.251l0,-0.999l0,-0.251l2.364,0l0,-14.923l-2.114,0l-0.25,0l0,-0.251l0,-0.997l0,-0.251l7.592,0c1.154,0 2.07,0.07 3.065,0.413c1.308,0.501 2.857,1.681 2.857,4.461c0,2.709 -1.533,4.688 -3.943,5.16c0.077,0.1 0.164,0.222 0.249,0.367l3.287,5.57c0.224,0.379 0.392,0.449 1.053,0.449l0.724,0l0,1.502l-0.002,0Zm-10.948,-9.218l4.354,0c2.155,0 3.604,-1.517 3.604,-3.773c0,-1.565 -0.665,-2.609 -1.975,-3.103c-0.586,-0.22 -1.389,-0.329 -2.379,-0.329l-3.604,0l0,7.205Z" style="fill:#e31837;fill-rule:nonzero;"/><path d="M91.197,22.668c1.166,0 2.041,0.072 2.984,0.397c1.619,0.623 2.688,1.99 2.688,4.226c0,2.688 -1.593,4.682 -4.154,4.98l0,0.049c0,0 0.247,0.202 0.494,0.624l3.288,5.57c0.295,0.502 0.595,0.575 1.268,0.575l0.474,0l0,0.997l-0.474,0c-1.519,0 -1.717,-0.204 -2.389,-1.32l-3.109,-5.248c-0.522,-0.898 -0.871,-1.15 -2.065,-1.15l-2.912,0l0,6.722l2.364,0l0,0.997l-5.798,0l0,-0.997l2.364,0l0,-15.426l-2.364,0l0,-0.996l7.341,0m-3.907,8.704l4.604,0c2.288,0 3.855,-1.61 3.855,-4.024c0,-1.773 -0.822,-2.841 -2.139,-3.336c-0.672,-0.251 -1.542,-0.348 -2.465,-0.348l-3.855,0l0,7.708m3.907,-9.204l-7.341,0l-0.5,0l0,1.996l2.364,0l0,14.426l-1.864,0l-0.5,0l0,1.997l6.798,0l0,-0.5l0,-0.997l0,-0.5l-0.5,0l-1.864,0l0,-5.722l2.412,0c1.013,0 1.201,0.159 1.633,0.901l3.111,5.252c0.764,1.27 1.115,1.565 2.819,1.565l0.974,0l0,-0.5l0,-0.996l0,-0.5l-0.5,0l-0.474,0c-0.62,0 -0.68,-0.062 -0.836,-0.329l-3.289,-5.57c-0.016,-0.026 -0.031,-0.052 -0.046,-0.077c2.32,-0.617 3.776,-2.626 3.776,-5.322c0,-2.279 -1.068,-3.945 -3.009,-4.692c-1.044,-0.361 -1.982,-0.432 -3.164,-0.432Zm-3.407,1.996l3.355,0c0.958,0 1.729,0.106 2.291,0.316c1.203,0.452 1.813,1.417 1.813,2.867c0,2.141 -1.317,3.524 -3.355,3.524l-4.104,0l0,-6.707Z" style="fill:#e31837;fill-rule:nonzero;"/></g><g><path d="M107.77,40.339l-7.268,0l-0.251,0l0,-0.251l0,-0.999l0,-0.251l2.365,0l0,-14.922l-2.114,0l-0.251,0l0,-0.251l0,-0.997l0,-0.251l7.519,0c1.413,0 2.547,0.081 3.832,0.483c3.448,1.154 5.423,4.25 5.423,8.496c0,4.368 -2.143,7.487 -5.877,8.557c-0.951,0.274 -1.93,0.386 -3.378,0.386Zm-3.583,-1.501l3.409,0c1.283,0 2.25,-0.118 3.136,-0.385c2.972,-0.899 4.675,-3.479 4.675,-7.081c0,-3.525 -1.614,-6.095 -4.433,-7.051c-1.108,-0.377 -2.186,-0.405 -3.378,-0.405l-3.409,0l0,14.922Z" style="fill:#e31837;fill-rule:nonzero;"/><path d="M107.771,22.668c1.514,0 2.563,0.098 3.757,0.47c3.259,1.093 5.247,4.081 5.247,8.26c0,4.356 -2.138,7.296 -5.696,8.315c-1.045,0.301 -2.089,0.374 -3.308,0.374l-7.268,0l0,-0.997l2.364,0l0,-15.426l-2.364,0l0,-0.996l7.268,0m-3.835,16.422l3.66,0c1.194,0 2.215,-0.098 3.207,-0.396c2.963,-0.898 4.854,-3.482 4.854,-7.321c0,-3.676 -1.741,-6.316 -4.604,-7.287c-1.097,-0.373 -2.142,-0.421 -3.458,-0.421l-3.66,0l0,15.425m3.836,-16.922l-7.268,0l-0.5,0l0,1.996l2.364,0l0,14.426l-1.864,0l-0.5,0l0,1.997l7.768,0c1.08,0 2.244,-0.048 3.446,-0.394c3.85,-1.103 6.058,-4.309 6.058,-8.796c0,-4.296 -2.089,-7.561 -5.588,-8.733c-1.327,-0.414 -2.481,-0.496 -3.916,-0.496Zm-3.335,1.996l3.16,0c1.386,0 2.322,0.062 3.297,0.395c2.71,0.919 4.265,3.402 4.265,6.813c0,3.481 -1.64,5.976 -4.5,6.843c-0.861,0.259 -1.806,0.375 -3.062,0.375l-3.16,0l0,-14.426Z" style="fill:#e31837;fill-rule:nonzero;"/></g><g><path d="M132.256,40.339l-0.251,0l-12.516,0l-0.251,0l0,-0.251l0,-0.999l0,-0.251l2.366,0l0,-14.922l-2.115,0l-0.251,0l0,-0.251l0,-0.997l0,-0.251l12.523,0l0,3.732l-0.251,0l-1.049,0l-0.25,0l0,-0.251l0,-1.982l-7.036,0l0,6.64l6.943,0l0,1.498l-0.251,0l-6.692,0l0,6.784l7.535,0l0,-2.137l0,-0.25l1.546,0l0,3.888Z" style="fill:#e31837;fill-rule:nonzero;"/><path d="M131.511,22.668l0,3.231l-1.048,0l0,-2.235l-7.539,0l0,7.142l6.943,0l0,0.996l-6.943,0l0,7.288l8.037,0l0,-2.389l1.044,0l0,3.386l-12.515,0l0,-0.997l2.365,0l0,-15.426l-2.365,0l0,-0.996l12.021,0m0.5,-0.5l-0.5,0l-12.021,0l-0.5,0l0,1.996l2.365,0l0,14.426l-1.865,0l-0.5,0l0,1.997l13.515,0l0,-0.5l0,-3.386l0,-0.5l-0.5,0l-1.044,0l-0.5,0l0,2.389l-7.037,0l0,-6.288l6.943,0l0,-0.5l0,-0.996l0,-0.5l-0.5,0l-6.443,0l0,-6.142l6.539,0l0,2.235l2.048,0l0,-0.5l0,-3.231l0,-0.5Z" style="fill:#e31837;fill-rule:nonzero;"/></g><g><path d="M149.452,40.339l-0.25,0l-0.473,0c-1.598,0 -1.877,-0.236 -2.603,-1.444l-3.112,-5.247c-0.477,-0.823 -0.744,-1.028 -1.849,-1.028l-2.661,0l0,6.219l2.364,0l0,1.501l-0.25,0l-5.798,0l-0.251,0l0,-0.251l0,-0.999l0,-0.251l2.365,0l0,-14.923l-2.114,0l-0.251,0l0,-0.251l0,-0.997l0,-0.251l7.593,0c1.154,0 2.07,0.07 3.065,0.413c1.308,0.501 2.858,1.681 2.858,4.461c0,2.707 -1.531,4.688 -3.941,5.16c0.077,0.1 0.164,0.22 0.25,0.365l3.283,5.572c0.228,0.379 0.394,0.449 1.053,0.449l0.723,0l0,1.502l-0.001,0Zm-10.948,-9.218l4.354,0c2.155,0 3.604,-1.517 3.604,-3.773c0,-1.567 -0.666,-2.611 -1.975,-3.103c-0.586,-0.22 -1.386,-0.329 -2.375,-0.329l-3.608,0l0,7.205Z" style="fill:#e31837;fill-rule:nonzero;"/><path d="M142.161,22.668c1.17,0 2.041,0.072 2.984,0.397c1.619,0.623 2.688,1.99 2.688,4.226c0,2.688 -1.591,4.682 -4.154,4.98l0,0.049c0,0 0.247,0.202 0.498,0.624l3.284,5.57c0.3,0.502 0.595,0.575 1.267,0.575l0.474,0l0,0.997l-0.474,0c-1.519,0 -1.716,-0.204 -2.388,-1.32l-3.11,-5.248c-0.523,-0.898 -0.871,-1.15 -2.065,-1.15l-2.911,0l0,6.722l2.364,0l0,0.997l-5.798,0l0,-0.997l2.365,0l0,-15.426l-2.365,0l0,-0.996l7.341,0m-3.907,8.704l4.604,0c2.288,0 3.854,-1.61 3.854,-4.024c0,-1.773 -0.818,-2.841 -2.137,-3.336c-0.672,-0.251 -1.543,-0.348 -2.462,-0.348l-3.858,0l0,7.708m3.906,-9.204l-7.341,0l-0.5,0l0,1.996l2.365,0l0,14.426l-1.865,0l-0.5,0l0,1.997l6.798,0l0,-0.5l0,-0.997l0,-0.5l-0.5,0l-1.864,0l0,-5.722l2.411,0c1.013,0 1.201,0.159 1.633,0.902l3.112,5.251c0.764,1.27 1.115,1.565 2.818,1.565l0.974,0l0,-0.5l0,-0.996l0,-0.5l-0.5,0l-0.474,0c-0.616,0 -0.678,-0.063 -0.838,-0.332l-3.282,-5.567c-0.016,-0.026 -0.032,-0.053 -0.048,-0.078c2.319,-0.617 3.773,-2.626 3.773,-5.321c0,-2.279 -1.068,-3.945 -3.009,-4.692c-1.042,-0.361 -1.981,-0.432 -3.163,-0.432Zm-3.407,1.996l3.358,0c0.956,0 1.726,0.106 2.288,0.316c1.219,0.457 1.812,1.396 1.812,2.867c0,2.141 -1.317,3.524 -3.354,3.524l-4.104,0l0,-6.707Z" style="fill:#e31837;fill-rule:nonzero;"/></g><g><path d="M166.646,40.636c-4.993,0 -9.057,-4.209 -9.057,-9.384c0,-5.123 3.979,-9.135 9.057,-9.135c5.081,0 9.062,4.012 9.062,9.135c0,5.175 -4.066,9.384 -9.062,9.384Zm0,-16.998c-4.172,0 -7.438,3.345 -7.438,7.614c0,4.41 3.266,7.862 7.438,7.862c4.171,0 7.439,-3.452 7.439,-7.862c0,-4.27 -3.268,-7.614 -7.439,-7.614Z" style="fill:#e31837;fill-rule:nonzero;"/><path d="M166.646,22.368c4.854,0 8.811,3.88 8.811,8.883c0,5.126 -3.957,9.135 -8.811,9.135c-4.85,0 -8.807,-4.009 -8.807,-9.135c0.001,-5.003 3.957,-8.883 8.807,-8.883m0,16.997c4.255,0 7.689,-3.539 7.689,-8.114c0,-4.453 -3.434,-7.863 -7.689,-7.863c-4.255,0 -7.688,3.41 -7.688,7.863c0,4.575 3.433,8.114 7.688,8.114m0,-17.497c-5.219,0 -9.307,4.121 -9.307,9.383c0,5.312 4.175,9.635 9.307,9.635c5.134,0 9.311,-4.322 9.311,-9.635c0.001,-5.262 -4.089,-9.383 -9.311,-9.383Zm0,16.997c-4.031,0 -7.188,-3.345 -7.188,-7.614c0,-4.129 3.158,-7.363 7.188,-7.363c4.031,0 7.189,3.234 7.189,7.363c0.001,4.27 -3.157,7.614 -7.189,7.614Z" style="fill:#e31837;fill-rule:nonzero;"/></g><g><path d="M184.244,40.339l-0.251,0l-5.922,0l-0.251,0l0,-0.251l0,-0.999l0,-0.251l2.365,0l0,-14.922l-2.114,0l-0.251,0l0,-0.251l0,-0.997l0,-0.251l11.899,0l0,3.863l-0.251,0l-1.046,0l-0.251,0l0,-0.251l0,-2.113l-6.416,0l0,6.762l6.669,0l0,1.496l-0.251,0l-6.418,0l0,6.664l2.489,0l0,1.501Z" style="fill:#e31837;fill-rule:nonzero;"/><path d="M189.468,22.668l0,3.36l-1.046,0l0,-2.364l-6.918,0l0,7.264l6.668,0l0,0.996l-6.668,0l0,7.166l2.49,0l0,0.997l-5.923,0l0,-0.997l2.365,0l0,-15.426l-2.365,0l0,-0.996l11.397,0m0.5,-0.5l-0.5,0l-11.398,0l-0.5,0l0,1.996l2.365,0l0,14.426l-1.865,0l-0.5,0l0,1.997l6.923,0l0,-0.5l0,-0.997l0,-0.5l-0.5,0l-1.99,0l0,-6.166l6.668,0l0,-0.5l0,-0.996l0,-0.5l-0.5,0l-6.168,0l0,-6.264l5.918,0l0,2.364l2.046,0l0,-0.5l0,-3.36l0,-0.5l0.001,0Z" style="fill:#e31837;fill-rule:nonzero;"/></g><g><path d="M207.933,40.339l-0.251,0l-5.799,0l-0.25,0l0,-0.251l0,-0.999l0,-0.251l2.364,0l0,-14.922l-5.069,0l0,2.93l-0.25,0l-1.049,0l-0.251,0l0,-0.251l0,-3.927l0,-0.251l14.809,0l0,4.429l-0.251,0l-1.042,0l-0.251,0l0,-0.251l0,-2.679l-5.075,0l0,14.922l2.365,0l0,1.501Z" style="fill:#e31837;fill-rule:nonzero;"/><path d="M211.937,22.668l0,3.928l-1.044,0l0,-2.932l-5.576,0l0,15.426l2.364,0l0,0.997l-5.797,0l0,-0.997l2.364,0l0,-15.426l-5.571,0l0,2.932l-1.049,0l0,-3.928l14.309,0m0.5,-0.5l-0.5,0l-14.308,0l-0.5,0l0,4.928l2.049,0l0,-0.5l0,-2.432l4.571,0l0,14.426l-1.864,0l-0.5,0l0,1.997l6.797,0l0,-0.5l0,-0.997l0,-0.5l-0.5,0l-1.864,0l0,-14.426l4.576,0l0,2.932l2.044,0l0,-0.5l0,-3.928l0,-0.5l-0.001,0Z" style="fill:#e31837;fill-rule:nonzero;"/></g><g><path d="M232.271,40.339l-0.25,0l-5.798,0l-0.251,0l0,-0.251l0,-0.999l0,-0.251l2.364,0l0,-6.736l-10.547,0l0,6.736l2.364,0l0,1.501l-0.251,0l-5.796,0l-0.251,0l0,-0.251l0,-0.999l0,-0.251l2.365,0l0,-14.922l-2.114,0l-0.251,0l0,-0.251l0,-0.997l0,-0.251l6.298,0l0,1.499l-0.251,0l-2.113,0l0,6.687l10.547,0l0,-6.687l-2.113,0l-0.251,0l0,-0.251l0,-0.997l0,-0.251l6.299,0l0,1.499l-0.25,0l-2.114,0l0,14.922l2.364,0l0,1.501Z" style="fill:#e31837;fill-rule:nonzero;"/><path d="M232.021,22.668l0,0.996l-2.364,0l0,15.426l2.364,0l0,0.997l-5.798,0l0,-0.997l2.365,0l0,-7.239l-11.05,0l0,7.239l2.365,0l0,0.997l-5.798,0l0,-0.997l2.365,0l0,-15.426l-2.365,0l0,-0.996l5.798,0l0,0.996l-2.365,0l0,7.19l11.05,0l0,-7.19l-2.365,0l0,-0.996l5.798,0m0.5,-0.5l-0.5,0l-5.798,0l-0.5,0l0,1.996l2.365,0l0,6.19l-10.05,0l0,-6.19l2.365,0l0,-0.5l0,-0.996l0,-0.5l-0.5,0l-5.798,0l-0.5,0l0,1.996l2.365,0l0,14.426l-1.865,0l-0.5,0l0,1.997l6.798,0l0,-0.5l0,-0.997l0,-0.5l-0.5,0l-1.865,0l0,-6.239l10.05,0l0,6.239l-1.865,0l-0.5,0l0,1.997l6.798,0l0,-0.5l0,-0.997l0,-0.5l-0.5,0l-1.864,0l0,-14.426l2.364,0l0,-0.5l0,-0.996l0,-0.5Z" style="fill:#e31837;fill-rule:nonzero;"/></g><g><path d="M247.424,40.339l-0.25,0l-12.515,0l-0.251,0l0,-0.251l0,-0.999l0,-0.251l2.365,0l0,-14.922l-2.114,0l-0.251,0l0,-0.251l0,-0.997l0,-0.251l12.519,0l0,3.732l-0.251,0l-1.044,0l-0.251,0l0,-0.251l0,-1.982l-7.037,0l0,6.64l6.942,0l0,1.498l-0.251,0l-6.691,0l0,6.784l7.534,0l0,-2.137l0,-0.25l1.546,0l0,3.888Z" style="fill:#e31837;fill-rule:nonzero;"/><path d="M246.676,22.668l0,3.231l-1.045,0l0,-2.235l-7.539,0l0,7.142l6.944,0l0,0.996l-6.944,0l0,7.288l8.037,0l0,-2.389l1.045,0l0,3.386l-12.516,0l0,-0.997l2.364,0l0,-15.426l-2.364,0l0,-0.996l12.018,0m0.5,-0.5l-0.5,0l-12.018,0l-0.5,0l0,1.996l2.364,0l0,14.426l-1.864,0l-0.5,0l0,1.997l13.516,0l0,-0.5l0,-3.386l0,-0.5l-0.5,0l-1.045,0l-0.5,0l0,2.389l-7.037,0l0,-6.288l6.944,0l0,-0.5l0,-0.996l0,-0.5l-0.5,0l-6.444,0l0,-6.142l6.539,0l0,2.235l2.045,0l0,-0.5l0,-3.231l0,-0.5Z" style="fill:#e31837;fill-rule:nonzero;"/></g><g><path d="M272.557,40.339l-0.25,0l-5.125,0l-0.25,0l0,-0.251l0,-0.999l0,-0.251l2.007,0l-1.701,-4.525l-7.048,0l-1.679,4.525l2.005,0l0,1.501l-0.25,0l-5.127,0l-0.251,0l0,-0.251l0,-0.999l0,-0.251l1.946,0l6.084,-16.257l0.06,-0.164l1.492,0l0.06,0.164l6.082,16.257l1.943,0l0,1.501l0.002,0Zm-11.804,-7.525l5.92,0l-2.909,-7.792c-0.015,-0.035 -0.027,-0.07 -0.04,-0.108c-0.013,0.038 -0.025,0.075 -0.04,0.11l-2.931,7.79Z" style="fill:#e31837;fill-rule:nonzero;"/><path d="M264.297,22.668l6.145,16.422l1.866,0l0,0.997l-5.125,0l0,-0.997l2.117,0l-1.89,-5.028l-7.393,0l-1.863,5.028l2.114,0l0,0.997l-5.126,0l0,-0.997l1.868,0l6.146,-16.422l1.141,0m-3.905,10.397l6.644,0l-3.036,-8.131c-0.174,-0.453 -0.25,-0.946 -0.25,-0.946l-0.05,0c0,0 -0.074,0.493 -0.248,0.946l-3.06,8.131m4.252,-10.897l-0.347,0l-1.144,0l-0.347,0l-0.122,0.325l-6.024,16.097l-1.521,0l-0.5,0l0,1.997l6.126,0l0,-0.5l0,-0.997l0,-0.5l-0.5,0l-1.395,0l1.493,-4.028l6.699,0l1.514,4.028l-1.395,0l-0.5,0l0,1.997l6.125,0l0,-0.5l0,-0.997l0,-0.5l-0.5,0l-1.519,0l-6.023,-16.097l-0.12,-0.325Zm-3.53,10.397l2.61,-6.936l2.59,6.936l-5.2,0Z" style="fill:#e31837;fill-rule:nonzero;"/></g><g><path d="M288.512,40.339l-0.25,0l-0.473,0c-1.598,0 -1.877,-0.236 -2.603,-1.444l-3.111,-5.25c-0.479,-0.82 -0.746,-1.025 -1.851,-1.025l-2.661,0l0,6.219l2.36,0l0,1.501l-0.251,0l-5.794,0l-0.251,0l0,-0.251l0,-0.999l0,-0.251l2.363,0l0,-14.923l-2.112,0l-0.251,0l0,-0.251l0,-0.997l0,-0.251l7.593,0c1.154,0 2.068,0.07 3.062,0.413c1.847,0.71 2.86,2.294 2.86,4.461c0,2.707 -1.533,4.688 -3.946,5.16c0.079,0.1 0.166,0.222 0.251,0.367l3.287,5.57c0.224,0.379 0.392,0.449 1.053,0.449l0.723,0l0,1.502l0.002,0Zm-10.948,-9.218l4.354,0c2.155,0 3.604,-1.517 3.604,-3.773c0,-1.565 -0.665,-2.609 -1.975,-3.103c-0.586,-0.22 -1.388,-0.329 -2.379,-0.329l-3.604,0l0,7.205Z" style="fill:#e31837;fill-rule:nonzero;"/><path d="M281.221,22.668c1.166,0 2.037,0.072 2.983,0.397c1.616,0.623 2.689,1.99 2.689,4.226c0,2.688 -1.595,4.682 -4.158,4.98l0,0.049c0,0 0.25,0.202 0.498,0.624l3.287,5.57c0.296,0.502 0.596,0.575 1.268,0.575l0.474,0l0,0.997l-0.474,0c-1.519,0 -1.717,-0.204 -2.389,-1.32l-3.109,-5.248c-0.523,-0.898 -0.871,-1.15 -2.065,-1.15l-2.912,0l0,6.722l2.361,0l0,0.997l-5.794,0l0,-0.997l2.361,0l0,-15.426l-2.361,0l0,-0.996l7.341,0m-3.908,8.704l4.604,0c2.287,0 3.855,-1.61 3.855,-4.024c0,-1.773 -0.822,-2.841 -2.138,-3.336c-0.672,-0.251 -1.542,-0.348 -2.465,-0.348l-3.855,0l0,7.708m3.907,-9.204l-7.341,0l-0.5,0l0,1.996l2.361,0l0,14.426l-1.861,0l-0.5,0l0,1.997l6.794,0l0,-0.5l0,-0.997l0,-0.5l-0.5,0l-1.861,0l0,-5.722l2.412,0c1.013,0 1.201,0.159 1.633,0.902l3.111,5.251c0.764,1.27 1.115,1.565 2.819,1.565l0.974,0l0,-0.5l0,-0.996l0,-0.5l-0.5,0l-0.474,0c-0.62,0 -0.68,-0.062 -0.837,-0.329l-3.287,-5.57c-0.016,-0.027 -0.031,-0.053 -0.047,-0.078c2.32,-0.618 3.776,-2.626 3.776,-5.321c0,-2.277 -1.069,-3.944 -3.01,-4.692c-1.045,-0.361 -1.983,-0.432 -3.162,-0.432Zm-3.408,1.996l3.355,0c0.958,0 1.729,0.106 2.291,0.316c1.203,0.452 1.813,1.417 1.813,2.867c0,2.141 -1.317,3.524 -3.355,3.524l-4.104,0l0,-6.707Z" style="fill:#e31837;fill-rule:nonzero;"/></g><g><path d="M305.159,40.339l-0.251,0l-0.475,0c-1.595,0 -1.875,-0.236 -2.601,-1.444l-3.112,-5.247c-0.477,-0.823 -0.744,-1.028 -1.849,-1.028l-2.661,0l0,6.219l2.365,0l0,1.501l-0.251,0l-5.798,0l-0.251,0l0,-0.251l0,-0.999l0,-0.251l2.364,0l0,-14.923l-2.113,0l-0.251,0l0,-0.251l0,-0.997l0,-0.251l7.591,0c1.156,0 2.072,0.07 3.065,0.413c1.308,0.501 2.858,1.678 2.858,4.461c0,2.707 -1.532,4.689 -3.942,5.16c0.079,0.1 0.164,0.22 0.251,0.365l3.285,5.572c0.228,0.379 0.394,0.449 1.05,0.449l0.726,0l0,1.502Zm-10.949,-9.218l4.352,0c2.159,0 3.608,-1.517 3.608,-3.773c0,-1.567 -0.665,-2.609 -1.977,-3.103c-0.588,-0.22 -1.388,-0.329 -2.375,-0.329l-3.608,0l0,7.205Z" style="fill:#e31837;fill-rule:nonzero;"/><path d="M297.867,22.668c1.17,0 2.041,0.072 2.984,0.397c1.62,0.623 2.688,1.99 2.688,4.226c0,2.688 -1.591,4.682 -4.153,4.98l0,0.049c0,0 0.247,0.202 0.497,0.624l3.285,5.57c0.299,0.502 0.596,0.575 1.266,0.575l0.474,0l0,0.997l-0.474,0c-1.516,0 -1.716,-0.204 -2.388,-1.32l-3.11,-5.248c-0.521,-0.898 -0.87,-1.15 -2.065,-1.15l-2.911,0l0,6.722l2.364,0l0,0.997l-5.798,0l0,-0.997l2.365,0l0,-15.426l-2.365,0l0,-0.996l7.341,0m-3.907,8.704l4.604,0c2.287,0 3.858,-1.61 3.858,-4.024c0,-1.773 -0.822,-2.841 -2.142,-3.336c-0.672,-0.251 -1.542,-0.348 -2.461,-0.348l-3.859,0l0,7.708m3.907,-9.204l-7.34,0l-0.5,0l0,1.996l2.365,0l0,14.426l-1.865,0l-0.5,0l0,1.997l6.798,0l0,-0.5l0,-0.997l0,-0.5l-0.5,0l-1.864,0l0,-5.722l2.411,0c1.014,0 1.202,0.159 1.632,0.901l3.113,5.252c0.764,1.27 1.115,1.565 2.818,1.565l0.974,0l0,-0.5l0,-0.996l0,-0.5l-0.5,0l-0.474,0c-0.616,0 -0.677,-0.063 -0.837,-0.331l-3.283,-5.568c-0.016,-0.026 -0.032,-0.053 -0.047,-0.078c2.318,-0.617 3.773,-2.626 3.773,-5.321c0,-2.279 -1.068,-3.946 -3.009,-4.692c-1.045,-0.361 -1.983,-0.432 -3.165,-0.432Zm-3.407,1.996l3.359,0c0.956,0 1.725,0.106 2.287,0.316c1.205,0.452 1.816,1.417 1.816,2.867c0,2.108 -1.35,3.524 -3.358,3.524l-4.104,0l0,-6.707Z" style="fill:#e31837;fill-rule:nonzero;"/></g><g><path d="M315.958,40.636c-4.997,0 -9.061,-4.209 -9.061,-9.384c0,-5.123 3.981,-9.135 9.061,-9.135c5.08,0 9.058,4.012 9.058,9.135c0.001,5.175 -4.063,9.384 -9.058,9.384Zm0,-16.998c-4.172,0 -7.438,3.345 -7.438,7.614c0,4.41 3.266,7.862 7.438,7.862c4.172,0 7.438,-3.452 7.438,-7.862c0,-4.27 -3.266,-7.614 -7.438,-7.614Z" style="fill:#e31837;fill-rule:nonzero;"/><path d="M315.959,22.368c4.851,0 8.806,3.88 8.806,8.883c0,5.126 -3.956,9.135 -8.806,9.135c-4.854,0 -8.81,-4.009 -8.81,-9.135c0,-5.003 3.955,-8.883 8.81,-8.883m0,16.997c4.255,0 7.688,-3.539 7.688,-8.114c0,-4.453 -3.433,-7.863 -7.688,-7.863c-4.255,0 -7.688,3.41 -7.688,7.863c0,4.575 3.433,8.114 7.688,8.114m0,-17.497c-5.221,0 -9.31,4.121 -9.31,9.383c0,5.312 4.176,9.635 9.31,9.635c5.131,0 9.306,-4.322 9.306,-9.635c0,-5.262 -4.088,-9.383 -9.306,-9.383Zm0,16.997c-4.031,0 -7.188,-3.345 -7.188,-7.614c0,-4.129 3.158,-7.363 7.188,-7.363c4.03,0 7.188,3.234 7.188,7.363c0,4.27 -3.157,7.614 -7.188,7.614Z" style="fill:#e31837;fill-rule:nonzero;"/></g><g><path d="M344.151,40.339l-0.195,0l-1.345,0l-0.188,0l-0.052,-0.183l-4.252,-14.812l-4.253,14.812l-0.052,0.183l-0.188,0l-1.343,0l-0.195,0l-0.047,-0.189l-4.158,-16.234l-1.645,0l-0.251,0l0,-0.251l0,-0.997l0,-0.251l5.579,0l0,1.499l-0.251,0l-1.773,0l3.427,13.772l4.325,-15.088l0.052,-0.183l1.548,0l0.051,0.183l4.323,15.086l3.428,-13.77l-1.774,0l-0.251,0l0,-0.251l0,-0.997l0,-0.251l5.579,0l0,1.499l-0.251,0l-1.645,0l-4.155,16.234l-0.048,0.189Z" style="fill:#e31837;fill-rule:nonzero;"/><path d="M350,22.668l0,0.996l-1.842,0l-4.203,16.423l-1.345,0l-4.28,-14.909c-0.125,-0.445 -0.174,-0.947 -0.174,-0.947l-0.077,0c0,0 -0.048,0.502 -0.173,0.947l-4.28,14.909l-1.344,0l-4.204,-16.423l-1.842,0l0,-0.996l5.077,0l0,0.996l-2.093,0l3.511,14.106c0.1,0.445 0.174,0.947 0.174,0.947l0.072,0c0,0 0.102,-0.502 0.227,-0.947l4.328,-15.103l1.171,0l4.328,15.103c0.125,0.445 0.227,0.947 0.227,0.947l0.073,0c0,0 0.073,-0.502 0.174,-0.947l3.51,-14.106l-2.093,0l0,-0.996l5.078,0m0.5,-0.5l-0.5,0l-5.078,0l-0.5,0l0,1.996l1.954,0l-3.125,12.558l-4.067,-14.191l-0.104,-0.362l-0.377,0l-1.171,0l-0.377,0l-0.104,0.362l-4.067,14.191l-3.125,-12.558l1.954,0l0,-0.5l0,-0.996l0,-0.5l-0.5,0l-5.077,0l-0.5,0l0,1.996l1.954,0l4.107,16.047l0.096,0.376l2.108,0l0.104,-0.362l4.012,-13.975l4.012,13.975l0.104,0.362l2.109,0l0.096,-0.376l4.106,-16.047l1.956,0l0,-0.5l0,-0.996l0,-0.5Z" style="fill:#e31837;fill-rule:nonzero;"/></g></g><g><path d="M66.881,15.26l1.87,0l0,-6.041l2.32,0l0,-1.602l-6.51,0l0,1.602l2.32,0l0,6.041Z" style="fill:#e31837;fill-rule:nonzero;"/><path d="M74.251,12.45c0,1.721 1.26,2.939 3.206,2.939c1.925,0 3.186,-1.218 3.186,-2.939l0,-4.833l-1.87,0l0,4.833c0,0.802 -0.524,1.229 -1.326,1.229c-0.803,0 -1.327,-0.427 -1.327,-1.229l0,-4.833l-1.869,0l0,4.833Z" style="fill:#e31837;fill-rule:nonzero;"/><path d="M84.678,15.26l4.992,0l0,-1.602l-3.123,0l0,-6.041l-1.869,0l0,7.643Z" style="fill:#e31837;fill-rule:nonzero;"/><path d="M93.041,15.26l1.87,0l0,-2.363l1.305,0c1.486,0 2.491,-1.111 2.491,-2.65c0,-1.54 -1.005,-2.63 -2.491,-2.63l-3.175,0l0,7.643Zm1.87,-3.965l0,-2.076l0.952,0c0.621,0 0.942,0.418 0.942,1.028c0,0.609 -0.321,1.048 -0.974,1.048l-0.92,0Z" style="fill:#e31837;fill-rule:nonzero;"/><path d="M102.164,15.26l4.938,0l0,-1.602l-3.068,0l0,-1.445l2.331,0l0,-1.602l-2.331,0l0,-1.392l2.919,0l0,-1.602l-4.789,0l0,7.643Z" style="fill:#e31837;fill-rule:nonzero;"/><path d="M116.606,15.26l4.992,0l0,-1.602l-3.122,0l0,-6.041l-1.87,0l0,7.643Z" style="fill:#e31837;fill-rule:nonzero;"/><path d="M124.392,11.391c0,2.246 1.688,3.998 3.998,3.998c2.31,0 3.998,-1.752 3.998,-3.998c0,-2.193 -1.688,-3.902 -3.998,-3.902c-2.31,0 -3.998,1.709 -3.998,3.902Zm1.934,0c0,-1.252 0.92,-2.193 2.064,-2.193c1.145,0 2.064,0.941 2.064,2.193c0,1.304 -0.919,2.288 -2.064,2.288c-1.144,0 -2.064,-0.984 -2.064,-2.288Z" style="fill:#e31837;fill-rule:nonzero;"/><path d="M136.006,15.26l2.715,0c2.406,0 3.945,-1.431 3.945,-3.837c0,-2.407 -1.539,-3.806 -3.945,-3.806l-2.715,0l0,7.643Zm1.87,-1.602l0,-4.439l0.77,0c1.262,0 2.086,0.749 2.086,2.204c0,1.465 -0.792,2.235 -2.086,2.235l-0.77,0Z" style="fill:#e31837;fill-rule:nonzero;"/><path d="M145.813,11.423c0,2.502 1.795,3.966 3.752,3.966c1.273,0 2.011,-0.663 2.011,-0.663l0.021,0c0,0 -0.01,0.16 -0.01,0.321l0,0.213l1.559,0l0,-4.318l-2.736,0l0,1.592l1.081,0l0,0.589c0,0 -0.653,0.556 -1.551,0.556c-1.188,0 -2.193,-0.867 -2.193,-2.32c0,-1.134 0.652,-2.161 2.257,-2.161c1.08,0 1.86,0.706 1.86,0.706l0.898,-1.4c0,0 -0.983,-1.015 -2.94,-1.015c-2.331,0 -4.009,1.709 -4.009,3.934Z" style="fill:#e31837;fill-rule:nonzero;"/><path d="M156.903,15.26l4.939,0l0,-1.602l-3.069,0l0,-1.445l2.331,0l0,-1.602l-2.331,0l0,-1.392l2.919,0l0,-1.602l-4.789,0l0,7.643Z" style="fill:#e31837;fill-rule:nonzero;"/></g><g><path d="M38.296,33.254l-5.05,5.054l13.112,13.113l5.054,-5.052l-13.116,-13.115Z" style="fill:#e31837;fill-rule:nonzero;"/><path d="M45.447,35.119c-0.213,0.366 -0.642,0.488 -1.05,0.346c-0.467,-0.189 -0.893,-0.612 -1.089,-1.085c-0.133,-0.256 -0.096,-0.604 0.061,-0.831c0.194,-0.235 0.464,-0.274 0.737,-0.313c0.486,0.134 0.99,0.446 1.242,0.889c0.136,0.292 0.235,0.699 0.099,0.994Zm-9.211,-5.049l-6.315,6.272c-0.368,0.174 -0.718,-0.177 -0.855,-0.463c-0.018,-0.215 0.119,-0.395 0.195,-0.584l6.064,-6.063c0.193,-0.078 0.486,-0.172 0.699,-0.041c0.231,0.238 0.425,0.588 0.212,0.879Zm-8.78,4.896c-0.373,-0.529 -0.447,-1.267 -0.816,-1.824c0.094,-0.377 0.426,-0.707 0.816,-0.82l1.417,0.216c0.193,0.152 0.505,0.189 0.562,0.483c-0.31,0.272 -0.019,0.916 -0.486,1.104c-0.506,0.235 -0.854,1.133 -1.493,0.841Zm-1.596,-4.316c-0.156,-0.153 -0.252,-0.407 -0.133,-0.604c0.308,-0.466 0.855,-0.117 1.242,-0.19c0.156,0.271 0.679,0.604 0.388,0.973c0.274,0.576 -0.406,0.87 -0.388,1.398c-0.349,0.233 -0.643,-0.098 -0.973,-0.199c-0.212,-0.443 -0.466,-0.925 -0.136,-1.378Zm-0.756,-4.253c-0.08,-0.236 0.076,-0.312 0.096,-0.567c0.273,-0.15 0.486,-0.404 0.797,-0.367c0.37,0.217 0.624,0.311 0.78,0.736c-0.175,0.332 -0.604,0.879 -0.992,0.879c-0.313,-0.123 -0.507,-0.389 -0.681,-0.681Zm-0.543,-6.526c0,-0.237 -0.254,-0.331 -0.411,-0.492c0.08,-0.424 -0.019,-0.952 -0.485,-1.218c-0.444,-0.056 -0.289,-0.718 -0.794,-0.605c-0.156,-0.464 0.231,-0.897 -0.156,-1.245c-0.02,-0.445 0.488,-0.406 0.543,-0.813c0.081,-0.076 0.137,-0.179 0.274,-0.161c0.057,-0.132 0.37,-0.208 0.562,-0.367c0.387,0.037 0.213,0.604 0.642,0.566c0.289,0.132 0.156,0.35 0.058,0.527c0.136,0.331 0.505,0.616 0.386,1.003c0.643,0.218 0.061,0.841 0.605,1.076c0.118,0.038 0,0.152 0,0.267c0.212,0.451 0.27,0.82 -0.176,1.189c0.096,0.254 0.039,0.538 -0.291,0.64c-0.294,-0.178 -0.838,0.255 -0.757,-0.367Zm-2.002,12.45c-0.175,0.443 0.155,1.048 -0.388,1.321c-0.487,-0.217 -1.38,0.057 -1.341,-0.755c0.155,-0.389 -0.487,-0.718 -0.1,-1.105c-0.193,-0.351 0.391,-0.351 0.312,-0.661c0.369,-0.065 0.855,-0.511 1.11,0.018c0.175,-0.063 0.288,0.172 0.369,0.293c-0.039,0.114 -0.119,0.304 -0.02,0.444c0.213,0.134 0.213,0.294 0.058,0.445Zm-2.565,6.603c-0.467,-0.189 -0.932,0.237 -1.436,0.084c-0.487,-0.564 -1.091,-0.936 -0.935,-1.749c-0.368,-0.214 -0.138,-0.8 -0.681,-0.839c0.156,-0.273 -0.137,-0.642 -0.27,-0.935c-0.349,-0.189 0.019,-0.52 -0.235,-0.775c0.079,-0.425 0.079,-0.851 0.468,-1.124c0.273,-0.234 0.641,-0.254 0.992,-0.096c0.523,0.56 0.619,1.24 0.637,1.958c0.566,0.056 0.099,0.951 0.76,0.679c0,0.351 0.292,0.332 0.525,0.453c0.406,0.247 0.873,0.521 0.816,1.049c-0.349,0.388 -0.135,1.028 -0.641,1.295Zm-4.392,-24.637c-0.233,0 -0.464,0 -0.563,-0.208c0.292,-0.405 -0.312,-0.51 -0.175,-0.915c-0.756,-0.254 0.351,-0.661 -0.136,-1.028c0.019,-0.485 0.561,-0.719 0.935,-0.853c0.307,0.266 0.717,0.058 1.029,-0.104c0.349,0.471 0.775,0.624 1.28,0.784c0.369,0.056 0.236,0.615 0.661,0.501c0.331,0.177 0.077,0.624 0.02,0.877c-0.137,0.369 -0.057,0.909 -0.563,1.105c-0.387,0.077 -0.737,-0.196 -1.068,0.058c-0.467,-0.235 -1.01,0.038 -1.42,-0.217Zm-0.289,8.143c-0.548,0.388 -1.11,0.142 -1.615,-0.169c-0.445,-0.218 -1.105,0.017 -1.281,-0.586c-0.136,-0.529 0.02,-0.954 0.157,-1.438l0.269,0c-0.095,-0.29 -0.095,-0.68 0,-1.009c0.369,-0.406 0.779,0.114 1.167,-0.198c0.273,0.349 0.854,0.472 0.797,1.029c0.444,0.178 0.582,0.784 1.048,1.011c-0.212,0.529 0.289,1.191 -0.542,1.36Zm-2.644,5.791c-0.252,0.141 -0.488,0.37 -0.819,0.237c-0.444,-0.294 -0.736,-0.699 -1.028,-1.107l-0.213,-0.139c0.293,-0.295 0.099,-0.645 0.118,-0.975c0.388,-0.151 0.504,-0.812 0.968,-0.698c0.275,-0.229 0.43,0.084 0.703,0.037c0.232,0.435 0.64,0.955 0.29,1.463c0.934,0.266 -0.251,0.682 -0.019,1.182Zm-3.109,-10.684c-0.429,-0.114 -0.835,-0.292 -1.261,-0.292c-0.312,-0.426 -0.916,-0.293 -1.147,-0.796c-0.292,-0.018 -0.312,-0.312 -0.35,-0.509c0.095,-0.367 0.252,-0.756 -0.118,-1.048c-0.524,-0.953 0.699,-1.362 1.341,-0.953c0.426,0.312 0.7,0.819 0.755,1.265c0.487,0.681 1.423,0.331 1.885,0.991c-0.076,0.273 -0.213,0.567 -0.29,0.832l-0.815,0.51Zm0.274,-7.963c0.387,-0.434 0.949,-0.019 1.317,-0.548c0.469,-0.039 0.585,0.5 1.091,0.387c0.193,0.113 0.426,0.274 0.463,0.464c-0.194,0.395 0.255,0.605 0.137,0.953c-0.387,0.663 -1.243,0.935 -1.455,1.651c-0.157,0.04 -0.331,0.181 -0.466,0.04c-0.525,-0.169 -0.545,-0.737 -0.855,-1.087c0.31,-0.546 -0.524,-0.877 -0.194,-1.436l-0.119,0.037c-0.094,-0.131 0.02,-0.328 0.081,-0.461Zm2.191,-2.786c0.331,-0.02 -0.018,-0.369 0.312,-0.387c0.236,0.121 0.604,0.058 0.817,-0.039c0.273,-0.153 0.562,0.178 0.835,-0.095c0.174,0.217 0.524,0.217 0.718,0.405l0.019,0.096c0.387,-0.189 0.429,0.199 0.561,0.491c0.294,0.208 -0.15,0.348 -0.095,0.558l-0.679,0.33l-0.02,-0.133c-0.212,-0.019 -0.387,0.312 -0.603,0.097c-0.038,-0.426 -0.426,0 -0.583,-0.229c-0.174,0.209 -0.388,0.039 -0.604,0.057c-0.229,-0.387 -0.791,-0.643 -0.678,-1.151Zm7.387,16.673c-0.175,0.604 0.619,0.896 0.465,1.482c0.565,0.322 0.503,0.926 0.953,1.294c0.057,0.415 -0.213,0.765 -0.544,0.935c-0.331,0.057 -0.662,0.272 -1.011,0.16c-0.312,-0.395 -0.892,-0.12 -1.186,-0.725c-0.154,-0.504 -0.798,-0.834 -0.893,-1.399c0.27,-0.662 -0.35,-1.398 0.288,-1.92l0.855,-0.697c0.351,0.264 1.248,0.112 1.073,0.87Zm1.494,-14.087c1.323,0.039 2.333,0.854 3.499,1.165c0.369,-0.21 0.542,0.472 0.835,0.063c0.331,0.209 -0.018,0.521 0.271,0.775c0.097,0.208 -0.176,0.482 -0.332,0.68c-0.968,0.352 -2.348,0.991 -3.263,0.152c-0.68,-0.057 -0.931,-1.011 -1.61,-1.182c-0.099,-0.293 -0.293,-0.604 -0.254,-0.916l0.854,-0.737Zm6.394,19.141c-0.018,-0.368 0.369,-0.604 0.505,-0.86c0.699,0.046 0.775,-1.002 1.456,-0.794l0.699,-0.234c0.136,0.376 0.33,0.603 0.175,1.028c-0.155,0.547 -0.874,0.879 -0.719,1.5c-0.445,0.521 -1.124,0.312 -1.671,0.274c0,-0.547 -1.012,-0.35 -0.445,-0.914Zm1.766,-15.409l0.021,0.058c0.33,-0.683 1.242,-0.388 1.884,-0.484c0.387,0.39 1.109,-0.254 1.264,0.522c0.058,0.367 0.426,0.699 0.039,1.011c-0.311,0.074 -0.388,0.471 -0.68,0.566c-0.936,-0.122 -1.904,1.321 -2.623,0.132c-0.117,-0.584 -0.255,-1.264 0.095,-1.805Zm0.699,17.798c0.138,-0.133 0.35,-0.313 0.194,-0.548c0.175,-0.21 0.411,-0.368 0.661,-0.267c-0.018,0.247 0.236,0.153 0.387,0.19c0.199,0.197 0.449,0.491 0.412,0.756c-0.43,0.51 -0.779,1.011 -1.304,1.38c-0.193,-0.039 -0.406,-0.058 -0.486,-0.286c0.019,-0.412 0.33,-0.801 0.136,-1.225Zm3.014,-12.762c0.388,0.076 0.562,0.596 0.7,0.964c0.25,0.217 0.27,0.623 0.425,0.898c-0.02,0.178 -0.133,0.331 -0.095,0.565c0.426,0.229 0.039,0.7 0.175,1.029c-0.311,0.349 -0.467,0.973 -0.991,1.03c-0.194,0.463 -0.797,0.756 -1.128,1.123c-0.368,0.02 -0.658,0.465 -1.086,0.237c-0.252,-0.255 -0.351,-0.471 -0.407,-0.803c0.075,-0.851 0.987,-1.107 1.105,-1.917c0.292,-0.18 0.467,-0.472 0.487,-0.803c-0.524,-0.369 0.563,-0.983 -0.274,-1.164c-0.114,-0.545 -0.931,-0.424 -0.854,-1.085c0.31,-0.312 0.523,-0.991 1.147,-0.795c0.212,0.408 0.716,0.25 0.796,0.721Zm1.473,8.974c0.198,0.387 0.218,0.87 -0.019,1.265c-0.426,0.425 -1.048,0.578 -1.03,1.258l-0.368,0.291c-0.137,-0.254 -0.095,-0.564 -0.426,-0.659c-0.155,-0.465 -0.292,-1.03 -0.759,-1.305c-0.194,-0.312 -0.293,-0.794 -0.175,-1.067c0.274,-0.113 0.741,-0.539 0.874,-0.056c0.661,-0.39 1.204,0.386 1.903,0.273Zm0.119,16.201c0.369,0.217 0.855,0.545 1.01,0.973c0.039,0.311 0.157,0.662 -0.038,0.935c-0.254,0.33 -0.717,0.368 -1.066,0.208c-0.548,-0.189 -0.992,-0.757 -1.091,-1.314c-0.114,-0.625 0.641,-1.067 1.185,-0.802Zm-29.066,-37.965c-0.175,0.293 -0.524,0.565 -0.855,0.774c-0.449,-0.132 -0.874,-0.368 -1.304,-0.596c-0.076,-0.349 -0.331,-0.68 -0.331,-0.993c0.663,-0.31 0.798,-1.188 1.635,-1.123l0.562,0.057c-0.075,0.425 0.487,0.445 0.273,0.851c0.02,0.14 0.156,0.272 -0.057,0.368c0.194,0.084 -0.06,0.453 0.077,0.662Zm31.65,14.631c-0.038,-0.35 0.039,-0.698 0.193,-0.973c0.392,-0.349 0.855,-0.312 1.342,-0.292c0.273,0.434 0.817,0.51 0.916,1.03l0.368,0.993c-0.699,0.544 -0.174,1.575 -1.029,1.999c-0.742,0 -1.049,1.211 -1.847,0.841c-0.255,-0.33 -0.738,-0.472 -0.564,-0.953l-0.154,-0.076c-0.118,-0.972 0.445,-1.737 0.775,-2.569Zm10.977,13.858c-0.233,-1.283 -1.612,-2.588 -2.836,-3.069c-1.084,-0.435 -2.545,-0.141 -3.438,0.597c-0.973,0.433 -1.633,-0.579 -2.253,-1.201c0.307,-0.274 0.563,-0.565 0.582,-0.976c0.038,-0.348 -0.099,-0.677 -0.407,-0.83c-0.816,-0.311 -1.421,0.444 -1.963,0.909c0.212,-0.255 0.156,-0.7 0.056,-0.993c-0.231,-0.388 -0.638,-0.557 -1.048,-0.698c-0.582,0.16 -1.281,0.037 -1.669,-0.463c0.194,-0.509 0.482,-0.917 1.008,-1.126c1.4,-0.35 2.876,-0.272 4.217,-0.839c0.312,-0.35 0.661,-0.774 0.893,-1.199c-0.463,-0.276 0.411,-0.531 0.062,-0.879c-0.193,-0.776 0.794,-0.916 0.987,-1.577c0.061,-0.21 -0.326,-0.521 0.023,-0.718c-0.099,-0.443 0.114,-0.927 0.563,-1.181c0.406,-0.492 -0.08,-0.936 0.312,-1.437c1.048,-0.975 -0.741,-1.712 -1.049,-2.494c-0.915,-0.283 -1.708,-0.812 -2.761,-0.661c-0.27,-0.349 -0.857,0.122 -1.145,-0.322c0.02,-0.415 -0.292,-0.727 -0.584,-1.01c-0.524,0.094 -0.814,-0.435 -1.281,-0.51c-0.661,-0.699 -1.573,-1.028 -2.372,-1.55c0.038,-0.858 -0.935,-0.084 -1.086,-0.858c-0.623,-0.388 -0.798,-1.343 -1.69,-1.266c-0.605,-0.369 -1.403,0.197 -1.985,-0.387c-0.929,0 -1.671,-0.541 -2.525,-0.777c-0.794,-0.291 -1.942,0.114 -2.428,-0.795c-1.012,-0.395 -1.418,-1.424 -2.31,-2.123c-0.236,-0.075 -0.487,0.019 -0.681,-0.246c-0.641,0.019 -1.204,-0.16 -1.808,-0.02c-0.737,0.852 -1.922,0.095 -2.777,-0.104c-0.525,-0.245 -0.855,-0.773 -1.38,-1.028c-0.368,-0.33 -0.896,-0.265 -1.379,-0.368c-0.022,-0.171 -0.197,-0.113 -0.331,-0.133c-0.448,-0.331 -1.185,-0.142 -1.729,-0.095c-0.429,-0.273 -0.835,-0.605 -1.246,-0.936c-0.251,-0.367 -0.813,-0.16 -0.969,-0.623c-0.469,-0.425 -1.031,-0.832 -1.693,-0.954c-0.874,-0.33 -1.634,0.472 -2.565,0.199c-0.31,-0.273 -0.642,-0.451 -0.991,-0.605c-0.331,-0.018 -0.643,-0.253 -0.992,-0.33c-0.911,0.329 -1.535,-0.52 -2.311,0.019c-0.174,0.18 -0.466,0.115 -0.641,0.059c-0.155,0.037 -0.312,0.195 -0.312,0.348c0.312,0.973 0.099,1.927 0.175,2.938c0.506,0.536 -0.155,1.283 0.293,1.804c0.638,0.49 0.114,1.283 0.463,1.867c0.604,0.447 0.68,1.146 1.01,1.712c0.043,0.349 0.373,0.558 0.312,0.926c0.7,0.237 0.137,0.878 0.254,1.342c0.308,0.351 0.35,0.738 0.506,1.133c0.444,0.02 0.289,0.598 0.482,0.871c0.392,0.272 0.354,0.773 0.779,1.01c-0.137,0.756 0.486,1.304 0.138,2.079c0.504,0.509 0.368,1.227 0.386,1.869c0,0.851 1.148,0.947 1.167,1.71c0.543,0.576 0.467,1.2 0.387,1.938c0.235,0.387 -0.095,1.188 0.468,1.441c0.232,0.23 -0.233,0.504 0.137,0.683c0.037,0.349 0.155,0.614 0.462,0.812c0.506,0.774 1.031,1.417 1.771,2.039c0.95,0.567 0.601,1.806 0.737,2.685c-0.369,1.257 1.128,1.823 1.243,2.909c0.118,0.272 0.429,0.349 0.449,0.643c0.603,0.292 0.368,1.19 1.127,1.284c0,0.235 0.213,0.483 0,0.699c-0.061,0.291 0.29,0.52 0.505,0.774c-0.042,0.548 0.582,0.821 0.812,1.286c0.099,0.214 -0.155,0.584 0.195,0.737c0.023,0.952 1.284,1.282 1.359,2.218c-0.133,0.367 0.156,0.699 0.35,1.011c0.042,0.351 0.486,0.558 0.43,0.965c0.076,0.351 0.448,0.565 0.738,0.699c0.273,0.819 1.185,0.763 1.615,1.38c0.349,0.197 0.699,-0.04 0.991,-0.21c0.657,0 1.007,-0.736 1.611,-0.914c0.816,-0.588 1.847,-0.682 2.72,-1.165c0.912,-0.801 1.147,-2.115 1.573,-3.012c-0.02,-0.528 -0.213,-0.99 -0.468,-1.477c0.081,-0.393 -0.132,-0.837 -0.019,-1.225c0.255,-0.719 1.205,-0.312 1.729,-0.331c0.156,0.075 0.33,0.293 0.467,0.197c0.369,0.096 0.057,0.521 0.118,0.812c0.114,0.389 0.289,0.758 0.642,1.032c0.289,0.131 0.854,0.112 1.068,0.019c-0.43,0.509 -1.248,0.933 -1.11,1.688c0.02,0.295 0.236,0.549 0.487,0.643c0.661,0.235 1.108,-0.293 1.591,-0.661c0.467,0.661 1.497,1.068 1.227,2.003c-0.778,0.936 -1.07,2.39 -0.722,3.553c0.45,1.15 1.597,2.491 2.858,2.898c1.985,0.387 4.18,-0.141 5.673,-1.832l-7.809,-7.888l6.74,-6.736l7.927,7.805c1.01,-0.852 1.515,-1.978 1.865,-3.108c0.083,-0.776 0.159,-1.548 0.023,-2.305Z" style="fill:#e31837;fill-rule:nonzero;"/><path d="M55.411,45.925l0,0.43l-0.729,0l0,2.009l-0.513,0l0,-2.009l-0.731,0l0,-0.43l1.973,0Z" style="fill:#e31837;fill-rule:nonzero;"/><path d="M57.329,45.925l0.736,0l0,2.439l-0.476,0l0,-1.652c0,-0.046 0,-0.111 0.001,-0.194c0.001,-0.092 0.003,-0.157 0.003,-0.201l-0.465,2.048l-0.495,0l-0.457,-2.048c0,0.044 0.001,0.109 0.001,0.201c0.001,0.083 0.002,0.148 0.002,0.194l0,1.652l-0.477,0l0,-2.439l0.742,0l0.446,1.923l0.439,-1.923Z" style="fill:#e31837;fill-rule:nonzero;"/></g></g></svg>