<?xml version="1.0" encoding="UTF-8" standalone="no"?><!DOCTYPE svg PUBLIC "-//W3C//DTD SVG 1.1//EN" "http://www.w3.org/Graphics/SVG/1.1/DTD/svg11.dtd"><svg width="100%" height="100%" viewBox="0 0 509 188" version="1.1" xmlns="http://www.w3.org/2000/svg" xmlns:xlink="http://www.w3.org/1999/xlink" xml:space="preserve" xmlns:serif="http://www.serif.com/" style="fill-rule:evenodd;clip-rule:evenodd;stroke-linejoin:round;stroke-miterlimit:2;"><path id="path0" d="M386.172,2.087c-7.225,-5.611 -7.489,1.868 -7.489,1.868c1.258,3.775 1.51,4.788 1.51,4.788l9.784,31.344c0.535,2.186 -127.583,2.533 -128.372,3.891c-0.372,0.641 1.159,0.96 1.564,1.58c2.537,3.889 2.302,3.967 6.082,6.719c6.112,4.45 11.514,10.126 18.382,13.288c1.401,0.645 3.526,-1.056 4.626,0.024c1.497,1.469 -3.535,2.373 -5.546,2.969c-5.146,1.526 -11.267,1.85 -16.207,3.236c-3.504,0.983 9.508,8.721 8.878,8.512c-3.908,-1.293 -6.838,-5.549 -10.951,-5.707c-1.37,-0.053 -3.813,2.544 -3.942,1.179c-0.554,-5.836 16.645,-7.112 19.35,-8.171l2.956,-1.157l-3.152,-2.946c-11.295,-10.552 -25.216,-13.973 -40.369,-12.132c-3.038,0.369 -2.151,3.877 -3.472,5.778c-1.11,1.596 -2.557,2.948 -4.032,4.215c-7.05,6.056 -11.635,4.926 -20.888,6.526l-7,1.21l-2.234,5.624c-4.684,11.787 0.055,29.559 -10.516,36.567c-1.768,1.172 -0.862,-4.273 -0.426,-6.349c2.405,-11.455 8.36,-22.482 8.037,-34.183c-0.102,-3.689 -5.842,-4.599 -9.154,-6.226c-5.807,-2.853 -12.067,-4.677 -18.051,-7.137c-0.992,-0.407 -3.921,-1.656 -2.866,-1.462c12.241,2.259 22.39,11.483 35.14,10.673c7.392,-0.47 19.877,-2.849 25.369,-8.63c1.578,-1.662 3.839,-7.217 3.705,-9.447c-0.07,-1.161 -3.268,-1.961 -2.308,-2.619c0.515,-0.352 1.185,0.418 1.804,0.5c4.568,0.606 9.137,1.275 13.737,1.559l11.238,0.693l-0.847,-2.288c-0.63,-1.703 -2.365,-2.818 -3.868,-3.838c-8.124,-5.509 -21.911,-9.043 -29.894,-10.911c-5.598,-1.31 -13.777,0.038 -18.372,3.665c-0.655,0.517 1.88,2.022 1.08,2.256c-1.3,0.382 -2.752,-0.648 -4.055,-0.276c-17.004,4.858 -36.101,13.521 -46.099,29.265c-3.888,6.123 -6.607,12.915 -9.92,19.367c-1.93,3.76 -2.61,8.507 -5.808,11.269c-2.428,2.098 2.077,-6.073 3.25,-9.059c1.097,-2.791 2.297,-5.542 3.558,-8.263c1.609,-3.472 3.01,-7.073 5.051,-10.311c2.58,-4.093 5.955,-7.632 8.748,-11.583c0.571,-0.807 1.966,-1.911 1.318,-2.659c-0.866,-0.998 -2.631,-0.25 -3.946,-0.372c-7.204,-0.668 -21.63,-5.532 -27.516,-0.697c-1.179,0.968 -5.477,7.63 -6.423,7.894c-1.499,0.42 1.49,-2.733 2.23,-4.103c0.741,-1.371 1.413,-2.781 2.215,-4.118c4.17,-6.952 5.847,-10.263 12.527,-15.344c0.407,-0.309 0.372,1.088 0.113,1.529c-0.492,0.835 -1.466,1.27 -2.159,1.947c-1.511,1.476 -3.233,2.783 -4.451,4.508l-2.794,3.956l2.294,0.476c7.837,1.629 15.924,1.694 23.914,2.175c2.157,0.13 4.402,0.646 6.482,0.061c6.589,-1.854 11.515,-7.461 17.658,-10.48c11.981,-5.887 12.492,-4.3 24.739,-9.981l5.5,-2.551l-5.5,-0.872c-9.005,-1.428 -29.589,0.077 -38,1.569c-23.287,4.133 -42.243,9.976 -58.56,27.635c-3.942,4.266 -11.168,11.982 -14.315,18.607c-0.398,0.838 3.651,2.941 1.646,4.211c-0.354,0.224 -0.462,-0.724 -0.807,-0.962c-1.266,-0.871 -2.68,-1.509 -3.979,-2.331c-3.863,-2.444 -5.415,-1.947 -10.216,-4.266c-2.078,-1.003 -3.703,-2.869 -5.861,-3.687c-0.678,-0.256 0.558,1.391 1.092,1.881c2.323,2.135 4.742,4.199 7.39,5.912l4.891,3.163l-5.391,0.464c-5.222,0.449 -5.14,0.481 2.61,1l8,0.536l0.309,3.195c0.339,3.489 -0.647,3.273 -4,4.292c-8.149,2.477 -21.431,6.416 -29.809,6.18l-7.5,-0.21l2.706,2.436c3.311,2.98 2.509,3.881 -5.213,5.848l-54.583,11.282l-0.794,71.236c32.149,-0.947 504.252,0.208 507.742,0c0.689,-0.041 0.675,-86.551 0,-86.456c-33.099,4.645 -44.203,7.634 -76.767,14.41c-0.794,0.166 0.55,-2.003 -0.141,-2.428c-0.85,-0.522 -1.962,0.368 -2.946,0.531c-0.737,0.122 -2.519,1.006 -2.216,0.324c0.945,-2.133 2.98,-3.589 4.462,-5.391c4.384,-5.331 8.721,-10.703 13.135,-16.01c3.003,-3.609 4.529,-11.742 9.116,-10.739c4.934,1.079 4.434,9.137 5.795,14c0.209,0.747 -1.471,-0.525 -2.136,-0.924c-0.78,-0.467 -1.288,-1.421 -2.167,-1.657c-0.739,-0.199 -0.149,1.902 -0.883,2.119c-3.596,1.066 -2.201,2.52 0.333,5.335l5.737,6.373l8.91,-3.24c4.551,-1.655 12.243,-0.89 13.41,-5.591c1.418,-5.71 1.613,-5.45 4.892,-10.101c2.584,-3.664 6.315,-6.72 7.821,-10.944c1.421,-3.987 -10.538,11.658 -10.297,7.432c0.318,-5.581 13.447,-22.364 10.484,-26.24c-1.257,-1.644 6.209,-11.369 2.361,-7.934c-2.209,1.971 -10.229,15.266 -12.967,19.091c-0.944,1.318 -1.485,-1.505 -2.564,-0.28c-1.443,1.638 -2.386,3.66 -3.457,5.561l-4.225,7.5l-0.024,-3.807c-0.038,-5.991 0.287,-12.8 -3.171,-17.693c-0.119,-0.168 -1.536,23.551 -1.711,23.628c-3.259,1.433 -1.076,-7.04 -1.55,-10.569c-0.498,-3.71 -0.479,-7.509 -1.364,-11.146c-0.307,-1.263 -9.125,-25.333 -9.228,-25.595c-0.182,-0.464 -42.554,-13.754 -63.739,-20.398m-2.668,23.609c4.124,14.864 11.3,47.413 10.406,61.767c-0.292,4.689 -3.618,-8.679 -5.722,-12.88c-3.819,-7.626 -7.791,-15.183 -12.037,-22.58c-1.71,-2.979 -3.645,-5.844 -5.811,-8.509c-0.771,-0.949 -3.184,-3.421 -2.913,-2.229c3.648,16.028 12.811,30.51 16.077,46.62c0.259,1.277 -2.509,-0.761 -3.805,-0.891c-3.615,-0.362 -6.689,0.243 -9.889,2.227c-12.719,7.886 -11.073,9.857 -23.647,17.825l-5.248,3.327l-12.502,-0.353c-4.166,-0.117 -8.334,0.314 -12.502,0.248c-1.64,-0.025 -4.868,-0.505 -6.221,-1.795c-1.346,-1.285 0.406,-1.873 -0.861,-3.404c-0.637,-0.771 -2.707,-0.665 -3.28,-1.525c-0.086,-0.129 -0.546,-4.306 -0.676,-4.406c-1.53,-1.184 -7.212,-0.126 -8.642,-1.4c-1.731,-1.542 3.256,-3.366 5.22,-4.599c5.536,-3.474 5.877,-2.262 11.92,-4.908c9.906,-4.337 18.978,-12.529 24.535,-21.754c0.752,-1.249 -2.422,2.874 -3.745,2.261c-0.618,-0.286 1.068,-1.355 0.691,-1.922c-0.505,-0.758 -2.753,1.819 -2.569,0.928c0.208,-1.007 4.83,-6.495 3.431,-6.577c-2.662,-0.154 -4.401,3.043 -6.787,4.232c-1.883,0.939 -3.88,1.719 -5.946,2.118c-0.483,0.094 0.566,-0.815 0.93,-1.147c1.618,-1.474 3.307,-2.869 5,-4.256c3.203,-2.623 7.34,-4.243 9.903,-7.494c0.582,-0.738 -2.815,0.659 -2.804,-0.28c0.008,-0.693 3.068,-4.675 2.653,-5.495c-0.582,-1.148 -2.251,-1.324 -3.502,-1.625c-9.846,-2.365 -15.956,3.37 -24.259,8.09c-3.172,1.803 -6.135,4.042 -9.523,5.395c-1.82,0.726 -3.894,1.016 -5.834,0.736c-1.323,-0.19 2.545,-1.658 2.672,-2.988c0.364,-3.804 -5.975,-4.801 -9.251,-6.769c-6.24,-3.747 -12.424,-7.591 -18.555,-11.514c-2.972,-1.901 -5.824,-3.985 -8.75,-5.957c-0.692,-0.466 -5.949,-3.854 -6.266,-4.626m192.842,-7.102c-3.753,7.004 -15.586,24.636 -20.225,31.325c-1.632,2.353 -2.236,-3.985 -3.835,-1.668c-2.486,3.606 -4.66,7.424 -6.747,11.275l-6.638,12.25l0.449,-6.072c0.379,-5.135 -0.84,-14.017 -1.697,-18.815c-0.479,-2.682 -1.121,-5.335 -1.839,-7.964c-0.222,-0.814 -1.447,-2.795 -1.599,-1.965c-2.475,13.487 1.291,27.955 -2.803,41.041c-1.927,6.159 -1.191,-12.852 -1.925,-19.263c-0.795,-6.939 -1.054,-13.988 -2.662,-20.785c-2.403,-10.164 -8.537,-30.113 -12.544,-39.757m64.113,40.08c1.335,4.945 2.531,9.929 3.565,14.945c0.729,3.537 1.246,7.116 1.721,10.696c0.136,1.028 0.183,2.074 0.108,3.107c-0.032,0.445 0.001,1.136 -0.424,1.269c-0.409,0.127 -0.753,-0.468 -0.982,-0.83c-0.634,-0.999 -1.017,-2.137 -1.564,-3.187c-2.298,-4.411 -4.549,-8.848 -6.968,-13.195c-0.833,-1.497 -3.363,-4.4 -3.549,-6.58c-0.384,-4.485 5.098,-8.191 4.307,-12.681c-0.051,-0.29 -0.544,-0.507 -0.802,-0.366c-0.771,0.421 -1.264,1.22 -1.89,1.837c-0.425,0.419 -1.333,1.863 -1.262,1.27c0.154,-1.278 0.98,-2.383 1.535,-3.546c0.598,-1.253 0.853,-3.272 2.219,-3.527c1.309,-0.244 1.528,2.227 1.938,3.494c0.778,2.403 1.39,4.856 2.048,7.294m-118.071,12.59c-1.035,0.736 -2.078,1.463 -3.158,2.131c-0.135,0.083 -1.829,1.181 -2.609,1.204c-0.326,0.01 -0.456,-0.165 -0.446,-0.477c0.02,-0.668 0.407,-1.164 0.951,-1.512c1.073,-0.686 2.369,-0.759 3.477,-1.465c1.254,-0.799 2.214,-1.872 3.367,-2.789c0.313,-0.25 0.641,-0.483 0.987,-0.684c0.071,-0.042 2.01,-0.84 1.315,0.121c-0.62,0.859 -1.25,1.415 -2.09,2.104c-0.582,0.477 -1.181,0.932 -1.794,1.367m110.642,2.66l2.129,6.25l-8.787,8.151c-4.495,4.17 -5.29,-1.002 -2.706,-6.511c2.232,-4.759 2.959,-10.753 6.978,-14.14c1.705,-1.436 1.667,4.14 2.386,6.25m-118.51,-3.355c0.057,0.093 0.105,0.192 0.137,0.297c0.333,1.101 -1.463,1.304 -2.137,1.266c-1.343,-0.075 -2.247,-0.723 -3.071,-1.744c-0.184,-0.228 -0.219,-0.484 0.095,-0.592c0.434,-0.149 1.667,-0.123 1.768,-0.122c0.686,0.007 1.375,0.078 2.037,0.263c0.3,0.084 0.965,0.299 1.171,0.632m-34.799,3.599c0.339,0.177 0.672,0.367 0.989,0.581c0.206,0.139 0.395,0.304 0.576,0.476c0.122,0.116 0.218,0.34 -0.005,0.411c-0.286,0.091 -0.835,-0.036 -1.013,-0.081c-0.613,-0.157 -1.32,-0.471 -1.865,-0.779c-0.598,-0.338 -1.141,-0.746 -1.656,-1.197c-0.161,-0.14 -0.318,-0.286 -0.453,-0.45c-0.081,-0.099 -0.28,-0.362 0.023,-0.367c0.153,-0.003 0.304,0.041 0.45,0.084c0.247,0.072 0.491,0.157 0.726,0.262c0.751,0.336 1.499,0.68 2.228,1.06m35.364,0.506c0,0.544 -0.571,0.761 -1.007,0.84c-1.472,0.266 -3.163,-0.254 -4.493,-0.84c-0.338,-0.149 -0.906,-0.214 -0.944,-0.582c-0.033,-0.32 0.605,-0.247 0.926,-0.275c1.429,-0.125 3.008,-0.177 4.417,0.172c0.152,0.038 1.101,0.252 1.101,0.685m-47.441,3.468c0.234,0.178 0.461,0.367 0.67,0.573c0.008,0.008 0.911,0.991 0.212,0.927c-0.19,-0.017 -0.382,-0.046 -0.564,-0.103c-0.873,-0.271 -1.712,-0.785 -2.436,-1.333c-0.234,-0.177 -0.461,-0.366 -0.67,-0.573c-0.008,-0.007 -0.911,-0.99 -0.212,-0.927c0.19,0.018 0.382,0.047 0.564,0.104c0.874,0.271 1.712,0.785 2.436,1.332m36.411,0.588c-0.571,1.067 -1.433,2.099 -2.583,2.563c-0.656,0.264 -1.406,0.306 -2.047,-0.03c-0.191,-0.1 -0.838,-0.46 -0.697,-0.852c0.29,-0.808 1.066,-1.371 1.744,-1.834c0.331,-0.227 0.675,-0.437 1.027,-0.631c1.038,-0.571 2.187,-1.07 3.371,-1.233c0.157,-0.021 -0.21,0.886 -0.815,2.017m-21.143,3.422c-1.082,0.742 -2.3,1.374 -3.582,1.69c-0.289,0.071 -0.586,0.125 -0.884,0.135c-0.604,0.021 -1.136,-0.247 -0.724,-0.915c0.325,-0.526 0.918,-1.027 1.408,-1.385c1.501,-1.092 3.231,-1.824 5.017,-2.295c0.244,-0.064 0.5,-0.09 0.752,-0.086c1.573,0.024 -0.49,1.709 -0.764,1.937c-0.393,0.326 -0.802,0.631 -1.223,0.919m-38.962,1.272c-1.951,2.173 -3.698,4.521 -5.585,6.75c-0.509,0.602 -1.019,1.208 -1.6,1.74c-0.187,0.172 -0.736,0.33 -0.648,-0.209c0.131,-0.802 1.133,-2.135 1.509,-2.588c2.645,-3.185 4.347,-4.945 7.328,-7.75c0.568,-0.534 1.16,-1.043 1.777,-1.519c0.036,-0.028 0.147,0.006 0.129,0.048c-0.594,1.404 -1.891,2.394 -2.91,3.528m56.135,0.509c0.246,0.096 0.496,0.188 0.731,0.308c0.09,0.046 0.245,0.087 0.238,0.188c-0.007,0.093 -0.168,0.09 -0.26,0.105c-0.778,0.127 -1.518,0.046 -2.25,-0.25c-0.837,-0.338 -1.335,-0.915 -2.055,-1.413c-0.093,-0.064 -0.225,-0.179 -0.318,-0.115c-0.095,0.065 -0.04,0.231 -0.017,0.344c0.136,0.68 0.548,1.339 0.403,2.06c-0.054,0.265 -0.196,0.51 -0.503,0.514c-1.435,0.022 -1.267,-1.381 -1.639,-2.582c-0.039,-0.127 -0.353,-0.871 -0.221,-1.143c0.038,-0.077 0.157,-0.109 0.242,-0.095c0.442,0.073 0.831,0.594 1.322,0.354c0.491,-0.239 0.254,-0.846 0.442,-1.235c0.037,-0.077 0.141,-0.144 0.224,-0.126c0.321,0.072 0.839,0.796 0.943,0.915c0.752,0.861 1.627,1.747 2.718,2.171m5,0.241c-3.329,3.434 -5.528,2.546 -9.42,4.777c-3.644,2.089 -6.035,5.886 -9.438,8.347c-4.724,3.418 -11.569,6.867 -17.062,8.75c-2.623,0.899 -5.356,1.456 -8.08,1.972c-1.36,0.258 -2.816,0.755 -4.138,0.344c-0.879,-0.272 1.758,-0.542 2.638,-0.81c4.259,-1.295 8.656,-2.199 12.778,-3.88c5.082,-2.072 13.06,-7.653 17.278,-11c0.985,-0.781 2.971,-1.509 2.618,-2.716c-0.307,-1.048 -2.155,0.473 -3.133,0.957c-3.013,1.492 -5.821,3.371 -8.791,4.946c-1.047,0.556 -4.126,2.24 -3.25,1.442c1.852,-1.686 4.187,-2.751 6.25,-4.173c2.771,-1.909 5.544,-3.817 8.25,-5.819c0.466,-0.344 0.865,-1.641 1.25,-1.208c0.407,0.459 -0.734,1.016 -0.895,1.608c-0.298,1.092 2.324,0.317 3.395,-0.048c2.512,-0.855 5.172,-1.415 7.481,-2.722c0.835,-0.472 1.532,-1.154 2.269,-1.767c0.976,-0.81 2.87,-3.768 2.87,-2.5c0,1.509 -1.82,2.417 -2.87,3.5m-15.765,2.445c-2.325,1.941 -7.918,4.415 -10.398,5.421c-2.894,1.175 -5.826,2.262 -8.786,3.261c-0.203,0.069 -0.722,0.122 -0.64,-0.077c0.189,-0.459 0.675,-0.741 1.089,-1.015c0.848,-0.559 1.738,-1.064 2.67,-1.467c1.713,-0.738 5.288,-1.641 6.994,-2.5c2.765,-1.393 4.722,-4.212 7.333,-5.895c0.944,-0.608 1.953,-1.116 2.979,-1.572c0.476,-0.211 1.733,-0.368 1.497,0.589c-0.297,1.206 -2.342,2.925 -2.738,3.255m-12.478,-0.273c-0.29,0.29 -0.608,0.552 -0.936,0.797c-0.942,0.704 -2.138,0.147 -3.028,-0.328c-0.407,-0.217 -1.353,-0.372 -1.141,-0.781c0.087,-0.169 0.379,0.033 0.566,0.065c0.653,0.114 1.333,0.217 1.944,-0.136c0.28,-0.161 0.473,-0.515 0.725,-0.704c0.532,-0.397 1.233,-0.571 1.886,-0.585c0.361,-0.007 0.787,-0.094 1.077,0.121c0.235,0.174 -0.187,0.595 -0.221,0.637c-0.268,0.325 -0.574,0.617 -0.872,0.914m37.128,-0.764c0.796,0.504 0.75,1.806 0.68,2.551c-0.257,2.744 -1.61,5.756 -3.355,7.872c-0.479,0.581 -1.859,2.111 -2.927,1.602c-0.375,-0.179 0.298,-0.78 0.517,-1.133c0.497,-0.798 0.719,-1.42 0.847,-2.404c0.477,-3.646 0.164,-3.648 0.532,-7.317c0.085,-0.843 0.598,-2.466 1.816,-2.052c0.658,0.224 1.303,0.509 1.89,0.881m-216.523,1.592c-0.215,0.56 -0.661,1.283 -1.278,1.47c-0.353,0.106 -0.643,-0.11 -0.822,-0.41c-0.281,-0.473 -0.359,-1.129 -0.146,-1.642c0.225,-0.544 0.763,-0.914 1.353,-0.918c0.549,-0.003 1.036,0.283 1.027,0.88c-0.003,0.211 -0.059,0.425 -0.134,0.62m-9.962,5.735c1.202,0.802 -1.389,0.861 -1.736,1.398c-0.564,0.874 -0.477,2.7 -0.182,3.633c0.285,0.905 1.916,1.486 2.371,1.853c1.396,1.124 3.927,3.676 5.013,5.141c0.327,0.442 0.876,0.955 0.724,1.484c-0.102,0.356 -0.766,-0.032 -1.092,-0.207c-0.655,-0.351 -1.182,-0.902 -1.785,-1.337c-1.563,-1.126 -2.089,-1.611 -4.176,-1.949c-3.505,-0.566 -7.042,-0.907 -10.57,-1.302c-1.649,-0.184 -11.561,-0.647 -15.073,-2.133c-0.211,-0.089 0.073,-0.504 0.26,-0.636c0.53,-0.371 1.156,-0.594 1.773,-0.789c2.606,-0.822 5.238,-1.569 7.883,-2.259c2.951,-0.769 5.912,-1.51 8.901,-2.115c3.563,-0.72 5.155,-0.096 4.721,-3.745l-0.45,-3.772l1.159,3c0.637,1.65 1.654,3.331 2.259,3.735m182.1,-1.672c-3.947,3.292 -7.556,7.081 -11.956,9.737c-1.361,0.821 -3.567,1.781 -5.175,0.788c-0.846,-0.522 -1.626,-1.152 -2.369,-1.812c-0.344,-0.305 -1.293,-0.877 -0.874,-1.066c0.546,-0.246 1.092,0.49 1.645,0.719c1.291,0.537 1.854,1.023 3.254,0.423c1.755,-0.752 4.842,-3.538 5.975,-4.379c2.251,-1.67 4.511,-3.335 6.851,-4.879c0.875,-0.578 1.816,-1.057 2.778,-1.476c0.596,-0.259 1.231,-0.436 1.871,-0.548c0.246,-0.043 -0.004,0.547 -0.175,0.729c-0.578,0.618 -1.175,1.222 -1.825,1.764m33.095,6.254c-1.956,3.784 -7.152,4.882 -10.382,7.119c-5.653,3.916 -10.708,8.648 -16.327,12.612c-1.24,0.875 -5.209,3.279 -7.285,3.44c-0.301,0.024 0.272,-0.562 0.511,-0.745c0.872,-0.669 1.869,-1.157 2.777,-1.776c1.846,-1.258 3.71,-2.494 5.482,-3.856c6.473,-4.973 12.325,-10.381 19.309,-14.661c2.87,-1.758 3.105,-1.425 5.331,-3.97c0.368,-0.42 0.565,-0.978 0.958,-1.374c0.174,-0.176 0.715,-0.531 0.686,-0.285c-0.141,1.21 -0.501,2.415 -1.06,3.496m-29.095,1.634c-1.042,0.448 -2.132,0.78 -3.223,1.092c-1.192,0.342 -2.402,0.628 -3.619,0.869c-0.918,0.182 -1.848,0.307 -2.779,0.4c-0.23,0.023 -0.463,-0.007 -0.689,-0.052c-0.14,-0.027 -0.13,-0.207 -0.016,-0.261c0.625,-0.294 1.262,-0.568 1.917,-0.786c2.023,-0.673 5.668,-1.632 7.722,-2.072c0.888,-0.19 1.786,-0.335 2.687,-0.449c0.132,-0.016 -0.058,0.295 -0.175,0.358c-0.596,0.324 -1.202,0.634 -1.825,0.901m14.5,2.587c-8.216,7.006 -22.498,14.043 -28.225,13.908c-0.305,-0.007 0.311,-0.586 0.596,-0.694c3.484,-1.321 6.653,-2.114 10.106,-3.605c3.785,-1.636 7.563,-3.78 10.948,-6.129c2.31,-1.603 6.263,-5.163 9.075,-6.455c0.281,-0.129 -0.123,0.634 -0.322,0.871c-0.649,0.773 -1.41,1.449 -2.178,2.104m-36,1.963c0,1.063 -1.212,1.754 -1.929,2.538c-1.46,1.6 -3.018,3.107 -4.587,4.6c-3.686,3.506 -7.993,8.147 -12.876,10.097c-2.061,0.823 -4.51,1.306 -5.97,-0.736c-0.925,-1.293 1.306,-1.384 1.754,-1.5c4.467,-1.151 7.984,-3.696 11.541,-6.601c4.178,-3.412 3.89,-3.723 8.393,-6.694c0.391,-0.257 0.852,-0.425 1.182,-0.756c0.658,-0.658 0.111,-0.95 0.786,-1.646c0.615,-0.634 1.706,-0.178 1.706,0.698m45,4.011c-1.104,0.607 -2.179,1.266 -3.231,1.958c-0.919,0.605 -1.816,1.244 -2.676,1.93c-0.565,0.451 -1.092,0.952 -1.589,1.477c-0.138,0.146 -0.163,0.666 0.027,0.601c0.835,-0.284 1.638,-0.661 2.418,-1.072c2.674,-1.409 5.737,-3.336 8.259,-5.004c0.449,-0.296 0.887,-0.61 1.302,-0.952c0.185,-0.153 0.375,-0.316 0.49,-0.527c0.086,-0.159 -0.179,-0.363 -0.292,-0.361c-1.591,0.023 -3.868,1.489 -4.708,1.95m-193.876,2.524c2.531,0.888 5.023,1.889 7.488,2.947c0.638,0.274 1.252,0.621 1.801,1.044c0.904,0.697 0.603,1.368 -0.435,1.254c-0.889,-0.097 -1.778,-0.238 -2.641,-0.473c-2.544,-0.691 -5.26,-1.844 -7.587,-3.041c-1.292,-0.664 -2.542,-1.409 -3.78,-2.169c-0.306,-0.188 -0.597,-0.41 -0.843,-0.671c-0.095,-0.101 -0.239,-0.277 -0.154,-0.385c0.361,-0.454 1.177,-0.032 1.736,0.125c1.483,0.418 2.961,0.859 4.415,1.369m273.806,2.773c0.061,0.713 -0.89,0.281 -1.129,0.022c-0.415,-0.447 -0.597,-1.159 -0.679,-1.74c-0.081,-0.571 -0.084,-0.976 0.039,-1.52c0.049,-0.217 0.28,-0.36 0.469,-0.194c0.114,0.1 0.224,0.209 0.311,0.332c0.124,0.175 0.228,0.363 0.32,0.556c0.376,0.792 0.593,1.673 0.669,2.544m-255.568,7.731c1.313,0.617 2.594,1.31 3.816,2.09c0.877,0.561 1.68,1.233 2.461,1.92c0.251,0.221 0.458,0.496 0.618,0.789c1.009,1.84 -2.778,0.635 -3.108,1.596c-0.481,1.399 1.328,4.043 2.13,4.928c0.505,0.557 1.288,0.561 1.946,0.682c2.478,0.457 2.68,0.406 5.191,1.399c0.844,0.334 2.32,0.406 2.386,1.311c0.008,0.116 -0.194,0.183 -0.309,0.164c-1.513,-0.244 -3.001,-0.622 -4.5,-0.94c-2.295,-0.486 -4.585,-0.997 -6.882,-1.472c-1.75,-0.361 -2.353,-0.272 -3.802,-0.95c-0.159,-0.075 -0.315,-0.334 -0.005,-0.395c0.875,-0.174 2.577,0.096 3.3,-0.647c1.054,-1.086 -1.135,-3.726 -1.387,-4.06c-2.094,-2.776 -4.613,-5.215 -6.702,-7.996c-0.428,-0.57 -1.361,-2.056 -1.432,-2.959c-0.036,-0.451 -0.266,-1.454 0.175,-1.348c0.567,0.136 0.478,1.065 0.764,1.573c0.203,0.362 0.424,0.719 0.699,1.029c1.172,1.323 3.234,2.625 4.641,3.286m-14.814,-4.117c-0.51,0.825 -3.036,1.405 -3.559,1.58c-0.706,0.237 -1.452,0.387 -2.111,0.734c-0.9,0.474 -0.428,0.933 -1.298,1.493c-0.724,0.467 -1.715,0.332 -2.478,0.731c-1.042,0.545 -2.025,1.766 -3.214,2.076c-1.069,0.28 -2.25,-0.218 -3.318,-0.186c-0.663,0.019 -0.588,1.036 -1.011,1.336c-0.3,0.213 -0.692,0.284 -1.059,0.313c-0.201,0.016 -1.423,0.037 -1.425,-0.608c-0.003,-1.134 1.843,-2.571 2.745,-2.912c0.867,-0.328 1.894,0.067 2.773,-0.228c2.916,-0.976 5.511,-2.739 8.438,-3.758c1.24,-0.431 2.403,-1.091 3.673,-1.426c0.26,-0.068 2.492,-0.194 1.844,0.855m118.997,7.004c-0.571,0.925 -3.95,2.793 -4.44,3.02c-3.358,1.558 -7.742,2.878 -11.239,3.811c-1.774,0.474 -3.568,0.869 -5.368,1.231c-0.633,0.127 -1.695,0.508 -1.934,-0.092c-0.078,-0.196 0.158,-0.464 0.031,-0.633c-0.555,-0.741 -1.059,0.306 -1.64,-0.451c-0.129,-0.168 0.248,-0.38 0.447,-0.451c2.534,-0.895 5.16,-1.108 7.598,-2.211c2.205,-0.997 4.48,-1.183 6.715,-2.214c0.802,-0.37 1.603,-0.767 2.319,-1.285c0.26,-0.189 1.118,-1.86 1.61,-1.921c1.231,-0.151 2.491,0.204 3.722,0.047c0.879,-0.111 0.372,-1.538 0.884,-1.632c1.106,-0.202 1.73,2.077 1.295,2.781m39.955,-1.927c-1.1,0.473 -4.25,0.82 -7,0.773l-5,-0.087l5,-0.686c2.75,-0.377 5.9,-0.725 7,-0.773l2,-0.086l-2,0.859m9.57,1.869c-0.393,0.735 0.078,1.786 -0.4,2.468c-0.284,0.405 -0.978,0.15 -1.47,0.201c-1.779,0.185 -1.741,0.13 -3.258,1.032c-3.262,1.94 -7.256,1.776 -10.942,2.376c-4.902,0.799 -9.861,1.364 -14.675,2.59c-3.274,0.834 -6.136,2.898 -9.38,3.842c-1.44,0.419 -3.645,1.859 -4.459,0.599c-0.88,-1.362 2.635,-7.978 3.698,-9.02c2.618,-2.568 6.569,-2.667 9.91,-2.759c7.28,-0.199 14.561,0.63 21.842,0.499c2.232,-0.04 3.142,-0.634 5.064,-1.517c1.299,-0.596 5.91,-3.749 4.07,-0.311m17.659,2.736c-0.218,0.218 -0.611,0.201 -0.878,0.167c-0.838,-0.106 -1.744,-0.54 -2.367,-1.109c-0.186,-0.17 -0.641,-0.637 -0.441,-0.968c0.216,-0.358 1.028,-0.081 1.233,-0.009c0.767,0.269 1.56,0.716 2.153,1.279c0.046,0.044 0.492,0.447 0.3,0.64m-158.238,2.395c0.621,0 1.25,0.079 1.846,0.255c0.936,0.277 1.167,0.95 2.165,1.088c1.399,0.193 2.351,-0.363 3.755,-0.074c1.027,0.211 1.791,1.167 2.811,1.41c1.954,0.466 4.038,0.174 5.993,0.635c1.446,0.341 -0.56,2.306 -1.121,2.434c-5.368,1.217 -12.225,-0.893 -16.835,-3.641c-0.852,-0.507 -2.338,-1.477 -2.864,-2.579c-0.198,-0.414 -0.481,-2.215 -0.02,-2.395c0.437,-0.171 0.532,0.78 0.859,1.117c1.037,1.07 1.798,1.75 3.411,1.75m150.167,0.317c0.482,-0.176 1.059,-0.061 1.461,0.248c0.117,0.09 0.792,0.762 0.382,0.963c-0.659,0.324 -1.393,-0.63 -2.1,-0.178c-0.551,0.352 -0.312,1.181 -0.598,1.69c-0.693,1.231 -2.108,1.379 -3.274,1.876c-0.425,0.182 -1.027,0.513 -1.332,0.899c-0.155,0.197 -0.306,1.606 -0.867,0.848c-0.33,-0.445 -0.488,-1.074 -0.554,-1.601c-0.253,-2.007 -0.294,-3.01 -0.076,-4.999c0.019,-0.168 0.135,-0.978 0.514,-1.063c0.254,-0.057 0.525,0.459 0.555,0.57c0.327,1.215 0.134,2.538 0.938,3.596c0.141,0.186 0.608,0.673 0.944,0.576c0.411,-0.119 0.242,-1.236 0.239,-1.262c-0.133,-1.301 -0.816,-2.77 -0.542,-4.078c0.03,-0.146 0.323,-0.041 0.444,0.046c0.33,0.236 0.629,0.513 0.951,0.76c0.706,0.542 1.929,1.468 2.915,1.109m5.834,-0.137c0.639,0.556 2.111,1.767 2.394,2.838c0.138,0.524 -0.204,0.818 -0.683,0.92c-0.582,0.124 -1.272,0.101 -1.762,-0.282c-0.493,-0.384 -0.382,-0.893 -0.572,-1.426c-0.094,-0.265 -0.219,-0.519 -0.355,-0.765c-0.507,-0.919 -1.227,-1.628 -1.858,-2.454c-0.136,-0.179 -0.268,-0.364 -0.368,-0.565c-0.076,-0.152 -0.18,-0.432 0.131,-0.381c0.316,0.051 0.943,0.449 1.131,0.588c0.662,0.49 1.32,0.987 1.942,1.527m6.965,0.889c-0.568,0.92 0.452,0.788 0.939,1.094c0.384,0.242 0.662,0.742 0.828,1.135c0.635,1.501 0.694,3.401 0.177,4.952c-0.133,0.399 -0.209,1.131 -0.627,1.093c-0.507,-0.047 -0.558,-0.866 -0.717,-1.35c-0.41,-1.25 -1.402,-5.163 -1.614,-6.107c-0.18,-0.799 -0.546,-1.652 -0.314,-2.438c0.133,-0.45 0.673,-0.053 0.887,0.062c0.533,0.287 0.762,1.041 0.441,1.559m-97.457,0.487c0,1.8 -4.076,3.268 -4.681,3.502c-3.629,1.408 -6.7,1.892 -10.569,2.415c-1.45,0.197 -6.933,1.671 -6.75,-1.452c0.009,-0.148 0.018,-1.475 0.629,-1.59c0.555,-0.104 1.094,0.362 1.659,0.352c1.426,-0.025 2.773,-0.682 4.181,-0.915c1.335,-0.221 2.687,-0.336 4.031,-0.496c0.736,-0.087 6.447,-0.228 8.65,-1.366c0.995,-0.513 1.461,-1.481 2.537,-1.916c0.147,-0.059 0.219,0.248 0.252,0.402c0.074,0.348 0.061,0.709 0.061,1.064m19.065,4.773c-0.241,0.634 -0.586,1.333 -0.986,1.887c-0.175,0.241 -0.56,0.749 -0.947,0.784c-0.28,0.026 -0.686,-0.304 -0.823,-0.489c-0.548,-0.738 -1.589,-2.382 -0.833,-3.321c0.064,-0.08 0.298,-0.193 0.37,-0.015c0.069,0.17 0.07,1.379 0.46,1.356c0.592,-0.036 1.275,-0.877 1.595,-1.301c0.212,-0.282 0.465,-0.716 0.501,-1.087c0.031,-0.313 -0.15,-0.483 -0.18,-0.782c-0.035,-0.341 0.057,-0.753 0.176,-1.066c0.108,-0.282 0.547,-1.338 1.034,-1.119c0.267,0.12 0.352,0.788 0.353,0.942c0.01,1.474 -0.198,2.838 -0.72,4.211m-52.326,-1.738c3.122,-0.034 5.173,0.015 8.069,0.774c1.065,0.279 2.048,1.574 0.754,2.407c-0.995,0.641 -2.985,0.702 -3.945,0.686c-5.72,-0.096 -8.469,-0.374 -14.095,-1.422c-0.843,-0.157 -2.961,-0.65 -3.757,-1.463c-0.018,-0.018 -1.075,-1.424 -0.553,-1.861c0.519,-0.435 2.342,0.171 2.538,0.199c1.45,0.208 2.901,0.428 4.362,0.518c2.206,0.137 4.418,0.187 6.627,0.162m57.261,-1.156c0,1.672 -1.233,3.147 -1.427,4.807c-0.35,2.992 0.82,5.977 0.961,8.986c0.083,1.757 1.242,6.267 -0.209,5.272c-1.944,-1.333 -1.195,-4.567 -1.997,-6.784c-0.121,-0.335 -0.384,-0.833 -0.736,-0.776c-0.372,0.061 -0.391,0.646 -0.553,0.986c-0.304,0.64 -0.453,1.359 -0.844,1.95c-0.068,0.103 -1.346,1.687 -1.879,0.672c-0.049,-0.092 -0.273,-3.306 -0.278,-3.32c-0.117,-0.347 -0.699,-1.29 -1.314,-0.967c-0.835,0.438 -0.293,1.867 -0.327,2.809c-0.157,4.41 -1.834,7.323 -2.944,11.536c-0.399,1.514 -0.449,3.098 -0.707,4.642c-0.109,0.652 -0.17,1.321 -0.395,1.942c-0.114,0.315 -0.272,0.876 -0.601,0.808c-0.394,-0.081 -0.509,-0.658 -0.588,-1.053c-0.167,-0.836 -0.219,-1.706 -0.133,-2.554c0.499,-4.926 2.388,-9.445 2.546,-14.396c0.133,-4.176 -1.218,-5.826 -2.513,-9.509c-0.176,-0.501 2.585,1.152 2.668,1.091c0.466,-0.342 0.209,-1.136 0.309,-1.705c0.087,-0.495 -0.19,-1.725 0.252,-1.486c0.74,0.4 0.724,1.519 1.149,2.244c1.489,2.538 1.951,4.824 4.936,3.756c1.762,-0.631 0.896,-1.55 1.099,-3.077c0.185,-1.402 0.951,-3.948 1.628,-5.212c0.228,-0.425 0.489,-0.938 0.944,-1.097c0.33,-0.115 0.953,0.086 0.953,0.435m64.985,2.815c-0.003,0.352 -0.021,0.705 -0.049,1.056c-0.008,0.102 -0.029,0.204 -0.062,0.301c-0.032,0.097 -0.091,0.217 -0.221,0.169c-0.317,-0.119 -0.465,-0.495 -0.653,-0.776c-0.413,-0.617 -0.94,-1.448 -0.94,-2.227c0,-0.219 0.059,-0.431 0.235,-0.577c0.263,-0.217 0.844,-0.323 1.092,-0.018c0.476,0.583 0.603,1.337 0.598,2.072m-134.485,3.938c1.058,1.146 -1.077,0.428 -1.5,0.335c-3.001,-0.655 -6.058,-1.084 -9.043,-1.806c-0.328,-0.079 -0.647,-0.197 -0.952,-0.34c-0.208,-0.097 -0.623,-0.335 -0.468,-0.503c0.319,-0.347 0.938,-0.187 1.408,-0.143c3.208,0.298 4.941,0.646 8.11,1.447c0.31,0.078 2.044,0.576 2.445,1.01m12.417,1.452c0.131,0.113 0.059,0.217 -0.089,0.252c-0.281,0.066 -0.568,0.124 -0.856,0.129c-2.607,0.05 -4.075,-0.084 -6.711,-0.426c-0.473,-0.062 -0.942,-0.154 -1.404,-0.273c-0.294,-0.076 -0.595,-0.157 -0.857,-0.312c-0.142,-0.084 -0.38,-0.23 -0.314,-0.382c0.078,-0.18 0.364,-0.186 0.56,-0.184c2.508,0.022 5.298,0.356 7.761,0.762c0.644,0.106 1.416,0.007 1.91,0.434m19.204,1.385c0.528,0.13 0.302,0.494 -0.213,0.499c-4.458,0.04 -9.53,-0.158 -13.963,-0.532c-1.158,-0.097 -2.312,-0.256 -3.456,-0.465c-0.097,-0.018 -0.3,-0.157 -0.214,-0.206c0.255,-0.146 0.573,-0.152 0.867,-0.167c3.502,-0.186 6.783,-0.07 10.275,-0.451c0.888,-0.097 1.254,-0.24 1.598,-0.953c0.102,-0.21 -0.03,-0.698 0.203,-0.671c0.338,0.039 0.411,0.548 0.668,0.771c0.502,0.436 1.005,0.892 1.597,1.196c0.834,0.428 1.727,0.757 2.638,0.979m45.684,14.038l2.695,0.064l-2.476,0.988c-3.395,1.354 -4.742,-0.721 -4.065,-6.264l0.532,-4.351l0.309,4.75c0.287,4.397 0.51,4.755 3.005,4.813m2.463,-2.978c-0.08,0.305 -0.183,0.604 -0.296,0.898c-0.037,0.096 -0.09,0.186 -0.15,0.27c-0.328,0.452 -0.719,-0.061 -0.895,-0.371c-0.336,-0.592 -0.556,-1.29 -0.314,-1.963c0.146,-0.406 0.464,-0.728 0.881,-0.852c0.249,-0.074 0.583,-0.151 0.757,0.098c0.354,0.506 0.153,1.398 0.017,1.92m10.162,1.801c0.303,0.491 -0.367,0.961 -0.712,1.135c-0.232,0.117 -0.478,0.208 -0.729,0.272c-0.544,0.139 -1.504,0.316 -1.859,-0.316c-0.387,-0.687 0.067,-1.491 0.725,-1.786c0.874,-0.393 2.057,-0.142 2.575,0.695m-19.125,2.171c0.085,0.325 0.154,0.655 0.212,0.986c0.017,0.095 0.021,0.193 0.01,0.289c-0.029,0.252 -0.243,0.223 -0.414,0.112c-0.239,-0.157 -0.471,-0.326 -0.692,-0.509c-0.592,-0.488 -1.227,-1.176 -1.371,-1.963c-0.043,-0.231 -0.034,-0.504 0.125,-0.699c0.245,-0.302 0.8,-0.388 1.094,-0.11c0.538,0.51 0.85,1.183 1.036,1.894m14.695,0.942c0,0.55 -0.025,1.101 -0.086,1.648c-0.18,1.606 -2.405,1.165 -3.412,1.102c-0.705,-0.044 -1.739,-0.156 -2.455,-0.344c-0.132,-0.034 -0.842,-0.213 -0.915,-0.518c-0.025,-0.105 0.047,-0.225 0.126,-0.299c0.315,-0.3 1.092,-0.533 1.432,-0.629c1.123,-0.315 2.323,-0.423 3.368,-0.98c0.3,-0.16 0.745,-0.454 0.842,-0.835c0.09,-0.353 -0.158,-0.635 -0.421,-0.817c-0.52,-0.361 -1.128,-0.476 -1.729,-0.621c-0.354,-0.085 -0.717,-0.131 -1.067,-0.229c-0.105,-0.03 -0.363,-0.069 -0.291,-0.151c0.115,-0.132 0.34,-0.086 0.514,-0.104c0.446,-0.045 0.895,-0.076 1.344,-0.086c0.483,-0.01 0.968,-0.013 1.45,0.026c1.396,0.114 1.3,1.854 1.3,2.837m-9.5,2.001c0.363,0.156 0.724,0.316 1.081,0.486c0.308,0.147 0.261,0.363 -0.08,0.387c-0.982,0.069 -1.97,0.127 -2.921,-0.187c-0.447,-0.148 -0.789,-0.316 -1.08,-0.686c-0.263,-0.334 -0.388,-0.887 0.194,-0.887c0.886,0 2.128,0.596 2.806,0.887m-2.5,6.071c0,0.352 -0.015,0.704 -0.047,1.054c-0.009,0.103 -0.059,0.368 -0.203,0.423c-0.145,0.055 -0.374,-0.106 -0.453,-0.173c-0.276,-0.232 -0.54,-0.478 -0.797,-0.732c-0.352,-0.347 -0.766,-0.822 -1.059,-1.227c-0.184,-0.253 -0.38,-0.528 -0.441,-0.845c-0.039,-0.2 0.36,-0.372 0.441,-0.403c0.406,-0.155 0.94,-0.241 1.368,-0.127c0.854,0.228 1.191,1.243 1.191,2.03m21.181,0.307l1.681,2.316l-3.431,-1.555c-0.423,-0.192 -0.841,-0.396 -1.25,-0.617c-0.668,-0.361 -1.648,-0.868 -2.036,-1.585c-0.298,-0.551 0.278,-0.786 0.716,-0.855c0.613,-0.097 1.12,-0.091 1.701,0.145c1.035,0.42 1.97,1.257 2.619,2.151m-16.181,0.65c0.455,0.48 2.374,1.321 2.725,1.5c0.51,0.26 1.161,0.529 1.479,1.062c0.106,0.176 0.162,0.393 0.146,0.597c-0.083,1.09 -1.1,1.172 -1.96,1.023c-1.897,-0.328 -3.899,-1.48 -5.274,-2.805c-0.302,-0.292 -0.565,-0.626 -0.811,-0.967c-0.306,-0.422 -0.549,-1.192 0.214,-1.241c1.044,-0.066 2.687,-0.007 3.481,0.831m7,-0.132c0.373,0.104 0.747,0.211 1.105,0.36c0.699,0.291 0.566,0.705 -0.155,0.932c-0.938,0.296 -2.035,0.039 -2.927,-0.28c-0.369,-0.133 -0.725,-0.3 -1.073,-0.481c-0.273,-0.141 -0.534,-0.305 -0.785,-0.482c-0.215,-0.153 -0.607,-0.387 -0.489,-0.623c0.043,-0.088 0.166,-0.118 0.262,-0.134c0.379,-0.066 1.15,0.035 1.461,0.099c0.872,0.181 1.743,0.37 2.601,0.609m-8.796,5.082l3.253,1.978l-3.77,-0.141c-0.98,-0.037 -3.579,-0.047 -4.361,-1.197c-0.35,-0.515 -0.122,-1.146 0.174,-1.618c0.256,-0.409 0.638,-1.074 1.252,-0.867c1.221,0.411 2.383,1.195 3.452,1.845" style="fill:#222;"/></svg>