<?xml version="1.0" encoding="UTF-8" standalone="no"?><!DOCTYPE svg PUBLIC "-//W3C//DTD SVG 1.1//EN" "http://www.w3.org/Graphics/SVG/1.1/DTD/svg11.dtd"><svg width="100%" height="100%" viewBox="0 0 923 136" version="1.1" xmlns="http://www.w3.org/2000/svg" xmlns:xlink="http://www.w3.org/1999/xlink" xml:space="preserve" xmlns:serif="http://www.serif.com/" style="fill-rule:evenodd;clip-rule:evenodd;stroke-linejoin:round;stroke-miterlimit:2;"><g><path d="M167.649,82.351c0,13.508 10.427,24.065 23.214,24.065c12.787,0 23.213,-10.557 23.213,-24.065c0,-13.181 -10.426,-23.41 -23.213,-23.41c-12.787,0 -23.214,10.229 -23.214,23.41Zm2.951,0c0,-11.738 9.049,-20.722 20.263,-20.722c11.213,0 20.262,8.984 20.262,20.722c0,12.065 -9.049,21.377 -20.262,21.377c-11.214,0 -20.263,-9.312 -20.263,-21.377Z" style="fill:#e21d39;fill-rule:nonzero;stroke:#e31837;stroke-width:0.8px;"/><path d="M220.961,105.629l15.279,0l0,-2.622l-6.23,0l0,-17.705l7.672,0c3.148,0 4.066,0.655 5.443,3.016l8.197,13.836c1.77,2.951 2.295,3.475 6.295,3.475l1.246,0l0,-2.622l-1.246,0c-1.771,0 -2.557,-0.197 -3.344,-1.509l-8.656,-14.688c-0.656,-1.115 -1.312,-1.64 -1.312,-1.64l0,-0.131c6.755,-0.787 10.951,-6.033 10.951,-13.115c0,-5.901 -2.819,-9.508 -7.082,-11.147c-2.492,-0.853 -4.787,-1.049 -7.869,-1.049l-19.344,0l0,2.623l6.23,0l0,40.656l-6.23,0l0,2.622Zm9.049,-22.95l0,-20.328l10.164,0c2.426,0 4.722,0.262 6.492,0.918c3.475,1.311 5.639,4.131 5.639,8.787c0,6.36 -4.131,10.623 -10.164,10.623l-12.131,0Z" style="fill:#e21d39;fill-rule:nonzero;stroke:#e31837;stroke-width:0.8px;"/><path d="M264.829,105.629l19.148,0c3.213,0 5.967,-0.196 8.721,-0.983c9.377,-2.689 15.017,-10.426 15.017,-21.902c0,-11.016 -5.246,-18.885 -13.836,-21.77c-3.148,-0.984 -5.902,-1.246 -9.902,-1.246l-19.148,0l0,2.623l6.23,0l0,40.656l-6.23,0l0,2.622Zm9.049,-2.622l0,-40.656l9.64,0c3.475,0 6.229,0.131 9.115,1.114c7.541,2.558 12.131,9.509 12.131,19.214c0,10.098 -4.984,16.918 -12.787,19.278c-2.623,0.787 -5.312,1.05 -8.459,1.05l-9.64,0Z" style="fill:#e21d39;fill-rule:nonzero;stroke:#e31837;stroke-width:0.8px;"/><path d="M314.863,105.629l32.983,0l0,-8.918l-2.754,0l0,6.296l-21.18,0l0,-19.214l18.295,0l0,-2.623l-18.295,0l0,-18.819l19.869,0l0,5.901l2.754,0l0,-8.524l-31.672,0l0,2.623l6.229,0l0,40.656l-6.229,0l0,2.622Z" style="fill:#e21d39;fill-rule:nonzero;stroke:#e31837;stroke-width:0.8px;"/><path d="M355.256,105.629l15.279,0l0,-2.622l-6.23,0l0,-17.705l7.672,0c3.148,0 4.066,0.655 5.443,3.016l8.197,13.836c1.77,2.951 2.295,3.475 6.295,3.475l1.246,0l0,-2.622l-1.246,0c-1.771,0 -2.557,-0.197 -3.344,-1.509l-8.656,-14.688c-0.656,-1.115 -1.312,-1.64 -1.312,-1.64l0,-0.131c6.755,-0.787 10.951,-6.033 10.951,-13.115c0,-5.901 -2.819,-9.508 -7.082,-11.147c-2.491,-0.853 -4.787,-1.049 -7.869,-1.049l-19.344,0l0,2.623l6.23,0l0,40.656l-6.23,0l0,2.622Zm9.049,-22.95l0,-20.328l10.164,0c2.427,0 4.722,0.262 6.492,0.918c3.476,1.311 5.639,4.131 5.639,8.787c0,6.36 -4.131,10.623 -10.163,10.623l-12.132,0Z" style="fill:#e21d39;fill-rule:nonzero;stroke:#e31837;stroke-width:0.8px;"/><path d="M415.911,82.351c0,13.508 10.427,24.065 23.214,24.065c12.786,0 23.213,-10.557 23.213,-24.065c0,-13.181 -10.427,-23.41 -23.213,-23.41c-12.787,0 -23.214,10.229 -23.214,23.41Zm2.951,0c0,-11.738 9.049,-20.722 20.263,-20.722c11.213,0 20.262,8.984 20.262,20.722c0,12.065 -9.049,21.377 -20.262,21.377c-11.214,0 -20.263,-9.312 -20.263,-21.377Z" style="fill:#e21d39;fill-rule:nonzero;stroke:#e31837;stroke-width:0.8px;"/><path d="M469.223,105.629l15.607,0l0,-2.622l-6.558,0l0,-18.886l17.574,0l0,-2.623l-17.574,0l0,-19.147l18.23,0l0,6.229l2.754,0l0,-8.852l-30.033,0l0,2.623l6.23,0l0,40.656l-6.23,0l0,2.622Z" style="fill:#e21d39;fill-rule:nonzero;stroke:#e31837;stroke-width:0.8px;"/><path d="M531.978,105.629l15.278,0l0,-2.622l-6.229,0l0,-40.656l14.688,0l0,7.737l2.754,0l0,-10.36l-37.705,0l0,10.36l2.755,0l0,-7.737l14.688,0l0,40.656l-6.229,0l0,2.622Z" style="fill:#e21d39;fill-rule:nonzero;stroke:#e31837;stroke-width:0.8px;"/><path d="M564.173,105.629l15.279,0l0,-2.622l-6.229,0l0,-19.082l29.115,0l0,19.082l-6.23,0l0,2.622l15.279,0l0,-2.622l-6.23,0l0,-40.656l6.23,0l0,-2.623l-15.279,0l0,2.623l6.23,0l0,18.951l-29.115,0l0,-18.951l6.229,0l0,-2.623l-15.279,0l0,2.623l6.23,0l0,40.656l-6.23,0l0,2.622Z" style="fill:#e21d39;fill-rule:nonzero;stroke:#e31837;stroke-width:0.8px;"/><path d="M618.337,105.629l32.983,0l0,-8.918l-2.754,0l0,6.296l-21.18,0l0,-19.214l18.295,0l0,-2.623l-18.295,0l0,-18.819l19.869,0l0,5.901l2.754,0l0,-8.524l-31.672,0l0,2.623l6.229,0l0,40.656l-6.229,0l0,2.622Z" style="fill:#e21d39;fill-rule:nonzero;stroke:#e31837;stroke-width:0.8px;"/><path d="M672.304,105.629l13.508,0l0,-2.622l-5.573,0l4.918,-13.246l19.475,0l4.984,13.246l-5.574,0l0,2.622l13.508,0l0,-2.622l-4.918,0l-16.197,-43.279l-3.016,0l-16.197,43.279l-4.918,0l0,2.622Zm13.836,-18.491l8.066,-21.443c0.459,-1.18 0.656,-2.492 0.656,-2.492l0.131,0c0,0 0.196,1.312 0.655,2.492l8.001,21.443l-17.509,0Z" style="fill:#e21d39;fill-rule:nonzero;stroke:#e31837;stroke-width:0.8px;"/><path d="M721.68,105.629l15.279,0l0,-2.622l-6.229,0l0,-17.705l7.672,0c3.147,0 4.065,0.655 5.442,3.016l8.197,13.836c1.771,2.951 2.295,3.475 6.295,3.475l1.246,0l0,-2.622l-1.246,0c-1.77,0 -2.557,-0.197 -3.344,-1.509l-8.656,-14.688c-0.655,-1.115 -1.311,-1.64 -1.311,-1.64l0,-0.131c6.754,-0.787 10.951,-6.033 10.951,-13.115c0,-5.901 -2.82,-9.508 -7.082,-11.147c-2.492,-0.853 -4.787,-1.049 -7.869,-1.049l-19.345,0l0,2.623l6.23,0l0,40.656l-6.23,0l0,2.622Zm9.05,-22.95l0,-20.328l10.164,0c2.426,0 4.721,0.262 6.491,0.918c3.476,1.311 5.64,4.131 5.64,8.787c0,6.36 -4.131,10.623 -10.164,10.623l-12.131,0Z" style="fill:#e21d39;fill-rule:nonzero;stroke:#e31837;stroke-width:0.8px;"/><path d="M765.55,105.629l15.278,0l0,-2.622l-6.229,0l0,-17.705l7.672,0c3.147,0 4.065,0.655 5.443,3.016l8.196,13.836c1.771,2.951 2.295,3.475 6.295,3.475l1.246,0l0,-2.622l-1.246,0c-1.77,0 -2.557,-0.197 -3.344,-1.509l-8.656,-14.688c-0.655,-1.115 -1.311,-1.64 -1.311,-1.64l0,-0.131c6.754,-0.787 10.951,-6.033 10.951,-13.115c0,-5.901 -2.82,-9.508 -7.082,-11.147c-2.492,-0.853 -4.787,-1.049 -7.869,-1.049l-19.344,0l0,2.623l6.229,0l0,40.656l-6.229,0l0,2.622Zm9.049,-22.95l0,-20.328l10.164,0c2.426,0 4.721,0.262 6.492,0.918c3.475,1.311 5.639,4.131 5.639,8.787c0,6.36 -4.131,10.623 -10.164,10.623l-12.131,0Z" style="fill:#e21d39;fill-rule:nonzero;stroke:#e31837;stroke-width:0.8px;"/><path d="M809.353,82.351c0,13.508 10.426,24.065 23.213,24.065c12.787,0 23.214,-10.557 23.214,-24.065c0,-13.181 -10.427,-23.41 -23.214,-23.41c-12.787,0 -23.213,10.229 -23.213,23.41Zm2.951,0c0,-11.738 9.049,-20.722 20.262,-20.722c11.214,0 20.263,8.984 20.263,20.722c0,12.065 -9.049,21.377 -20.263,21.377c-11.213,0 -20.262,-9.312 -20.262,-21.377Z" style="fill:#e21d39;fill-rule:nonzero;stroke:#e31837;stroke-width:0.8px;"/><path d="M859.648,62.351l4.852,0l11.082,43.278l3.541,0l11.279,-39.278c0.328,-1.181 0.459,-2.492 0.459,-2.492l0.197,0c0,0 0.131,1.311 0.459,2.492l11.279,39.278l3.541,0l11.082,-43.278l4.852,0l0,-2.623l-13.377,0l0,2.623l5.508,0l-9.246,37.18c-0.262,1.18 -0.459,2.492 -0.459,2.492l-0.196,0c0,0 -0.263,-1.312 -0.591,-2.492l-11.409,-39.803l-3.082,0l-11.41,39.803c-0.328,1.18 -0.59,2.492 -0.59,2.492l-0.197,0c0,0 -0.197,-1.312 -0.459,-2.492l-9.246,-37.18l5.508,0l0,-2.623l-13.377,0l0,2.623Z" style="fill:#e21d39;fill-rule:nonzero;stroke:#e31837;stroke-width:0.8px;"/><g><path d="M177.093,41.462l3.866,0l0,-17.97l6.99,0l0,-3.326l-17.846,0l0,3.326l6.99,0l0,17.97Z" style="fill:#e31837;fill-rule:nonzero;"/><path d="M192.693,33.816c0,4.77 3.447,8.006 8.608,8.006c5.131,0 8.578,-3.236 8.578,-8.006l0,-13.65l-3.866,0l0,13.62c0,2.88 -1.891,4.5 -4.742,4.5c-2.851,0 -4.712,-1.62 -4.712,-4.47l0,-13.65l-3.866,0l0,13.65Z" style="fill:#e31837;fill-rule:nonzero;"/><path d="M217.203,41.462l13.076,0l0,-3.326l-9.21,0l0,-17.97l-3.866,0l0,21.296Z" style="fill:#e31837;fill-rule:nonzero;"/><path d="M235.593,41.462l3.866,0l0,-7.35l4.352,0c3.991,0 6.778,-2.877 6.778,-7.018c0,-4.141 -2.787,-6.928 -6.778,-6.928l-8.218,0l0,21.296Zm3.866,-10.706l0,-7.264l3.692,0c2.191,0 3.512,1.411 3.512,3.602c0,2.221 -1.321,3.662 -3.572,3.662l-3.632,0Z" style="fill:#e31837;fill-rule:nonzero;"/><path d="M256.233,41.462l13.226,0l0,-3.326l-9.36,0l0,-5.734l7.17,0l0,-3.326l-7.17,0l0,-5.584l8.88,0l0,-3.326l-12.746,0l0,21.296Z" style="fill:#e31837;fill-rule:nonzero;"/><path d="M290.013,41.462l13.076,0l0,-3.326l-9.21,0l0,-17.97l-3.866,0l0,21.296Z" style="fill:#e31837;fill-rule:nonzero;"/><path d="M306.573,30.664c0,6.272 4.736,11.158 11.008,11.158c6.272,0 11.008,-4.886 11.008,-11.158c0,-6.091 -4.736,-10.858 -11.008,-10.858c-6.272,0 -11.008,4.767 -11.008,10.858Zm3.986,0c0,-4.201 3.121,-7.322 7.022,-7.322c3.901,0 7.022,3.121 7.022,7.322c0,4.381 -3.121,7.622 -7.022,7.622c-3.901,0 -7.022,-3.241 -7.022,-7.622Z" style="fill:#e31837;fill-rule:nonzero;"/><path d="M334.743,41.462l7.257,0c6.573,0 10.859,-3.956 10.859,-10.678c0,-6.722 -4.286,-10.618 -10.859,-10.618l-7.257,0l0,21.296Zm3.866,-3.326l0,-14.644l3.181,0c4.262,0 7.083,2.551 7.083,7.292c0,4.801 -2.761,7.352 -7.083,7.352l-3.181,0Z" style="fill:#e31837;fill-rule:nonzero;"/><path d="M357.693,30.785c0,6.69 4.826,11.037 10.438,11.037c3.961,0 6.182,-2.277 6.182,-2.277l0.06,0c0,-0.003 -0.03,0.447 -0.03,0.897l0,1.02l3.296,0l0,-11.216l-6.747,0l0,3.326l3.271,0l0,2.492c0,0 -2.131,2.222 -5.342,2.222c-3.991,0 -7.142,-3.002 -7.142,-7.62c0,-4.022 2.551,-7.324 7.322,-7.324c3.391,0 5.671,2.041 5.671,2.041l1.918,-2.88c0,0 -2.697,-2.697 -7.919,-2.697c-6.332,0 -10.978,4.797 -10.978,10.979Z" style="fill:#e31837;fill-rule:nonzero;"/><path d="M384.153,41.462l13.226,0l0,-3.326l-9.36,0l0,-5.734l7.17,0l0,-3.326l-7.17,0l0,-5.584l8.88,0l0,-3.326l-12.746,0l0,21.296Z" style="fill:#e31837;fill-rule:nonzero;"/></g><path d="M100.911,87.628l-13.31,13.31l34.559,34.562l13.31,-13.306l-34.559,-34.566Z" style="fill:#e21d39;fill-rule:nonzero;"/><path d="M126.307,89.166c-0.616,-3.376 -4.25,-6.81 -7.477,-8.086c-2.865,-1.131 -6.706,-0.359 -9.06,1.587c-2.559,1.125 -4.3,-1.54 -5.938,-3.175c0.817,-0.718 1.487,-1.482 1.535,-2.565c0.103,-0.919 -0.255,-1.786 -1.076,-2.199c-2.149,-0.817 -3.736,1.176 -5.168,2.409c0.56,-0.666 0.409,-1.845 0.15,-2.615c-0.612,-1.022 -1.688,-1.479 -2.764,-1.84c-1.536,0.411 -3.379,0.099 -4.405,-1.229c0.514,-1.33 1.282,-2.407 2.666,-2.971c3.684,-0.921 7.579,-0.716 11.108,-2.199c0.821,-0.924 1.74,-2.046 2.355,-3.173c-1.228,-0.723 1.078,-1.388 0.155,-2.306c-0.511,-2.05 2.099,-2.407 2.608,-4.148c0.156,-0.566 -0.869,-1.384 0.053,-1.893c-0.256,-1.176 0.308,-2.459 1.485,-3.121c1.075,-1.286 -0.204,-2.46 0.819,-3.789c2.763,-2.565 -1.946,-4.51 -2.765,-6.557c-2.404,-0.765 -4.503,-2.147 -7.268,-1.741c-0.717,-0.919 -2.256,0.307 -3.023,-0.869c0.052,-1.077 -0.765,-1.894 -1.534,-2.66c-1.383,0.253 -2.152,-1.129 -3.379,-1.335c-1.74,-1.84 -4.147,-2.708 -6.248,-4.092c0.102,-2.253 -2.458,-0.205 -2.868,-2.253c-1.637,-1.023 -2.099,-3.534 -4.452,-3.326c-1.588,-0.978 -3.688,0.508 -5.226,-1.026c-2.453,0 -4.4,-1.435 -6.65,-2.052c-2.101,-0.764 -5.123,0.31 -6.401,-2.1c-2.665,-1.023 -3.74,-3.735 -6.092,-5.578c-0.616,-0.203 -1.282,0.05 -1.794,-0.666c-1.687,0.051 -3.174,-0.409 -4.761,-0.051c-1.947,2.253 -5.069,0.255 -7.321,-0.259c-1.381,-0.663 -2.252,-2.047 -3.638,-2.711c-0.969,-0.869 -2.353,-0.716 -3.634,-0.971c-0.05,-0.461 -0.51,-0.307 -0.87,-0.359c-1.177,-0.872 -3.122,-0.361 -4.555,-0.255c-1.125,-0.716 -2.202,-1.59 -3.277,-2.461c-0.666,-0.97 -2.151,-0.409 -2.559,-1.638c-1.23,-1.124 -2.714,-2.201 -4.456,-2.508c-2.306,-0.868 -4.3,1.228 -6.758,0.512c-0.817,-0.716 -1.689,-1.174 -2.611,-1.589c-0.871,-0.048 -1.691,-0.66 -2.613,-0.868c-2.404,0.868 -4.042,-1.382 -6.093,0.05c-0.458,0.463 -1.225,0.311 -1.686,0.158c-0.409,0.102 -0.821,0.508 -0.821,0.919c0.821,2.56 0.256,5.069 0.46,7.732c1.334,1.43 -0.405,3.378 0.77,4.762c1.69,1.279 0.307,3.376 1.228,4.91c1.588,1.184 1.793,3.025 2.661,4.51c0.104,0.92 0.975,1.483 0.822,2.453c1.843,0.619 0.358,2.306 0.663,3.535c0.819,0.925 0.923,1.947 1.334,2.971c1.178,0.05 0.767,1.589 1.278,2.305c1.026,0.716 0.923,2.047 2.048,2.661c-0.36,1.996 1.278,3.431 0.36,5.48c1.329,1.331 0.973,3.225 1.022,4.914c0,2.251 3.021,2.512 3.073,4.504c1.432,1.536 1.227,3.178 1.025,5.122c0.612,1.021 -0.257,3.121 1.229,3.783c0.614,0.62 -0.617,1.336 0.358,1.796c0.1,0.922 0.408,1.638 1.226,2.15c1.333,2.047 2.715,3.738 4.66,5.373c2.51,1.489 1.588,4.764 1.945,7.07c-0.973,3.326 2.971,4.812 3.278,7.679c0.309,0.713 1.125,0.919 1.18,1.688c1.583,0.767 0.97,3.124 2.966,3.377c0,0.617 0.565,1.283 0,1.847c-0.153,0.763 0.77,1.38 1.331,2.046c-0.101,1.435 1.537,2.15 2.148,3.382c0.258,0.559 -0.406,1.534 0.515,1.945c0.052,2.506 3.378,3.378 3.583,5.835c-0.358,0.971 0.411,1.845 0.923,2.662c0.104,0.924 1.28,1.482 1.126,2.559c0.205,0.925 1.177,1.483 1.947,1.847c0.715,2.145 3.122,1.992 4.249,3.633c0.92,0.513 1.843,-0.106 2.61,-0.564c1.742,0 2.663,-1.945 4.251,-2.404c2.149,-1.541 4.864,-1.796 7.167,-3.075c2.406,-2.1 3.021,-5.582 4.145,-7.935c-0.05,-1.382 -0.562,-2.608 -1.229,-3.894c0.206,-1.02 -0.357,-2.198 -0.05,-3.221c0.666,-1.894 3.175,-0.821 4.558,-0.872c0.409,0.204 0.867,0.768 1.228,0.513c0.974,0.255 0.153,1.382 0.307,2.148c0.308,1.027 0.769,1.999 1.687,2.718c0.769,0.355 2.253,0.305 2.82,0.05c-1.127,1.332 -3.281,2.453 -2.92,4.451c0.052,0.773 0.614,1.436 1.281,1.689c1.74,0.614 2.917,-0.77 4.196,-1.739c1.228,1.739 3.944,2.816 3.226,5.274c-2.047,2.458 -2.813,6.297 -1.895,9.367c1.181,3.023 4.2,6.552 7.528,7.629c5.224,1.022 11.008,-0.359 14.951,-4.812l-20.584,-20.787l17.764,-17.764l20.892,20.58c2.662,-2.253 3.991,-5.224 4.915,-8.192c0.202,-2.05 0.408,-4.092 0.051,-6.092Zm-28.927,-36.504c-0.102,-0.922 0.105,-1.841 0.51,-2.559c1.025,-0.921 2.254,-0.82 3.535,-0.767c0.717,1.128 2.151,1.333 2.407,2.715l0.971,2.613c-1.844,1.426 -0.459,4.144 -2.711,5.266c-1.948,0 -2.766,3.18 -4.865,2.204c-0.666,-0.869 -1.947,-1.229 -1.487,-2.509l-0.408,-0.205c-0.306,-2.557 1.177,-4.557 2.048,-6.758Zm-83.4,-38.551c-0.462,0.767 -1.383,1.484 -2.254,2.046c-1.178,-0.357 -2.305,-0.972 -3.431,-1.586c-0.207,-0.922 -0.872,-1.793 -0.872,-2.614c1.743,-0.817 2.099,-3.123 4.303,-2.965l1.483,0.153c-0.202,1.127 1.281,1.177 0.716,2.254c0.055,0.355 0.411,0.713 -0.151,0.971c0.51,0.205 -0.155,1.177 0.206,1.741Zm76.591,100.042c0.973,0.565 2.253,1.43 2.659,2.559c0.106,0.816 0.414,1.743 -0.1,2.459c-0.666,0.868 -1.893,0.969 -2.813,0.56c-1.437,-0.51 -2.613,-1.998 -2.869,-3.481c-0.309,-1.64 1.688,-2.813 3.123,-2.097Zm-0.31,-42.7c0.514,1.023 0.567,2.306 -0.05,3.327c-1.127,1.124 -2.763,1.539 -2.713,3.332l-0.973,0.76c-0.358,-0.662 -0.257,-1.48 -1.129,-1.735c-0.406,-1.233 -0.765,-2.712 -1.993,-3.434c-0.512,-0.818 -0.77,-2.098 -0.462,-2.814c0.716,-0.307 1.946,-1.432 2.305,-0.152c1.739,-1.026 3.172,1.021 5.015,0.716Zm-3.889,-23.653c1.023,0.205 1.485,1.587 1.843,2.556c0.665,0.567 0.717,1.641 1.126,2.36c-0.052,0.46 -0.359,0.871 -0.257,1.483c1.127,0.617 0.104,1.847 0.46,2.714c-0.816,0.919 -1.226,2.559 -2.609,2.712c-0.513,1.229 -2.098,1.999 -2.968,2.968c-0.973,0.053 -1.742,1.232 -2.867,0.618c-0.668,-0.666 -0.925,-1.229 -1.076,-2.1c0.204,-2.253 2.609,-2.924 2.917,-5.065c0.768,-0.463 1.228,-1.23 1.281,-2.1c-1.382,-0.976 1.487,-2.611 -0.719,-3.077c-0.306,-1.428 -2.456,-1.121 -2.25,-2.864c0.817,-0.817 1.38,-2.61 3.02,-2.1c0.564,1.075 1.894,0.666 2.099,1.895Zm-7.938,33.638c0.36,-0.358 0.923,-0.823 0.514,-1.435c0.462,-0.564 1.076,-0.97 1.739,-0.719c-0.049,0.665 0.615,0.412 1.023,0.513c0.515,0.513 1.181,1.283 1.078,1.999c-1.128,1.33 -2.049,2.66 -3.431,3.633c-0.513,-0.102 -1.075,-0.152 -1.28,-0.77c0.051,-1.073 0.871,-2.1 0.357,-3.221Zm-1.844,-46.898l0.055,0.151c0.869,-1.795 3.276,-1.022 4.966,-1.282c1.022,1.029 2.917,-0.664 3.324,1.388c0.155,0.969 1.129,1.843 0.105,2.661c-0.818,0.202 -1.025,1.228 -1.792,1.487c-2.458,-0.309 -5.017,3.479 -6.913,0.356c-0.305,-1.534 -0.665,-3.327 0.255,-4.761Zm-4.657,40.601c-0.049,-0.971 0.973,-1.59 1.332,-2.256c1.843,0.102 2.047,-2.66 3.84,-2.098l1.843,-0.614c0.357,0.975 0.869,1.585 0.462,2.712c-0.409,1.432 -2.305,2.306 -1.896,3.941c-1.179,1.384 -2.968,0.82 -4.403,0.718c0,-1.434 -2.662,-0.921 -1.178,-2.403Zm-16.842,-50.437c3.482,0.108 6.143,2.262 9.214,3.079c0.972,-0.564 1.433,1.229 2.201,0.152c0.871,0.564 -0.049,1.382 0.718,2.046c0.254,0.564 -0.462,1.28 -0.872,1.793c-2.558,0.925 -6.194,2.611 -8.6,0.412c-1.79,-0.153 -2.458,-2.663 -4.248,-3.124c-0.257,-0.768 -0.769,-1.586 -0.664,-2.41l2.251,-1.948Zm-3.944,37.125c-0.462,1.585 1.637,2.354 1.232,3.891c1.482,0.871 1.327,2.457 2.508,3.428c0.152,1.077 -0.566,2 -1.437,2.457c-0.87,0.153 -1.741,0.716 -2.661,0.412c-0.82,-1.023 -2.354,-0.305 -3.123,-1.894c-0.406,-1.334 -2.099,-2.205 -2.354,-3.687c0.716,-1.743 -0.923,-3.688 0.765,-5.072l2.254,-1.84c0.924,0.716 3.277,0.304 2.816,2.305Zm-19.456,-43.929c0.871,-0.05 -0.049,-0.976 0.822,-1.021c0.614,0.305 1.587,0.153 2.15,-0.106c0.716,-0.413 1.484,0.459 2.2,-0.255c0.46,0.562 1.384,0.562 1.895,1.072l0.051,0.26c1.023,-0.514 1.124,0.513 1.483,1.282c0.769,0.558 -0.408,0.916 -0.257,1.48l-1.788,0.871l-0.054,-0.359c-0.561,-0.05 -1.023,0.818 -1.583,0.26c-0.104,-1.127 -1.128,0 -1.539,-0.618c-0.459,0.564 -1.026,0.105 -1.586,0.153c-0.615,-1.023 -2.1,-1.689 -1.794,-3.019Zm-5.783,7.323c1.023,-1.127 2.508,-0.05 3.48,-1.434c1.232,-0.104 1.536,1.328 2.869,1.023c0.511,0.305 1.127,0.716 1.228,1.229c-0.514,1.023 0.666,1.589 0.358,2.508c-1.024,1.743 -3.278,2.455 -3.841,4.347c-0.41,0.108 -0.869,0.468 -1.225,0.108c-1.383,-0.458 -1.438,-1.946 -2.254,-2.87c0.816,-1.429 -1.383,-2.301 -0.512,-3.786l-0.311,0.099c-0.254,-0.353 0.053,-0.865 0.208,-1.224Zm-0.719,20.989c-1.126,-0.307 -2.2,-0.766 -3.326,-0.766c-0.822,-1.128 -2.407,-0.769 -3.02,-2.103c-0.768,-0.048 -0.82,-0.818 -0.922,-1.331c0.255,-0.969 0.666,-1.995 -0.309,-2.762c-1.382,-2.506 1.844,-3.588 3.533,-2.506c1.127,0.817 1.844,2.145 1.996,3.324c1.281,1.792 3.741,0.871 4.967,2.61c-0.204,0.716 -0.564,1.488 -0.769,2.204l-2.15,1.33Zm8.195,28.159c-0.669,0.357 -1.284,0.975 -2.155,0.617c-1.176,-0.772 -1.943,-1.844 -2.709,-2.923l-0.565,-0.353c0.767,-0.771 0.254,-1.696 0.307,-2.564c1.024,-0.407 1.33,-2.148 2.56,-1.841c0.719,-0.618 1.125,0.205 1.841,0.102c0.617,1.127 1.693,2.511 0.77,3.838c2.457,0.716 -0.665,1.796 -0.049,3.124Zm6.962,-15.259c-1.437,1.024 -2.92,0.36 -4.251,-0.457c-1.178,-0.563 -2.918,0.045 -3.38,-1.538c-0.356,-1.382 0.053,-2.507 0.412,-3.789l0.716,0c-0.257,-0.764 -0.257,-1.793 0,-2.659c0.973,-1.074 2.047,0.307 3.071,-0.516c0.718,0.923 2.252,1.23 2.099,2.715c1.177,0.46 1.537,2.049 2.764,2.664c-0.562,1.381 0.768,3.123 -1.431,3.58Zm0.767,-21.452c-0.616,0 -1.229,0 -1.484,-0.564c0.767,-1.07 -0.82,-1.33 -0.463,-2.405c-1.996,-0.662 0.924,-1.738 -0.357,-2.708c0.051,-1.286 1.483,-1.896 2.458,-2.255c0.819,0.716 1.893,0.152 2.712,-0.259c0.92,1.228 2.049,1.641 3.379,2.052c0.973,0.149 0.615,1.637 1.74,1.33c0.871,0.457 0.205,1.641 0.055,2.301c-0.361,0.975 -0.156,2.409 -1.487,2.92c-1.024,0.205 -1.945,-0.511 -2.817,0.152c-1.227,-0.615 -2.659,0.101 -3.736,-0.564Zm11.571,64.919c-1.229,-0.511 -2.46,0.617 -3.788,0.208c-1.281,-1.482 -2.868,-2.46 -2.458,-4.611c-0.972,-0.559 -0.361,-2.098 -1.794,-2.202c0.412,-0.716 -0.358,-1.689 -0.715,-2.455c-0.923,-0.513 0.05,-1.382 -0.613,-2.049c0.202,-1.128 0.202,-2.252 1.229,-2.968c0.715,-0.612 1.687,-0.666 2.611,-0.259c1.381,1.488 1.636,3.28 1.686,5.174c1.486,0.152 0.256,2.504 1.998,1.788c0,0.925 0.768,0.873 1.383,1.18c1.076,0.668 2.304,1.384 2.15,2.766c-0.923,1.023 -0.358,2.712 -1.689,3.428Zm6.758,-17.403c-0.461,1.175 0.41,2.762 -1.024,3.478c-1.281,-0.563 -3.636,0.153 -3.531,-1.996c0.407,-1.026 -1.282,-1.891 -0.259,-2.914c-0.51,-0.925 1.025,-0.925 0.821,-1.743c0.972,-0.158 2.253,-1.336 2.919,0.048c0.462,-0.149 0.766,0.465 0.972,0.77c-0.102,0.307 -0.31,0.817 -0.051,1.178c0.563,0.359 0.563,0.77 0.153,1.179Zm5.272,-32.818c0,-0.618 -0.663,-0.871 -1.076,-1.282c0.207,-1.125 -0.05,-2.507 -1.278,-3.223c-1.175,-0.151 -0.766,-1.894 -2.098,-1.589c-0.41,-1.23 0.612,-2.357 -0.41,-3.276c-0.053,-1.179 1.281,-1.074 1.432,-2.151c0.205,-0.205 0.359,-0.46 0.717,-0.412c0.154,-0.357 0.975,-0.563 1.486,-0.972c1.022,0.102 0.564,1.59 1.69,1.486c0.766,0.357 0.408,0.921 0.154,1.381c0.357,0.871 1.33,1.641 1.021,2.664c1.691,0.564 0.154,2.204 1.588,2.816c0.307,0.102 0,0.411 0,0.719c0.562,1.175 0.718,2.15 -0.462,3.123c0.257,0.662 0.103,1.432 -0.765,1.686c-0.77,-0.46 -2.204,0.665 -1.999,-0.97Zm1.434,17.201c-0.205,-0.618 0.204,-0.818 0.256,-1.488c0.716,-0.407 1.282,-1.071 2.098,-0.971c0.975,0.564 1.641,0.818 2.05,1.946c-0.462,0.874 -1.588,2.306 -2.612,2.306c-0.82,-0.31 -1.331,-1.027 -1.792,-1.793Zm1.998,11.214c-0.411,-0.411 -0.668,-1.077 -0.359,-1.584c0.819,-1.233 2.253,-0.317 3.276,-0.514c0.409,0.711 1.79,1.587 1.025,2.56c0.716,1.534 -1.075,2.303 -1.025,3.687c-0.92,0.609 -1.691,-0.263 -2.561,-0.516c-0.562,-1.175 -1.227,-2.455 -0.356,-3.633Zm4.196,11.364c-0.973,-1.383 -1.175,-3.33 -2.148,-4.814c0.255,-0.972 1.127,-1.843 2.148,-2.147l3.739,0.56c0.509,0.413 1.331,0.511 1.484,1.283c-0.817,0.713 -0.051,2.405 -1.281,2.915c-1.329,0.614 -2.25,2.971 -3.942,2.203Zm23.142,-12.904l-16.64,16.536c-0.971,0.465 -1.893,-0.457 -2.254,-1.229c-0.049,-0.558 0.312,-1.021 0.515,-1.534l15.975,-15.971c0.511,-0.209 1.278,-0.462 1.843,-0.108c0.614,0.617 1.123,1.54 0.561,2.306Zm24.27,13.317c-0.566,0.969 -1.689,1.274 -2.768,0.913c-1.228,-0.511 -2.355,-1.632 -2.864,-2.863c-0.36,-0.666 -0.259,-1.587 0.153,-2.2c0.513,-0.614 1.229,-0.716 1.947,-0.823c1.278,0.361 2.608,1.185 3.275,2.357c0.357,0.766 0.611,1.843 0.257,2.616Z" style="fill:#e21d39;fill-rule:nonzero;"/><path d="M146.014,121.017l0,1.14l-1.925,0l0,5.291l-1.352,0l0,-5.291l-1.931,0l0,-1.14l5.208,0Z" style="fill:#e21d39;fill-rule:nonzero;"/><path d="M151.069,121.017l1.931,0l0,6.431l-1.251,0l0,-4.351c0,-0.123 0,-0.3 0.002,-0.524c0.005,-0.226 0.008,-0.402 0.008,-0.524l-1.222,5.399l-1.303,0l-1.212,-5.399c0,0.122 0.004,0.298 0.004,0.524c0.002,0.224 0.005,0.401 0.005,0.524l0,4.351l-1.254,0l0,-6.431l1.958,0l1.172,5.057l1.162,-5.057Z" style="fill:#e21d39;fill-rule:nonzero;"/></g></svg>