<?xml version="1.0" encoding="UTF-8" standalone="no"?><!DOCTYPE svg PUBLIC "-//W3C//DTD SVG 1.1//EN" "http://www.w3.org/Graphics/SVG/1.1/DTD/svg11.dtd"><svg width="100%" height="100%" viewBox="0 0 347 210" version="1.1" xmlns="http://www.w3.org/2000/svg" xmlns:xlink="http://www.w3.org/1999/xlink" xml:space="preserve" xmlns:serif="http://www.serif.com/" style="fill-rule:evenodd;clip-rule:evenodd;stroke-miterlimit:2;"><g><g><path d="M83.587,114.26c-0.283,0 -1.537,0.118 -1.537,0.118c-0.97,-0.047 -1.822,-0.355 -2.437,-0.899c-0.568,-0.52 -0.899,-1.206 -0.923,-2.011c0,-0.189 0,-0.402 0.048,-0.591c0.331,-2.342 2.46,-3.975 4.755,-3.643c2.295,0.331 4.282,2.01 4.329,3.667l0,0.023c0.024,1.301 -1.68,2.886 -4.235,3.336Z" style="fill:#fff;stroke:#fff;stroke-width:0.08px;"/><path d="M64.448,111.871c-0.331,-0.497 -0.497,-1.018 -0.52,-1.515c-0.024,-1.324 1.064,-2.46 2.839,-2.957l5.82,-1.609c1.135,-0.331 2.152,-0.212 2.838,0.308c0.781,0.568 1.136,1.632 0.994,2.957l-0.071,0.686c-0.331,2.839 -2.531,5.442 -4.802,5.678c-2.413,0.237 -5.655,-1.372 -7.098,-3.548Z" style="fill:#fff;stroke:#fff;stroke-width:0.08px;"/><path d="M64.117,129.024l-0.095,-1.662c-0.023,-0.733 0.45,-1.4 1.349,-1.884c0.899,-0.497 2.129,-0.733 3.454,-0.694l14.053,0.458c2.791,0.092 5.015,1.413 4.873,2.957c-0.04,0.66 -0.096,1.668 -1.26,1.799c-1.625,0.183 -20.343,0.036 -21.97,0.038c-0.618,0.001 -0.381,-0.656 -0.404,-1.012Z" style="fill:#fff;stroke:#fff;stroke-width:0.06px;"/><path d="M61.941,130.14c-0.431,0.009 -7.881,0.464 -7.976,0.114c-0.27,-0.995 -0.465,-2.197 -0.518,-3.353c-0.023,-0.673 0,-1.304 0.071,-1.806c0.071,-0.587 0.497,-1.06 1.254,-1.404c0.899,-0.402 2.129,-0.545 3.383,-0.387c2.461,0.301 4.424,2.207 4.164,4.17l-0.378,2.666Z" style="fill:#fff;stroke:#fff;stroke-width:0.06px;"/><path d="M87.018,121.878c-0.899,0.804 -2.342,1.135 -3.856,0.946l-9.416,-1.277c-3.194,-0.426 -5.323,-1.656 -5.607,-2.224c0.236,-0.426 1.774,-1.372 4.708,-1.68c0,0 9.841,-0.923 10.173,-0.946c0.26,-0.024 0.496,-0.071 0.757,-0.095c1.23,-0.071 2.342,0.426 3.146,1.136c0.45,0.378 0.994,1.064 1.017,2.082l0,0.023c0.024,0.781 -0.307,1.491 -0.922,2.035Z" style="fill:#fff;stroke:#fff;stroke-width:0.08px;"/><path d="M52.572,111.279l2.035,-0.568c2.413,-0.662 3.927,-0.568 4.495,-0.402c-0.332,0.663 -1.633,2.106 -3.715,3.265c-2.153,1.183 -4.708,0.97 -5.654,0.024c-0.095,-0.095 -0.213,-0.237 -0.213,-0.355c-0.023,-0.355 0.734,-1.349 3.052,-1.964Z" style="fill:#fff;stroke:#fff;stroke-width:0.08px;"/><path d="M50.372,121.47l0.032,8.936l-3.249,-0.008l0.189,-13.008c0.023,-1.396 0.378,-2.058 0.591,-2.278c0.024,0.036 0.071,0.055 0.142,0.11c1.065,0.827 2.295,3.584 2.295,6.248Z" style="fill:#fff;stroke:#fff;stroke-width:0.07px;"/><path d="M44.811,130.408l-6.775,0.083l-0.274,-10.517c-0.047,-2.289 1.775,-4.744 3.998,-5.372c0.521,-0.148 1.302,-0.24 1.988,0.129c0.804,0.425 1.277,1.348 1.254,2.511l-0.191,13.166Z" style="fill:#fff;stroke:#fff;stroke-width:0.07px;"/><path d="M35.444,121.858l0.253,8.757c0,0 -3.792,-0.052 -5.316,-0.166l-0.355,-4.014c0,-0.066 0,-0.132 0,-0.182c-0.095,-2.14 1.349,-4.743 3.218,-5.821c0.544,-0.316 1.041,-0.465 1.348,-0.365c0.379,0.132 0.804,0.713 0.852,1.741l0,0.05Z" style="fill:#fff;stroke:#fff;stroke-width:0.07px;"/><path d="M52.596,120.482c0,-0.568 0.922,-2.058 3.501,-3.572l2.437,-1.42c2.72,-1.609 4.329,-1.585 4.66,-1.396l0,0.237c-0.118,2.034 -1.845,4.897 -3.643,6.104c-1.751,1.159 -4.85,1.301 -6.671,0.331c-0.261,-0.142 -0.261,-0.237 -0.284,-0.284Z" style="fill:#fff;stroke:#fff;stroke-width:0.08px;"/><path d="M250.328,59.965c0,-0.473 0.118,-0.899 0.307,-1.206c0.237,-0.355 0.592,-0.568 1.089,-0.615c1.112,-0.119 2.555,0.591 3.785,1.798l16.939,16.868c1.538,1.537 2.082,2.933 2.058,3.643c0,0.402 -0.142,0.473 -0.213,0.52c-0.804,0.474 -3.383,-0.142 -5.749,-2.105l-1.703,-1.751c-0.544,-0.544 -1.159,-1.017 -1.822,-1.396l-12.183,-10.906c-1.538,-1.396 -2.532,-3.288 -2.508,-4.85Z" style="fill:#fff;stroke:#fff;stroke-width:0.08px;"/><path d="M254.681,51.188l26.757,22.333c0.213,0.166 0.426,0.331 0.662,0.497c0.615,0.686 0.947,1.372 0.947,1.987c0,0.615 -0.403,1.089 -1.16,1.42c-2.129,0.851 -5.701,-0.19 -7.807,-2.271l-16.915,-16.868c-2.248,-2.224 -4.471,-6.199 -4.85,-8.659c-0.071,-0.45 -0.024,-0.805 0,-0.947c0.71,0.947 1.514,1.798 2.366,2.508Z" style="fill:#fff;stroke:#fff;stroke-width:0.08px;"/><path d="M288.795,66.85c0,0.686 -0.118,1.348 -0.307,1.94l-0.568,1.561c-0.402,1.183 -1.136,1.987 -2.058,2.224c-0.923,0.26 -1.964,-0.047 -2.934,-0.852l-26.757,-22.333c-2.318,-1.94 -4.282,-5.37 -4.258,-7.499c0.024,-0.544 0.165,-0.876 0.426,-1.018c0.52,-0.26 1.679,-0.142 3.146,0.805l30.282,19.257c1.822,1.159 3.052,3.549 3.028,5.915Z" style="fill:#fff;stroke:#fff;stroke-width:0.08px;"/><path d="M292.533,56.535c0,0.426 -0.071,0.828 -0.213,1.23c-0.307,0.899 -0.922,1.538 -1.75,1.822c-1.041,0.378 -2.342,0.142 -3.549,-0.639l-30.282,-19.258c-1.916,-1.206 -3.194,-2.389 -3.833,-3.122c0.876,0.094 2.319,0.449 4.117,1.23l32.009,13.792c2.082,0.899 3.525,2.934 3.501,4.945Z" style="fill:#fff;stroke:#fff;stroke-width:0.08px;"/><path d="M257.804,35.574c-1.917,-0.804 -3.17,-2.839 -3.147,-5.015c0,-0.616 0.095,-1.207 0.308,-1.775l1.325,-3.69c0.52,-1.467 1.419,-2.532 2.413,-2.816c0.591,-0.165 1.159,-0.047 1.679,0.355c1.491,1.112 2.603,4.046 2.579,6.79c0,0.402 -0.024,0.781 -0.071,1.159l-0.284,2.153c-0.189,1.301 -0.804,2.295 -1.727,2.815c-0.875,0.497 -1.963,0.521 -3.075,0.024Z" style="fill:#fff;stroke:#fff;stroke-width:0.08px;"/><path d="M277.558,28.879l-0.095,10.693c0,1.278 -0.426,2.248 -1.183,2.745c-0.733,0.496 -1.75,0.496 -2.839,0.023c-2.271,-0.993 -3.998,-3.738 -3.974,-6.411c0,-0.308 0.024,-0.615 0.071,-0.899l0.946,-5.749c0.521,-3.052 2.579,-5.252 4.14,-5.299c0.521,-0.024 1.018,0.189 1.467,0.638c0.923,0.899 1.491,2.532 1.467,4.259Z" style="fill:#fff;stroke:#fff;stroke-width:0.08px;"/><path d="M294.142,41.512l-0.047,5.229c0,1.277 -0.426,2.271 -1.183,2.767c-0.734,0.474 -1.751,0.474 -2.839,0c-2.295,-0.993 -3.998,-3.761 -3.998,-6.434c0,-0.308 0.023,-0.616 0.071,-0.899l0.97,-5.939c0.236,-1.443 0.875,-2.531 1.679,-2.909c0.545,-0.237 1.112,-0.166 1.751,0.236c1.964,1.278 3.62,4.897 3.596,7.925l0,0.024Z" style="fill:#fff;stroke:#fff;stroke-width:0.08px;"/><path d="M111.646,73.024c-1.112,0.994 -1.869,2.224 -2.201,3.573c-0.922,0.638 -1.845,0.851 -2.626,0.591c-0.851,-0.284 -1.514,-1.112 -1.845,-2.318l-1.538,-5.655c-0.118,-0.425 -0.165,-0.875 -0.165,-1.301c0.023,-2.129 1.561,-3.856 3.738,-4.187l12.633,-1.869c3.099,-0.473 5.37,0.047 5.82,0.473c-0.024,0.26 -0.213,0.71 -0.544,1.254c-1.68,0.024 -3.289,0.639 -4.637,1.822l-8.635,7.617Z" style="fill:#fff;stroke:#fff;stroke-width:0.08px;"/><path d="M125.509,52.726c0,0.284 -0.071,0.591 -0.236,0.899c-0.994,2.011 -4.377,4.093 -7.382,4.542l-12.633,1.893c-1.065,0.142 -1.916,0 -2.437,-0.45c-0.355,-0.307 -0.52,-0.78 -0.52,-1.372c0,-0.449 0.118,-0.946 0.331,-1.49l1.514,-3.856c1.041,-2.697 4.353,-4.614 7.216,-4.212l10.74,1.491c2.011,0.26 3.407,1.325 3.407,2.555Z" style="fill:#fff;stroke:#fff;stroke-width:0.08px;"/><path d="M130.619,43.239c0,0.45 -0.142,0.923 -0.426,1.396c-1.277,2.153 -4.826,3.62 -7.759,3.217l-10.765,-1.49c-0.78,-0.118 -2.578,-0.544 -2.578,-2.224c0.023,-0.615 0.26,-1.277 0.733,-1.963l0.449,-0.663c1.657,-2.413 5.489,-3.927 8.352,-3.241l8.99,2.082c1.845,0.426 3.028,1.561 3.004,2.886Z" style="fill:#fff;stroke:#fff;stroke-width:0.08px;"/><path d="M132.606,25.78c0.71,0.473 1.065,1.466 0.97,2.72l-0.378,5.82c-0.071,1.301 -0.639,2.413 -1.585,3.123c-0.97,0.71 -2.177,0.923 -3.454,0.639l-8.99,-2.106c-3.336,-0.757 -5.725,-1.987 -6.317,-2.555c0.26,-0.473 1.609,-1.609 4.022,-2.555l12.917,-5.134c1.136,-0.425 2.129,-0.425 2.815,0.048Z" style="fill:#fff;stroke:#fff;stroke-width:0.08px;"/><path d="M130.525,19.984c0.331,0.283 0.757,0.757 0.757,1.301c0,0.851 -0.899,1.703 -2.343,2.271l-12.94,5.134c-2.816,1.112 -6.719,0.899 -8.541,-0.45c-0.331,-0.236 -0.71,-0.639 -0.71,-1.088c0,-0.592 0.616,-1.514 2.319,-2.248l13.035,-5.559c2.768,-1.183 6.601,-0.899 8.423,0.639Z" style="fill:#fff;stroke:#fff;stroke-width:0.08px;"/><path d="M106.252,23.201c-0.45,0.237 -0.686,0.213 -0.71,0.189c-0.095,-0.047 -0.308,-0.378 -0.308,-1.254c0,-0.496 0.071,-1.041 0.213,-1.656l2.224,-9.392c0.686,-2.839 1.751,-4.518 2.271,-5.015c0.166,0.331 0.379,0.993 0.497,2.034l-0.497,7.784c-0.023,0.307 -0.023,0.615 -0.023,0.899c-0.474,2.72 -2.059,5.583 -3.667,6.411Z" style="fill:#fff;stroke:#fff;stroke-width:0.08px;"/><path d="M116.732,5.505l0.189,5.134c0.071,1.514 0.426,2.839 1.018,3.856c-0.663,1.893 -1.846,3.572 -3.218,4.282c-0.449,0.237 -1.088,0.449 -1.585,0.166c-0.568,-0.355 -0.875,-1.278 -0.875,-2.485c0,-0.141 0,-0.283 0.023,-0.425l0.639,-10.268c0.213,-3.004 1.704,-5.417 2.91,-5.583c0.26,-0.024 0.544,0.095 0.852,0.331c0.189,0.166 0.378,0.402 0.544,0.639c-0.331,1.112 -0.497,2.389 -0.497,3.667c0,0.213 0,0.449 0,0.686Z" style="fill:#fff;stroke:#fff;stroke-width:0.08px;"/><path d="M119.263,10.544l-0.189,-5.11c0,-0.213 0,-0.402 0,-0.615c0.024,-3.028 0.994,-4.637 1.349,-4.732c0.449,0.024 1.892,1.704 2.531,4.874l0.544,2.744c0.118,0.592 0.189,1.183 0.189,1.798c-0.023,2.177 -0.875,4.14 -2.034,4.637c-0.379,0.142 -0.71,0.142 -1.017,-0.071c-0.592,-0.355 -1.302,-1.514 -1.373,-3.525Z" style="fill:#fff;stroke:#fff;stroke-width:0.08px;"/><path d="M142.945,128.715l0.166,-18.311l-21.813,-7.287c-2.508,-0.828 -5.583,0.473 -6.719,2.863l-5.749,11.923l-1.135,3.241c0,0.142 -0.024,0.284 -0.024,0.426c0,1.798 0.804,3.407 2.106,4.211c2.436,1.467 7.144,2.745 10.291,2.768l22.877,0.166Z" style="fill:#fff;stroke:#fff;stroke-width:0.5px;stroke-linejoin:round;stroke-miterlimit:1.41421;"/><path d="M143.111,110.404l-0.166,18.311l4.802,0.024c2.579,0.023 4.685,-2.059 4.708,-4.637l0.048,-5.465c0,-2.768 -2.2,-5.844 -4.827,-6.719l-4.565,-1.514Z" style="fill:#fff;stroke:#fff;stroke-width:0.5px;stroke-linejoin:round;stroke-miterlimit:1.41421;"/><path d="M176.705,105.081l-0.213,23.87l9.557,0.071c2.579,0 4.708,-2.081 4.732,-4.66l0.024,-5.441c0.023,-2.91 -2.059,-6.601 -4.543,-8.091l-9.557,-5.749Z" style="fill:#fff;stroke:#fff;stroke-width:0.5px;stroke-linejoin:round;stroke-miterlimit:1.41421;"/><path d="M176.492,128.951l0.213,-23.87l-6.506,-3.88c-2.248,-1.349 -5.442,-0.71 -6.979,1.396l-4.188,5.701c-1.821,2.508 -3.406,7.263 -3.43,10.362l-0.024,5.465c-0.023,2.579 2.058,4.685 4.637,4.708l16.277,0.118Z" style="fill:#fff;stroke:#fff;stroke-width:0.5px;stroke-linejoin:round;stroke-miterlimit:1.41421;"/><path d="M243.68,129.283l0.095,-11.9l-3.005,-11.9c-0.26,-1.041 -0.757,-1.751 -1.372,-1.94c-0.615,-0.189 -1.42,0.118 -2.2,0.852l-6.104,5.512c-2.058,1.845 -3.738,5.749 -3.762,8.682c0,0.166 0,0.332 0.024,0.473l0.308,5.489c0.142,2.579 2.46,4.779 5.062,4.803l9.866,0.071c0.378,0 0.757,-0.048 1.088,-0.142Z" style="fill:#fff;stroke:#fff;stroke-width:0.5px;stroke-linejoin:round;stroke-miterlimit:1.41421;"/><path d="M243.775,117.383l-0.095,11.9c1.348,-0.332 2.224,-1.396 2.247,-2.863c0,-0.331 -0.047,-0.71 -0.142,-1.065l-1.916,-7.641l-0.094,-0.331Z" style="fill:#fff;stroke:#fff;stroke-width:0.5px;stroke-linejoin:round;stroke-miterlimit:1.41421;"/><path d="M143.489,107.305l0.284,-30.282l-0.757,0.307l-9.274,3.762c-2.863,1.183 -6.695,4.4 -8.351,7.026l-4.542,7.287c-0.403,0.638 -0.616,1.301 -0.616,1.963c0,1.372 0.899,2.484 2.414,2.981l20.842,6.956Z" style="fill:#fff;stroke:#fff;stroke-width:0.5px;stroke-linejoin:round;stroke-miterlimit:1.41421;"/><path d="M143.773,77.023l-0.284,30.282l5.536,1.845c2.626,0.875 6.222,-0.26 7.854,-2.508l4.188,-5.701c1.774,-2.437 3.17,-7.121 2.981,-10.244l-1.089,-17.318c-0.071,-1.135 -0.496,-2.011 -1.23,-2.484c-0.733,-0.449 -1.727,-0.473 -2.791,-0.024l-14.574,5.915l-0.591,0.237Z" style="fill:#fff;stroke:#fff;stroke-width:0.5px;stroke-linejoin:round;stroke-miterlimit:1.41421;"/><path d="M177.06,66.779l-0.332,34.706l11.143,6.671c2.295,1.372 5.749,0.852 7.523,-1.159l8.943,-10.055c2.058,-2.318 4.116,-6.908 4.448,-9.983l2.294,-20.322c0.142,-1.23 -0.212,-2.295 -0.97,-2.981c-0.686,-0.592 -1.679,-0.852 -2.767,-0.734l-27.325,3.478l-2.957,0.379Z" style="fill:#fff;stroke:#fff;stroke-width:0.5px;stroke-linejoin:round;stroke-miterlimit:1.41421;"/><path d="M176.728,101.485l0.332,-34.706l-0.829,0.094l-6.08,0.781c-2.46,0.308 -4.424,2.508 -4.447,5.015c0,0.119 0,0.237 0.023,0.332l1.089,17.317c0.165,2.934 2.46,6.695 4.968,8.186l4.944,2.981Z" style="fill:#fff;stroke:#fff;stroke-width:0.5px;stroke-linejoin:round;stroke-miterlimit:1.41421;"/><path d="M244.011,93.678l0.118,-14.1l-0.189,-0.095l-2.697,-1.514l-10.882,-6.08l-2.13,-1.183l-10.22,-5.702c-0.97,-0.544 -1.892,-0.662 -2.579,-0.307c-0.686,0.355 -1.135,1.159 -1.253,2.271l-2.295,20.322c-0.024,0.284 -0.047,0.591 -0.047,0.923c-0.024,3.028 1.23,6.884 2.933,8.99l7.949,9.889c0.781,0.946 1.845,1.537 3.052,1.632c1.183,0.095 2.318,-0.308 3.241,-1.136l6.08,-5.512c2.508,-2.271 6.482,-6.009 8.919,-8.398Z" style="fill:#fff;stroke:#fff;stroke-width:0.5px;stroke-linejoin:round;stroke-miterlimit:1.41421;"/><path d="M244.129,79.578l-0.118,14.1l0.095,-0.119l6.127,-6.009c0.71,-0.709 1.088,-1.514 1.088,-2.318c0.024,-1.041 -0.638,-1.987 -1.774,-2.626l-5.418,-3.028Z" style="fill:#fff;stroke:#fff;stroke-width:0.5px;stroke-linejoin:round;stroke-miterlimit:1.41421;"/><path d="M243.893,105.081l0.047,-4.803c-0.213,0.852 -0.331,1.727 -0.355,2.579c0,0.686 0.071,1.301 0.213,1.869l0.095,0.355Z" style="fill:#fff;stroke:#fff;stroke-width:0.5px;stroke-linejoin:round;stroke-miterlimit:1.41421;"/><path d="M243.94,100.278l-0.047,4.803l2.981,11.876c0.284,1.088 0.828,1.822 1.561,2.082c0.734,0.26 1.609,0.023 2.508,-0.639l13.509,-10.149c1.23,-0.899 1.939,-2.39 1.963,-3.975c0,-1.017 -0.284,-1.987 -0.828,-2.791l-7.618,-11.167c-0.662,-0.993 -1.608,-1.585 -2.626,-1.679c-1.041,-0.119 -2.082,0.283 -2.933,1.135l-6.104,6.009c-1.065,1.041 -1.916,2.721 -2.366,4.495Z" style="fill:#fff;stroke:#fff;stroke-width:0.5px;stroke-linejoin:round;stroke-miterlimit:1.41421;"/><path d="M96.599,128.384l0.26,-25.764l-0.118,-0.094c-0.828,-0.663 -1.632,-0.947 -2.224,-0.734c-0.567,0.213 -1.017,0.947 -1.206,1.988l-3.785,20.251c-0.048,0.26 -0.071,0.52 -0.071,0.78c-0.024,2.082 1.49,3.525 3.643,3.549l3.501,0.024Z" style="fill:#fff;stroke:#fff;stroke-width:0.5px;stroke-linejoin:round;stroke-miterlimit:1.41421;"/><path d="M96.907,96.611l0.023,-2.224c-0.094,0.379 -0.165,0.734 -0.165,1.112c0,0.379 0.047,0.757 0.142,1.112Z" style="fill:#fff;stroke:#fff;stroke-width:0.5px;stroke-linejoin:round;stroke-miterlimit:1.41421;"/><path d="M276.257,93.275l-0.142,14.645c0.355,-0.071 0.733,-0.166 1.135,-0.284l2.248,-0.71c1.538,-0.473 2.46,-1.585 2.46,-2.981c0,-0.639 -0.189,-1.301 -0.567,-1.94l-5.111,-8.682l-0.023,-0.048Z" style="fill:#fff;stroke:#fff;stroke-width:0.5px;stroke-linejoin:round;stroke-miterlimit:1.41421;"/><path d="M143.465,73.45l0.166,-19.447c-0.757,-0.118 -1.538,0.024 -2.318,0.426l-10.481,5.252c-1.348,0.686 -2.176,1.917 -2.176,3.336c-0.024,0.781 0.236,1.585 0.733,2.295l4.637,6.719c1.538,2.224 4.968,3.241 7.452,2.224l1.987,-0.805Z" style="fill:#fff;stroke:#fff;stroke-width:0.5px;stroke-linejoin:round;stroke-miterlimit:1.41421;"/><path d="M143.631,54.003l-0.166,19.447l2.887,-1.159c1.892,-0.781 3.217,-2.815 3.241,-4.945c0,-0.496 -0.071,-0.993 -0.213,-1.466l-2.839,-9.227c-0.355,-1.135 -1.088,-2.011 -2.058,-2.413c-0.261,-0.118 -0.544,-0.189 -0.852,-0.237Z" style="fill:#fff;stroke:#fff;stroke-width:0.5px;stroke-linejoin:round;stroke-miterlimit:1.41421;"/><path d="M183.849,62.757l0.166,-16.632l-8.541,0.119c-2.46,0.023 -4.495,2.058 -4.518,4.542l0.26,9.037c0.047,1.23 0.544,2.295 1.396,3.052c0.875,0.734 2.011,1.065 3.217,0.899l8.02,-1.017Z" style="fill:#fff;stroke:#fff;stroke-width:0.5px;stroke-linejoin:round;stroke-miterlimit:1.41421;"/><path d="M184.015,46.125l-0.166,16.632l1.278,-0.142c2.579,-0.331 4.779,-2.815 4.779,-5.418c0,-0.023 0,-0.047 0,-0.071l-0.024,-6.435c0,-1.23 -0.497,-2.389 -1.372,-3.264c-0.899,-0.876 -2.058,-1.349 -3.312,-1.325l-1.183,0.023Z" style="fill:#fff;stroke:#fff;stroke-width:0.5px;stroke-linejoin:round;stroke-miterlimit:1.41421;"/><path d="M244.153,76.029l0.095,-8.375c-0.379,0.237 -0.71,0.521 -1.018,0.852l-1.324,1.49c-0.663,0.71 -0.994,1.538 -1.018,2.366c0,1.159 0.686,2.224 1.893,2.886l1.372,0.781Z" style="fill:#fff;stroke:#fff;stroke-width:0.5px;stroke-linejoin:round;stroke-miterlimit:1.41421;"/><path d="M244.248,67.654l-0.095,8.375l1.325,0.71c2.484,1.395 6.624,1.253 9.014,-0.332l0.828,-0.52c0.946,-0.639 1.466,-1.443 1.49,-2.271c0,-0.805 -0.497,-1.609 -1.396,-2.248l-5.015,-3.619c-1.775,-1.278 -4.33,-1.254 -6.151,-0.095Z" style="fill:#fff;stroke:#fff;stroke-width:0.5px;stroke-linejoin:round;stroke-miterlimit:1.41421;"/><path d="M276.091,111.941l-0.094,8.896l1.04,3.951c0.71,2.649 3.62,4.897 6.341,4.921l0.591,0c2.153,0.023 3.691,-1.42 3.691,-3.478c0,-0.26 -0.024,-0.521 -0.071,-0.805l-2.153,-12.444c-0.213,-1.182 -0.828,-2.152 -1.774,-2.72c-0.947,-0.592 -2.106,-0.71 -3.241,-0.355l-2.248,0.71c-0.804,0.236 -1.514,0.709 -2.082,1.324Z" style="fill:#fff;stroke:#fff;stroke-width:0.5px;stroke-linejoin:round;stroke-miterlimit:1.41421;"/><path d="M176.728,101.485l0.332,-34.706l-0.829,0.094l-6.08,0.781c-2.46,0.308 -4.424,2.508 -4.447,5.015c0,0.119 0,0.237 0.023,0.332l1.089,17.317c0.165,2.934 2.46,6.695 4.968,8.186l4.944,2.981Z" style="fill:#fff;stroke:#fff;stroke-width:0.5px;stroke-linejoin:round;stroke-miterlimit:1.41421;"/><path d="M276.115,107.92l0.142,-14.645c-1.349,-2.223 -4.282,-3.028 -6.577,-1.798l-1.183,0.639c-1.372,0.734 -2.2,2.058 -2.2,3.525c0,0.805 0.236,1.633 0.733,2.366l1.159,1.703c1.751,2.603 3.833,6.317 4.353,8.139c0.332,0.236 1.633,0.496 3.573,0.071Z" style="fill:#fff;stroke:#fff;stroke-width:0.5px;stroke-linejoin:round;stroke-miterlimit:1.41421;"/><path d="M275.997,120.86l0.094,-8.942c-0.852,0.922 -1.372,2.129 -1.372,3.43c0,0.426 0.047,0.852 0.142,1.254l1.136,4.258Z" style="fill:#fff;stroke:#fff;stroke-width:0.5px;stroke-linejoin:round;stroke-miterlimit:1.41421;"/><path d="M260.288,88.094c-1.656,-2.413 -4.495,-5.512 -6.435,-6.671c0.142,-0.426 0.804,-1.372 2.366,-2.413l0.804,-0.521c2.247,-1.49 5.725,-1.112 7.594,0.805l4.353,4.495c0.71,0.709 1.088,1.514 1.065,2.318c0,1.041 -0.663,2.011 -1.822,2.626l-1.206,0.639c-2.295,1.23 -5.394,0.662 -6.719,-1.278Z" style="fill:#fff;stroke:#fff;stroke-width:0.5px;stroke-linejoin:round;stroke-miterlimit:1.41421;"/><path d="M231.875,69.168l-3.951,-2.2c-1.538,-0.852 -2.484,-2.508 -2.461,-4.306c0,-0.757 0.19,-1.49 0.545,-2.176l0.378,-0.71c1.207,-2.295 4.069,-3.194 6.364,-2.035l7.239,3.667c1.231,0.615 1.917,1.609 1.917,2.745c0,0.78 -0.355,1.561 -0.994,2.271l-1.325,1.467c-1.822,2.011 -5.347,2.602 -7.712,1.277Z" style="fill:#fff;stroke:#fff;stroke-width:0.5px;stroke-linejoin:round;stroke-miterlimit:1.41421;"/><path d="M220.235,61.74c-0.497,0.142 -1.254,0.236 -1.964,-0.166c-2.176,-1.207 -5.465,-2.366 -7.452,-2.224c-0.402,-0.378 -1.064,-1.94 -1.135,-4.377l-0.048,-1.821c0,-1.065 0.379,-1.94 1.041,-2.413c0.663,-0.473 1.633,-0.568 2.697,-0.213l8.115,2.578c1.632,0.545 2.626,1.822 2.626,3.384c-0.024,0.615 -0.189,1.23 -0.497,1.845l-0.378,0.71c-0.71,1.324 -1.822,2.342 -3.005,2.697Z" style="fill:#fff;stroke:#fff;stroke-width:0.5px;stroke-linejoin:round;stroke-miterlimit:1.41421;"/><path d="M274.175,126.704c0,0.852 -0.284,1.561 -0.852,2.082c-0.591,0.544 -1.419,0.828 -2.413,0.828l-15.851,-0.118c-2.862,0 -5.37,-1.42 -5.701,-2.674c-0.024,-0.118 -0.048,-0.26 -0.024,-0.426c0,-1.419 1.301,-3.879 3.478,-5.512l13.508,-10.125c0.899,-0.686 1.798,-0.923 2.556,-0.663c0.733,0.26 1.301,0.994 1.608,2.082l3.549,13.414c0.095,0.379 0.142,0.757 0.142,1.112Z" style="fill:#fff;stroke:#fff;stroke-width:0.5px;stroke-linejoin:round;stroke-miterlimit:1.41421;"/><path d="M206.513,53.412l0.048,1.798c-0.024,2.579 -2.106,4.945 -4.661,5.276l-4.4,0.544c-1.207,0.165 -2.319,-0.166 -3.17,-0.899c-0.828,-0.734 -1.301,-1.798 -1.301,-3.005l-0.024,-6.435c0,-1.23 0.449,-2.271 1.254,-2.933c0.804,-0.686 1.892,-0.947 3.075,-0.757l4.164,0.662c2.65,0.426 4.945,3.052 5.015,5.749Z" style="fill:#fff;stroke:#fff;stroke-width:0.5px;stroke-linejoin:round;stroke-miterlimit:1.41421;"/><path d="M166.603,64.957c-1.798,0.213 -5.749,1.42 -8.943,2.721c-1.017,0.426 -2.105,0.402 -3.075,-0.071c-1.065,-0.497 -1.846,-1.443 -2.224,-2.65l-2.839,-9.227c-0.142,-0.449 -0.213,-0.899 -0.213,-1.348c0.024,-1.964 1.348,-3.62 3.312,-4.069l10.906,-2.603c1.136,-0.26 2.224,-0.07 3.028,0.545c0.805,0.615 1.254,1.608 1.302,2.791l0.26,8.872c0,0.142 0,0.284 0,0.402c-0.024,3.028 -1.159,4.542 -1.514,4.637Z" style="fill:#fff;stroke:#fff;stroke-width:0.5px;stroke-linejoin:round;stroke-miterlimit:1.41421;"/><path d="M131.069,78.489c-2.863,1.16 -6.246,3.928 -7.736,6.293c-0.261,0.402 -0.663,0.663 -1.231,0.757c-1.088,0.19 -2.531,-0.284 -3.738,-1.254l-5.914,-4.684c-0.97,-0.757 -1.514,-1.774 -1.49,-2.862c0,-1.018 0.473,-1.988 1.324,-2.745l8.635,-7.617c0.899,-0.805 2.011,-1.16 3.123,-1.041c1.112,0.142 2.106,0.757 2.792,1.75l4.637,6.719c0.591,0.875 0.923,1.798 0.923,2.626c0,0.71 -0.237,1.632 -1.325,2.058Z" style="fill:#fff;stroke:#fff;stroke-width:0.5px;stroke-linejoin:round;stroke-miterlimit:1.41421;"/><path d="M224.541,124.717c0.165,2.531 -1.798,4.566 -4.306,4.542l-21.694,-0.166c-2.579,0 -4.661,-2.129 -4.661,-4.708l0.048,-5.441c0.023,-3.075 1.75,-7.594 3.785,-9.889l8.942,-10.031c0.805,-0.899 1.822,-1.372 2.887,-1.348c1.064,0.023 2.058,0.544 2.791,1.49l7.973,9.889c1.94,2.413 3.738,7.074 3.927,10.197l0.308,5.465Z" style="fill:#fff;stroke:#fff;stroke-width:0.5px;stroke-linejoin:round;stroke-miterlimit:1.41421;"/><path d="M96.836,102.62l-0.237,25.764l0.119,0c2.767,0.023 5.914,-2.177 6.813,-4.803l2.531,-7.145c0.213,-0.615 0.308,-1.301 0.332,-2.034c0,-2.342 -1.041,-4.779 -2.603,-6.08l-6.955,-5.702Z" style="fill:#fff;stroke:#fff;stroke-width:0.5px;stroke-linejoin:round;stroke-miterlimit:1.41421;"/><path d="M96.93,94.411l-0.023,2.177c0.26,1.088 0.97,2.034 1.987,2.649l8.115,4.874c1.23,0.733 2.649,0.97 3.738,0.638c0.52,-0.141 1.183,-0.473 1.561,-1.253c1.207,-2.532 3.667,-6.908 5.441,-9.795c0.473,-0.733 0.734,-1.632 0.734,-2.578c0,-1.727 -0.757,-3.36 -2.035,-4.377l-5.938,-4.684c-0.97,-0.757 -2.129,-1.089 -3.288,-0.899c-1.16,0.165 -2.177,0.828 -2.839,1.845l-6.837,10.078c-0.284,0.402 -0.497,0.852 -0.616,1.325Z" style="fill:#fff;stroke:#fff;stroke-width:0.5px;stroke-linejoin:round;stroke-miterlimit:1.41421;"/><path d="M289.806,131.355c0.253,0.618 7.913,-1.864 9.857,-2.437c1.051,-0.309 13.699,-8.411 15.079,-10.007c1.33,-1.523 1.822,-2.203 1.621,-3.358c-0.03,-0.165 -0.069,-0.306 -0.13,-0.423c-0.248,-0.508 -0.803,-1.001 -2.733,0.484c-0.621,0.477 -7.56,5.336 -12.975,7.635c-3.7,1.6 -7.981,2.498 -11.494,3.02c-0.01,1.13 -0.229,2.107 -0.627,2.883c0.359,0.366 0.688,0.808 0.975,1.317c0.155,0.277 0.298,0.572 0.427,0.886Z" style="fill:#fff;stroke:#fff;stroke-width:0.06px;"/></g><g><path id="f0_a" d="M149.737,102.721c-0.049,0.075 -0.137,0.139 -0.258,0.182c-0.121,0.042 -0.234,0.05 -0.329,0.028l-14.793,-4.098c-0.211,-0.057 -0.373,-0.189 -0.443,-0.369c-0.075,-0.17 -0.055,-0.345 0.05,-0.506l1.975,-3.037c0.049,-0.076 0.137,-0.14 0.264,-0.192c0.127,-0.052 0.251,-0.052 0.346,-0.031l6.614,1.904l-4.026,-5.956c-0.057,-0.078 -0.097,-0.185 -0.107,-0.313c0.012,-0.113 0.041,-0.229 0.084,-0.295l1.279,-1.969c0.05,-0.075 0.138,-0.139 0.237,-0.196c0.11,-0.05 0.234,-0.05 0.322,-0.019l7.007,1.324l-4.371,-5.305c-0.058,-0.078 -0.109,-0.192 -0.119,-0.32c-0.003,-0.137 0.019,-0.243 0.075,-0.328l1.999,-3.076c0.105,-0.161 0.256,-0.251 0.443,-0.251c0.186,0 0.373,0.095 0.51,0.265l9.748,11.858c0.058,0.078 0.097,0.184 0.107,0.312c0.01,0.128 -0.018,0.244 -0.061,0.31l-1.083,1.665c-0.049,0.076 -0.138,0.14 -0.224,0.178c-0.104,0.04 -0.217,0.047 -0.324,0.045l-9.266,-1.716l5.402,7.658c0.058,0.078 0.086,0.178 0.096,0.305c-0.011,0.114 -0.034,0.22 -0.083,0.296l-1.071,1.647Z" style="fill-rule:nonzero;stroke:#000;stroke-width:0.5px;stroke-linejoin:round;stroke-miterlimit:1.41421;"/><path id="f0_a1" serif:id="f0_a" d="M192.275,98.067c-0.058,0.089 -0.161,0.165 -0.3,0.217c-0.14,0.051 -0.271,0.062 -0.38,0.038l-16.996,-4.549c-0.243,-0.062 -0.428,-0.214 -0.505,-0.423c-0.085,-0.197 -0.059,-0.402 0.064,-0.591l2.32,-3.572c0.057,-0.089 0.16,-0.165 0.307,-0.228c0.147,-0.062 0.29,-0.064 0.399,-0.041l7.598,2.117l-4.557,-6.882c-0.066,-0.09 -0.11,-0.214 -0.119,-0.363c0.015,-0.132 0.05,-0.268 0.1,-0.346l1.503,-2.314c0.058,-0.089 0.16,-0.165 0.275,-0.233c0.128,-0.06 0.271,-0.062 0.373,-0.027l8.058,1.435l-4.964,-6.119c-0.066,-0.09 -0.122,-0.221 -0.132,-0.37c-0.003,-0.16 0.025,-0.284 0.09,-0.384l2.348,-3.617c0.123,-0.19 0.299,-0.297 0.514,-0.3c0.215,-0.003 0.429,0.105 0.585,0.301l11.07,13.675c0.066,0.09 0.11,0.213 0.12,0.362c0.01,0.149 -0.025,0.284 -0.076,0.362l-1.271,1.959c-0.058,0.089 -0.161,0.165 -0.261,0.21c-0.12,0.049 -0.251,0.059 -0.374,0.058l-10.658,-1.857l6.12,8.846c0.065,0.09 0.097,0.205 0.107,0.354c-0.016,0.132 -0.043,0.257 -0.101,0.346l-1.257,1.936Z" style="fill-rule:nonzero;stroke:#000;stroke-width:0.5px;stroke-linejoin:round;stroke-miterlimit:1.41421;"/><path id="f0_a2" serif:id="f0_a" d="M232.514,97.268c-0.048,0.074 -0.131,0.138 -0.244,0.183c-0.112,0.045 -0.216,0.056 -0.302,0.039l-13.431,-3.342c-0.192,-0.046 -0.336,-0.166 -0.393,-0.334c-0.063,-0.159 -0.038,-0.326 0.063,-0.483l1.921,-2.96c0.048,-0.073 0.131,-0.137 0.249,-0.191c0.119,-0.055 0.233,-0.059 0.319,-0.043l6.002,1.563l-3.483,-5.51c-0.05,-0.072 -0.082,-0.171 -0.087,-0.292c0.015,-0.109 0.045,-0.22 0.087,-0.284l1.245,-1.918c0.048,-0.074 0.131,-0.138 0.224,-0.196c0.102,-0.051 0.216,-0.056 0.296,-0.03l6.383,0.997l-3.822,-4.878c-0.051,-0.072 -0.093,-0.178 -0.098,-0.299c0.002,-0.13 0.026,-0.232 0.08,-0.315l1.944,-2.997c0.102,-0.157 0.245,-0.248 0.415,-0.255c0.171,-0.007 0.339,0.076 0.46,0.233l8.524,10.903c0.05,0.072 0.083,0.172 0.087,0.293c0.005,0.121 -0.025,0.232 -0.067,0.296l-1.053,1.623c-0.048,0.074 -0.131,0.138 -0.212,0.177c-0.097,0.042 -0.201,0.053 -0.299,0.055l-8.443,-1.285l4.685,7.076c0.051,0.072 0.073,0.165 0.078,0.286c-0.015,0.108 -0.039,0.21 -0.087,0.284l-1.041,1.604Z" style="fill-rule:nonzero;stroke:#000;stroke-width:0.5px;stroke-linejoin:round;stroke-miterlimit:1.41421;"/></g></g><g><g><path id="f0_5" d="M274.447,187.186c-0.631,0 -1.158,-0.218 -1.684,-0.612c-0.473,-0.393 -0.684,-0.875 -0.684,-1.399l0,-48.371c0,-0.525 0.211,-1.006 0.684,-1.4c0.526,-0.393 1.053,-0.612 1.684,-0.612l46.889,0c0.631,0 1.21,0.219 1.684,0.612c0.473,0.394 0.736,0.875 0.736,1.4l0,9.753c0,0.612 -0.263,1.093 -0.736,1.487c-0.474,0.393 -1.053,0.568 -1.684,0.568l-26.997,0l0,5.38l23.05,0c0.684,0 1.21,0.175 1.684,0.568c0.526,0.438 0.737,0.875 0.737,1.443l0,9.622c0,0.569 -0.211,1.05 -0.737,1.443c-0.474,0.394 -1,0.613 -1.684,0.613l-23.05,0.043l0,5.642l29.154,0c0.737,0 1.316,0.175 1.79,0.569c0.421,0.437 0.631,0.874 0.631,1.487l0,9.753c0,0.524 -0.21,1.006 -0.631,1.399c-0.474,0.394 -1.053,0.612 -1.79,0.612l-49.046,0Z" style="fill:#fff;fill-rule:nonzero;stroke:#fff;stroke-width:0.5px;stroke-linejoin:round;stroke-miterlimit:1.41421;"/><path id="f0_7" d="M238.63,156.66c5.789,0 8.631,-1.619 8.631,-4.899c0,-1.662 -0.79,-2.974 -2.368,-3.936c-1.369,-0.7 -3.158,-1.093 -5.368,-1.093c-0.421,0 -0.895,0 -1.421,0.043l-4.631,0.263l0,9.49l4.105,0.132c0.315,0 0.684,0 1.052,0Zm-24.628,30.526c-0.632,0 -1.21,-0.218 -1.684,-0.612c-0.579,-0.393 -0.789,-0.875 -0.789,-1.399l0,-48.371c0,-0.525 0.21,-1.006 0.684,-1.4c0.526,-0.393 1.052,-0.612 1.684,-0.612l23.733,0c5.052,0 9.578,0.262 13.42,0.875c3.894,0.612 7.104,1.618 9.683,2.93c2.578,1.356 4.473,3.105 5.841,5.161c1.316,2.143 1.947,4.679 1.947,7.697c0,5.948 -2.263,10.278 -6.789,13.033c-4.367,2.712 -10.84,4.067 -19.313,4.067c-0.21,0 -0.368,0 -0.579,0l-8.314,-0.087l0,16.707c0,0.524 -0.211,1.006 -0.737,1.399c-0.474,0.394 -1,0.612 -1.737,0.612l-17.05,0Z" style="fill:#fff;fill-rule:nonzero;stroke:#fff;stroke-width:0.5px;stroke-linejoin:round;stroke-miterlimit:1.41421;"/><path id="f0_6" d="M155.308,187.186c-0.737,0 -1.263,-0.218 -1.789,-0.612c-0.474,-0.393 -0.684,-0.875 -0.684,-1.399l0,-48.371c0,-0.525 0.21,-1.006 0.684,-1.4c0.421,-0.393 1,-0.612 1.684,-0.612l17.471,0c0.632,0 1.21,0.219 1.789,0.612c0.474,0.394 0.684,0.875 0.684,1.4l-0.052,34.9l30.364,0c0.684,0 1.211,0.175 1.789,0.525c0.474,0.394 0.737,0.875 0.737,1.443l0,11.503c0,0.524 -0.263,1.006 -0.737,1.399c-0.473,0.394 -1.052,0.612 -1.684,0.612l-50.256,0Z" style="fill:#fff;fill-rule:nonzero;stroke:#fff;stroke-width:0.5px;stroke-linejoin:round;stroke-miterlimit:1.41421;"/><path id="f0_9" d="M116.542,187.93c-10.683,0 -18.682,-1.137 -23.891,-3.543c-5.684,-2.667 -8.578,-7.478 -8.578,-14.388l0,-33.239c0,-0.568 0.21,-1.006 0.684,-1.443c0.526,-0.394 1.052,-0.569 1.789,-0.569l16.472,0c0.736,0 1.315,0.175 1.789,0.569c0.473,0.437 0.737,0.875 0.737,1.443l0,27.509c0,3.062 0.842,5.292 2.631,6.561c1.684,1.268 4.578,1.924 8.683,1.924c3.841,0 6.683,-0.656 8.367,-2.056c1.684,-1.355 2.579,-3.542 2.579,-6.647l0,-27.291c0,-0.568 0.21,-1.006 0.684,-1.443c0.526,-0.394 1.052,-0.569 1.789,-0.569l16.577,0c0.631,0 1.21,0.175 1.684,0.569c0.473,0.437 0.737,0.875 0.737,1.443l0,33.938c0,6.473 -3,11.022 -8.947,13.689c-5.473,2.406 -13.419,3.543 -23.786,3.543Z" style="fill:#fff;fill-rule:nonzero;stroke:#fff;stroke-width:0.5px;stroke-linejoin:round;stroke-miterlimit:1.41421;"/><path id="f0_8" d="M41.985,187.186c-0.632,0 -1.211,-0.218 -1.684,-0.612c-0.474,-0.393 -0.737,-0.875 -0.737,-1.399l0,-37.219l-16.629,0c-0.737,0 -1.263,-0.175 -1.684,-0.612c-0.474,-0.394 -0.737,-0.831 -0.737,-1.443l0,-9.097c0,-0.525 0.263,-1.006 0.737,-1.4c0.421,-0.393 0.947,-0.612 1.684,-0.612l55.624,0c0.737,0 1.316,0.219 1.789,0.612c0.474,0.394 0.737,0.875 0.737,1.4l0,9.097c0,0.612 -0.263,1.049 -0.737,1.443c-0.473,0.437 -1.052,0.612 -1.789,0.612l-16.524,0l0,37.219c0,0.524 -0.263,1.006 -0.684,1.399c-0.474,0.394 -1,0.612 -1.737,0.612l-17.629,0Z" style="fill:#fff;fill-rule:nonzero;stroke:#fff;stroke-width:0.5px;stroke-linejoin:round;stroke-miterlimit:1.41421;"/></g><g><path id="f0_3" d="M291.872,174.805c0,0.147 -0.067,0.293 -0.187,0.387c-0.121,0.12 -0.267,0.187 -0.428,0.187l-9.974,0c0.227,0.387 0.427,0.774 0.574,1.161c0.147,0.388 0.281,0.815 0.427,1.282c0.027,0.067 0.027,0.134 0.027,0.201c0,0.106 -0.04,0.227 -0.133,0.32c-0.121,0.134 -0.281,0.214 -0.508,0.214l-3.204,0c-0.134,0 -0.281,-0.04 -0.388,-0.134c-0.093,-0.107 -0.187,-0.213 -0.2,-0.334c-0.107,-0.507 -0.227,-0.934 -0.347,-1.322c-0.107,-0.373 -0.227,-0.667 -0.347,-0.934c-0.107,-0.227 -0.281,-0.494 -0.508,-0.761c-0.227,-0.267 -0.494,-0.548 -0.801,-0.855l0,-3.084c0,-0.161 0.067,-0.307 0.187,-0.401c0.12,-0.107 0.267,-0.173 0.427,-0.173l14.768,0c0.161,0 0.307,0.066 0.428,0.173c0.12,0.094 0.187,0.24 0.187,0.401l0,3.672Z" style="fill-rule:nonzero;"/><g><path id="f0_2" d="M287.786,162.844c0,-0.761 -0.174,-1.215 -0.548,-1.335c-0.587,-0.174 -1.736,-0.281 -3.378,-0.281c-1.656,0 -2.777,0.107 -3.391,0.281c-0.374,0.12 -0.548,0.574 -0.548,1.335c0,0.788 0.174,1.215 0.548,1.322c0.574,0.187 1.695,0.267 3.391,0.267c0.828,0 1.522,-0.027 2.096,-0.08c0.575,-0.04 1.002,-0.107 1.282,-0.187c0.374,-0.12 0.548,-0.574 0.548,-1.322Zm4.313,0c0,2.417 -0.681,4.179 -2.07,5.261c-0.668,0.507 -1.509,0.894 -2.537,1.161c-1.028,0.267 -2.23,0.401 -3.632,0.401c-2.804,0 -4.887,-0.521 -6.209,-1.562c-1.389,-1.082 -2.083,-2.844 -2.083,-5.261c0,-2.43 0.694,-4.193 2.11,-5.274l-0.027,0c1.322,-1.042 3.392,-1.563 6.209,-1.563c2.791,0 4.874,0.521 6.196,1.563l-0.027,0c1.389,1.068 2.07,2.817 2.07,5.274Z" style="fill-rule:nonzero;stroke:#000;stroke-width:0.5px;stroke-linejoin:round;stroke-miterlimit:1.41421;"/><path id="f0_4" d="M291.872,154.5c0,0.16 -0.067,0.293 -0.187,0.427c-0.121,0.12 -0.267,0.174 -0.428,0.174l-1.909,0c-0.067,0 -0.147,-0.014 -0.254,-0.081c-0.093,-0.04 -0.16,-0.08 -0.2,-0.12l-5.288,-5.688l0,0.013c-0.307,-0.307 -0.734,-0.667 -1.241,-1.054c-0.348,-0.267 -0.708,-0.414 -1.055,-0.414c-0.428,0 -0.775,0.147 -1.028,0.414c-0.241,0.28 -0.361,0.667 -0.361,1.161c0,0.801 0.28,1.616 0.828,2.43c0.601,0.855 1.081,1.442 1.495,1.75c0.121,0.08 0.201,0.187 0.227,0.307c0.014,0.066 0.027,0.133 0.027,0.2c0,0.067 -0.013,0.12 -0.027,0.174c-0.04,0.093 -0.12,0.2 -0.227,0.28c-0.106,0.08 -0.227,0.12 -0.373,0.12l-3.766,0c-0.067,0 -0.16,-0.013 -0.267,-0.053c-0.107,-0.04 -0.16,-0.094 -0.187,-0.134c-0.187,-0.173 -0.387,-0.48 -0.614,-0.868c-0.2,-0.387 -0.427,-0.894 -0.694,-1.509c-0.508,-1.255 -0.748,-2.51 -0.748,-3.792c0,-1.735 0.387,-3.151 1.162,-4.192c0.814,-1.135 1.962,-1.709 3.404,-1.709c1.322,0 2.591,0.494 3.779,1.495c0.561,0.467 1.055,0.895 1.469,1.255c0.427,0.387 0.774,0.721 1.041,0.988l-0.026,0c0.187,0.16 0.334,0.321 0.467,0.468c0.147,0.16 0.307,0.32 0.454,0.467l0,-4.179c0,-0.174 0.053,-0.308 0.187,-0.428c0.12,-0.133 0.254,-0.187 0.441,-0.187l3.284,0c0.161,0 0.307,0.054 0.428,0.187c0.12,0.12 0.187,0.254 0.187,0.428l0,11.67Z" style="fill-rule:nonzero;stroke:#000;stroke-width:0.5px;stroke-linejoin:round;stroke-miterlimit:1.41421;"/></g></g></g><text x="-0.396px" y="207.648px" style="font-family:'BorisBlackBloxx';font-weight:500;font-size:18px;fill:#fff;">NARR<tspan x="67.554px 84.852px 101.34px 120.312px " y="207.648px 207.648px 207.648px 207.648px ">AGAN</tspan>SETT COUNCIL, BS<tspan x="327.852px " y="207.648px ">A</tspan></text></svg>