<?xml version="1.0" encoding="UTF-8" standalone="no"?><!DOCTYPE svg PUBLIC "-//W3C//DTD SVG 1.1//EN" "http://www.w3.org/Graphics/SVG/1.1/DTD/svg11.dtd"><svg width="100%" height="100%" viewBox="0 0 287 132" version="1.1" xmlns="http://www.w3.org/2000/svg" xmlns:xlink="http://www.w3.org/1999/xlink" xml:space="preserve" xmlns:serif="http://www.serif.com/" style="fill-rule:evenodd;clip-rule:evenodd;stroke-miterlimit:2;"><g><g><path d="M53.641,114.26c-0.284,0 -1.538,0.118 -1.538,0.118c-0.97,-0.047 -1.821,-0.355 -2.436,-0.899c-0.568,-0.52 -0.899,-1.206 -0.923,-2.011c0,-0.189 0,-0.402 0.047,-0.591c0.331,-2.342 2.461,-3.975 4.755,-3.643c2.295,0.331 4.283,2.01 4.33,3.667l0,0.023c0.023,1.301 -1.68,2.886 -4.235,3.336Z" style="fill:#fff;stroke:#fff;stroke-width:0.08px;"/><path d="M34.502,111.871c-0.331,-0.497 -0.497,-1.018 -0.521,-1.515c-0.023,-1.324 1.065,-2.46 2.839,-2.957l5.82,-1.609c1.136,-0.331 2.153,-0.212 2.839,0.308c0.781,0.568 1.136,1.632 0.994,2.957l-0.071,0.686c-0.331,2.839 -2.532,5.442 -4.803,5.678c-2.413,0.237 -5.654,-1.372 -7.097,-3.548Z" style="fill:#fff;stroke:#fff;stroke-width:0.08px;"/><path d="M34.171,129.024l-0.095,-1.662c-0.024,-0.733 0.45,-1.4 1.349,-1.884c0.899,-0.497 2.129,-0.733 3.454,-0.694l14.052,0.458c2.792,0.092 5.016,1.413 4.874,2.957c-0.041,0.66 -0.096,1.668 -1.26,1.799c-1.625,0.183 -20.343,0.036 -21.97,0.038c-0.619,0.001 -0.382,-0.656 -0.404,-1.012Z" style="fill:#fff;stroke:#fff;stroke-width:0.06px;"/><path d="M31.994,130.14c-0.43,0.009 -7.88,0.464 -7.975,0.114c-0.271,-0.995 -0.465,-2.197 -0.518,-3.353c-0.024,-0.673 0,-1.304 0.071,-1.806c0.071,-0.587 0.497,-1.06 1.254,-1.404c0.899,-0.402 2.129,-0.545 3.383,-0.387c2.46,0.301 4.424,2.207 4.164,4.17l-0.379,2.666Z" style="fill:#fff;stroke:#fff;stroke-width:0.06px;"/><path d="M57.071,121.878c-0.899,0.804 -2.342,1.135 -3.856,0.946l-9.416,-1.277c-3.193,-0.426 -5.323,-1.656 -5.606,-2.224c0.236,-0.426 1.774,-1.372 4.707,-1.68c0,0 9.842,-0.923 10.173,-0.946c0.261,-0.024 0.497,-0.071 0.757,-0.095c1.231,-0.071 2.342,0.426 3.147,1.136c0.449,0.378 0.993,1.064 1.017,2.082l0,0.023c0.024,0.781 -0.307,1.491 -0.923,2.035Z" style="fill:#fff;stroke:#fff;stroke-width:0.08px;"/><path d="M22.626,111.279l2.034,-0.568c2.413,-0.662 3.927,-0.568 4.495,-0.402c-0.331,0.663 -1.632,2.106 -3.714,3.265c-2.153,1.183 -4.708,0.97 -5.654,0.024c-0.095,-0.095 -0.213,-0.237 -0.213,-0.355c-0.024,-0.355 0.733,-1.349 3.052,-1.964Z" style="fill:#fff;stroke:#fff;stroke-width:0.08px;"/><path d="M20.426,121.47l0.032,8.936l-3.249,-0.008l0.188,-13.008c0.024,-1.396 0.379,-2.058 0.592,-2.278c0.023,0.036 0.071,0.055 0.142,0.11c1.064,0.827 2.295,3.584 2.295,6.248Z" style="fill:#fff;stroke:#fff;stroke-width:0.07px;"/><path d="M14.865,130.408l-6.775,0.083l-0.274,-10.517c-0.047,-2.289 1.774,-4.744 3.998,-5.372c0.521,-0.148 1.301,-0.24 1.987,0.129c0.805,0.425 1.278,1.348 1.254,2.511l-0.19,13.166Z" style="fill:#fff;stroke:#fff;stroke-width:0.07px;"/><path d="M5.497,121.858l0.254,8.757c0,0 -3.793,-0.052 -5.316,-0.166l-0.355,-4.014c0,-0.066 0,-0.132 0,-0.182c-0.095,-2.14 1.348,-4.743 3.217,-5.821c0.544,-0.316 1.041,-0.465 1.349,-0.365c0.378,0.132 0.804,0.713 0.851,1.741l0,0.05Z" style="fill:#fff;stroke:#fff;stroke-width:0.07px;"/><path d="M22.649,120.482c0,-0.568 0.923,-2.058 3.502,-3.572l2.436,-1.42c2.721,-1.609 4.33,-1.585 4.661,-1.396l0,0.237c-0.118,2.034 -1.845,4.897 -3.643,6.104c-1.751,1.159 -4.85,1.301 -6.672,0.331c-0.26,-0.142 -0.26,-0.237 -0.284,-0.284Z" style="fill:#fff;stroke:#fff;stroke-width:0.08px;"/><path d="M220.381,59.965c0,-0.473 0.119,-0.899 0.308,-1.206c0.237,-0.355 0.591,-0.568 1.088,-0.615c1.112,-0.119 2.555,0.591 3.785,1.798l16.939,16.868c1.538,1.537 2.082,2.933 2.059,3.643c0,0.402 -0.142,0.473 -0.213,0.52c-0.805,0.474 -3.383,-0.142 -5.749,-2.105l-1.703,-1.751c-0.545,-0.544 -1.16,-1.017 -1.822,-1.396l-12.184,-10.906c-1.538,-1.396 -2.531,-3.288 -2.508,-4.85Z" style="fill:#fff;stroke:#fff;stroke-width:0.08px;"/><path d="M224.734,51.188l26.757,22.333c0.213,0.166 0.426,0.331 0.663,0.497c0.615,0.686 0.946,1.372 0.946,1.987c0,0.615 -0.402,1.089 -1.159,1.42c-2.129,0.851 -5.702,-0.19 -7.807,-2.271l-16.915,-16.868c-2.248,-2.224 -4.472,-6.199 -4.85,-8.659c-0.071,-0.45 -0.024,-0.805 0,-0.947c0.709,0.947 1.514,1.798 2.365,2.508Z" style="fill:#fff;stroke:#fff;stroke-width:0.08px;"/><path d="M258.849,66.85c0,0.686 -0.118,1.348 -0.307,1.94l-0.568,1.561c-0.402,1.183 -1.136,1.987 -2.059,2.224c-0.922,0.26 -1.963,-0.047 -2.933,-0.852l-26.757,-22.333c-2.319,-1.94 -4.282,-5.37 -4.258,-7.499c0.023,-0.544 0.165,-0.876 0.425,-1.018c0.521,-0.26 1.68,-0.142 3.147,0.805l30.282,19.257c1.822,1.159 3.052,3.549 3.028,5.915Z" style="fill:#fff;stroke:#fff;stroke-width:0.08px;"/><path d="M262.587,56.535c0,0.426 -0.071,0.828 -0.213,1.23c-0.307,0.899 -0.923,1.538 -1.751,1.822c-1.041,0.378 -2.342,0.142 -3.548,-0.639l-30.282,-19.258c-1.917,-1.206 -3.194,-2.389 -3.833,-3.122c0.875,0.094 2.319,0.449 4.117,1.23l32.009,13.792c2.082,0.899 3.525,2.934 3.501,4.945Z" style="fill:#fff;stroke:#fff;stroke-width:0.08px;"/><path d="M227.857,35.574c-1.916,-0.804 -3.17,-2.839 -3.146,-5.015c0,-0.616 0.094,-1.207 0.307,-1.775l1.325,-3.69c0.521,-1.467 1.42,-2.532 2.413,-2.816c0.592,-0.165 1.16,-0.047 1.68,0.355c1.49,1.112 2.602,4.046 2.579,6.79c0,0.402 -0.024,0.781 -0.071,1.159l-0.284,2.153c-0.189,1.301 -0.805,2.295 -1.727,2.815c-0.876,0.497 -1.964,0.521 -3.076,0.024Z" style="fill:#fff;stroke:#fff;stroke-width:0.08px;"/><path d="M247.612,28.879l-0.095,10.693c0,1.278 -0.426,2.248 -1.183,2.745c-0.733,0.496 -1.751,0.496 -2.839,0.023c-2.271,-0.993 -3.998,-3.738 -3.974,-6.411c0,-0.308 0.023,-0.615 0.071,-0.899l0.946,-5.749c0.52,-3.052 2.579,-5.252 4.14,-5.299c0.52,-0.024 1.017,0.189 1.467,0.638c0.922,0.899 1.49,2.532 1.467,4.259Z" style="fill:#fff;stroke:#fff;stroke-width:0.08px;"/><path d="M264.196,41.512l-0.048,5.229c0,1.277 -0.425,2.271 -1.182,2.767c-0.734,0.474 -1.751,0.474 -2.839,0c-2.295,-0.993 -3.999,-3.761 -3.999,-6.434c0,-0.308 0.024,-0.616 0.071,-0.899l0.97,-5.939c0.237,-1.443 0.876,-2.531 1.68,-2.909c0.544,-0.237 1.112,-0.166 1.751,0.236c1.963,1.278 3.619,4.897 3.596,7.925l0,0.024Z" style="fill:#fff;stroke:#fff;stroke-width:0.08px;"/><path d="M81.699,73.024c-1.112,0.994 -1.869,2.224 -2.2,3.573c-0.923,0.638 -1.845,0.851 -2.626,0.591c-0.852,-0.284 -1.514,-1.112 -1.845,-2.318l-1.538,-5.655c-0.118,-0.425 -0.166,-0.875 -0.166,-1.301c0.024,-2.129 1.562,-3.856 3.738,-4.187l12.634,-1.869c3.099,-0.473 5.37,0.047 5.819,0.473c-0.023,0.26 -0.212,0.71 -0.544,1.254c-1.679,0.024 -3.288,0.639 -4.637,1.822l-8.635,7.617Z" style="fill:#fff;stroke:#fff;stroke-width:0.08px;"/><path d="M95.563,52.726c0,0.284 -0.071,0.591 -0.237,0.899c-0.993,2.011 -4.377,4.093 -7.381,4.542l-12.633,1.893c-1.065,0.142 -1.917,0 -2.437,-0.45c-0.355,-0.307 -0.521,-0.78 -0.521,-1.372c0,-0.449 0.119,-0.946 0.332,-1.49l1.514,-3.856c1.041,-2.697 4.353,-4.614 7.215,-4.212l10.741,1.491c2.011,0.26 3.407,1.325 3.407,2.555Z" style="fill:#fff;stroke:#fff;stroke-width:0.08px;"/><path d="M100.673,43.239c0,0.45 -0.142,0.923 -0.426,1.396c-1.278,2.153 -4.826,3.62 -7.76,3.217l-10.764,-1.49c-0.781,-0.118 -2.579,-0.544 -2.579,-2.224c0.024,-0.615 0.26,-1.277 0.734,-1.963l0.449,-0.663c1.656,-2.413 5.489,-3.927 8.351,-3.241l8.99,2.082c1.846,0.426 3.029,1.561 3.005,2.886Z" style="fill:#fff;stroke:#fff;stroke-width:0.08px;"/><path d="M102.66,25.78c0.71,0.473 1.065,1.466 0.97,2.72l-0.378,5.82c-0.071,1.301 -0.639,2.413 -1.586,3.123c-0.969,0.71 -2.176,0.923 -3.454,0.639l-8.99,-2.106c-3.335,-0.757 -5.725,-1.987 -6.316,-2.555c0.26,-0.473 1.609,-1.609 4.022,-2.555l12.917,-5.134c1.135,-0.425 2.129,-0.425 2.815,0.048Z" style="fill:#fff;stroke:#fff;stroke-width:0.08px;"/><path d="M100.578,19.984c0.331,0.283 0.757,0.757 0.757,1.301c0,0.851 -0.899,1.703 -2.342,2.271l-12.941,5.134c-2.815,1.112 -6.719,0.899 -8.54,-0.45c-0.331,-0.236 -0.71,-0.639 -0.71,-1.088c0,-0.592 0.615,-1.514 2.319,-2.248l13.035,-5.559c2.768,-1.183 6.601,-0.899 8.422,0.639Z" style="fill:#fff;stroke:#fff;stroke-width:0.08px;"/><path d="M76.305,23.201c-0.449,0.237 -0.686,0.213 -0.709,0.189c-0.095,-0.047 -0.308,-0.378 -0.308,-1.254c0,-0.496 0.071,-1.041 0.213,-1.656l2.224,-9.392c0.686,-2.839 1.75,-4.518 2.271,-5.015c0.166,0.331 0.378,0.993 0.497,2.034l-0.497,7.784c-0.024,0.307 -0.024,0.615 -0.024,0.899c-0.473,2.72 -2.058,5.583 -3.667,6.411Z" style="fill:#fff;stroke:#fff;stroke-width:0.08px;"/><path d="M86.786,5.505l0.189,5.134c0.071,1.514 0.426,2.839 1.017,3.856c-0.662,1.893 -1.845,3.572 -3.217,4.282c-0.45,0.237 -1.088,0.449 -1.585,0.166c-0.568,-0.355 -0.876,-1.278 -0.876,-2.485c0,-0.141 0,-0.283 0.024,-0.425l0.639,-10.268c0.213,-3.004 1.703,-5.417 2.91,-5.583c0.26,-0.024 0.544,0.095 0.851,0.331c0.19,0.166 0.379,0.402 0.545,0.639c-0.332,1.112 -0.497,2.389 -0.497,3.667c0,0.213 0,0.449 0,0.686Z" style="fill:#fff;stroke:#fff;stroke-width:0.08px;"/><path d="M89.317,10.544l-0.189,-5.11c0,-0.213 0,-0.402 0,-0.615c0.023,-3.028 0.993,-4.637 1.348,-4.732c0.45,0.024 1.893,1.704 2.532,4.874l0.544,2.744c0.118,0.592 0.189,1.183 0.189,1.798c-0.024,2.177 -0.875,4.14 -2.034,4.637c-0.379,0.142 -0.71,0.142 -1.018,-0.071c-0.591,-0.355 -1.301,-1.514 -1.372,-3.525Z" style="fill:#fff;stroke:#fff;stroke-width:0.08px;"/><path d="M112.999,128.715l0.165,-18.311l-21.812,-7.287c-2.508,-0.828 -5.584,0.473 -6.719,2.863l-5.749,11.923l-1.136,3.241c0,0.142 -0.023,0.284 -0.023,0.426c0,1.798 0.804,3.407 2.105,4.211c2.437,1.467 7.145,2.745 10.291,2.768l22.878,0.166Z" style="fill:#fff;stroke:#fff;stroke-width:0.5px;stroke-linejoin:round;stroke-miterlimit:1.41421;"/><path d="M113.164,110.404l-0.165,18.311l4.802,0.024c2.579,0.023 4.684,-2.059 4.708,-4.637l0.047,-5.465c0,-2.768 -2.2,-5.844 -4.826,-6.719l-4.566,-1.514Z" style="fill:#fff;stroke:#fff;stroke-width:0.5px;stroke-linejoin:round;stroke-miterlimit:1.41421;"/><path d="M146.758,105.081l-0.213,23.87l9.558,0.071c2.579,0 4.708,-2.081 4.732,-4.66l0.023,-5.441c0.024,-2.91 -2.058,-6.601 -4.542,-8.091l-9.558,-5.749Z" style="fill:#fff;stroke:#fff;stroke-width:0.5px;stroke-linejoin:round;stroke-miterlimit:1.41421;"/><path d="M146.545,128.951l0.213,-23.87l-6.506,-3.88c-2.247,-1.349 -5.441,-0.71 -6.979,1.396l-4.187,5.701c-1.822,2.508 -3.407,7.263 -3.43,10.362l-0.024,5.465c-0.024,2.579 2.058,4.685 4.637,4.708l16.276,0.118Z" style="fill:#fff;stroke:#fff;stroke-width:0.5px;stroke-linejoin:round;stroke-miterlimit:1.41421;"/><path d="M213.734,129.283l0.094,-11.9l-3.004,-11.9c-0.261,-1.041 -0.757,-1.751 -1.372,-1.94c-0.616,-0.189 -1.42,0.118 -2.201,0.852l-6.103,5.512c-2.059,1.845 -3.738,5.749 -3.762,8.682c0,0.166 0,0.332 0.024,0.473l0.307,5.489c0.142,2.579 2.461,4.779 5.063,4.803l9.865,0.071c0.379,0 0.757,-0.048 1.089,-0.142Z" style="fill:#fff;stroke:#fff;stroke-width:0.5px;stroke-linejoin:round;stroke-miterlimit:1.41421;"/><path d="M213.828,117.383l-0.094,11.9c1.348,-0.332 2.223,-1.396 2.247,-2.863c0,-0.331 -0.047,-0.71 -0.142,-1.065l-1.916,-7.641l-0.095,-0.331Z" style="fill:#fff;stroke:#fff;stroke-width:0.5px;stroke-linejoin:round;stroke-miterlimit:1.41421;"/><path d="M113.543,107.305l0.284,-30.282l-0.757,0.307l-9.274,3.762c-2.863,1.183 -6.695,4.4 -8.352,7.026l-4.542,7.287c-0.402,0.638 -0.615,1.301 -0.615,1.963c0,1.372 0.899,2.484 2.413,2.981l20.843,6.956Z" style="fill:#fff;stroke:#fff;stroke-width:0.5px;stroke-linejoin:round;stroke-miterlimit:1.41421;"/><path d="M113.827,77.023l-0.284,30.282l5.536,1.845c2.626,0.875 6.222,-0.26 7.854,-2.508l4.187,-5.701c1.775,-2.437 3.171,-7.121 2.981,-10.244l-1.088,-17.318c-0.071,-1.135 -0.497,-2.011 -1.23,-2.484c-0.734,-0.449 -1.727,-0.473 -2.792,-0.024l-14.573,5.915l-0.591,0.237Z" style="fill:#fff;stroke:#fff;stroke-width:0.5px;stroke-linejoin:round;stroke-miterlimit:1.41421;"/><path d="M147.113,66.779l-0.331,34.706l11.143,6.671c2.295,1.372 5.749,0.852 7.523,-1.159l8.943,-10.055c2.058,-2.318 4.116,-6.908 4.447,-9.983l2.295,-20.322c0.142,-1.23 -0.213,-2.295 -0.97,-2.981c-0.686,-0.592 -1.68,-0.852 -2.768,-0.734l-27.325,3.478l-2.957,0.379Z" style="fill:#fff;stroke:#fff;stroke-width:0.5px;stroke-linejoin:round;stroke-miterlimit:1.41421;"/><path d="M146.782,101.485l0.331,-34.706l-0.828,0.094l-6.08,0.781c-2.46,0.308 -4.424,2.508 -4.448,5.015c0,0.119 0,0.237 0.024,0.332l1.088,17.317c0.166,2.934 2.461,6.695 4.968,8.186l4.945,2.981Z" style="fill:#fff;stroke:#fff;stroke-width:0.5px;stroke-linejoin:round;stroke-miterlimit:1.41421;"/><path d="M214.065,93.678l0.118,-14.1l-0.189,-0.095l-2.697,-1.514l-10.883,-6.08l-2.129,-1.183l-10.22,-5.702c-0.97,-0.544 -1.893,-0.662 -2.579,-0.307c-0.686,0.355 -1.135,1.159 -1.254,2.271l-2.295,20.322c-0.023,0.284 -0.047,0.591 -0.047,0.923c-0.024,3.028 1.23,6.884 2.934,8.99l7.949,9.889c0.78,0.946 1.845,1.537 3.052,1.632c1.183,0.095 2.318,-0.308 3.241,-1.136l6.08,-5.512c2.508,-2.271 6.482,-6.009 8.919,-8.398Z" style="fill:#fff;stroke:#fff;stroke-width:0.5px;stroke-linejoin:round;stroke-miterlimit:1.41421;"/><path d="M214.183,79.578l-0.118,14.1l0.094,-0.119l6.128,-6.009c0.71,-0.709 1.088,-1.514 1.088,-2.318c0.024,-1.041 -0.639,-1.987 -1.774,-2.626l-5.418,-3.028Z" style="fill:#fff;stroke:#fff;stroke-width:0.5px;stroke-linejoin:round;stroke-miterlimit:1.41421;"/><path d="M213.947,105.081l0.047,-4.803c-0.213,0.852 -0.331,1.727 -0.355,2.579c0,0.686 0.071,1.301 0.213,1.869l0.095,0.355Z" style="fill:#fff;stroke:#fff;stroke-width:0.5px;stroke-linejoin:round;stroke-miterlimit:1.41421;"/><path d="M213.994,100.278l-0.047,4.803l2.98,11.876c0.284,1.088 0.828,1.822 1.562,2.082c0.733,0.26 1.609,0.023 2.508,-0.639l13.508,-10.149c1.23,-0.899 1.94,-2.39 1.964,-3.975c0,-1.017 -0.284,-1.987 -0.828,-2.791l-7.618,-11.167c-0.663,-0.993 -1.609,-1.585 -2.626,-1.679c-1.041,-0.119 -2.082,0.283 -2.934,1.135l-6.103,6.009c-1.065,1.041 -1.917,2.721 -2.366,4.495Z" style="fill:#fff;stroke:#fff;stroke-width:0.5px;stroke-linejoin:round;stroke-miterlimit:1.41421;"/><path d="M66.653,128.384l0.26,-25.764l-0.118,-0.094c-0.828,-0.663 -1.633,-0.947 -2.224,-0.734c-0.568,0.213 -1.017,0.947 -1.207,1.988l-3.785,20.251c-0.047,0.26 -0.071,0.52 -0.071,0.78c-0.023,2.082 1.491,3.525 3.644,3.549l3.501,0.024Z" style="fill:#fff;stroke:#fff;stroke-width:0.5px;stroke-linejoin:round;stroke-miterlimit:1.41421;"/><path d="M66.96,96.611l0.024,-2.224c-0.095,0.379 -0.166,0.734 -0.166,1.112c0,0.379 0.048,0.757 0.142,1.112Z" style="fill:#fff;stroke:#fff;stroke-width:0.5px;stroke-linejoin:round;stroke-miterlimit:1.41421;"/><path d="M246.31,93.275l-0.142,14.645c0.355,-0.071 0.734,-0.166 1.136,-0.284l2.248,-0.71c1.537,-0.473 2.46,-1.585 2.46,-2.981c0,-0.639 -0.189,-1.301 -0.568,-1.94l-5.11,-8.682l-0.024,-0.048Z" style="fill:#fff;stroke:#fff;stroke-width:0.5px;stroke-linejoin:round;stroke-miterlimit:1.41421;"/><path d="M113.519,73.45l0.166,-19.447c-0.757,-0.118 -1.538,0.024 -2.319,0.426l-10.48,5.252c-1.349,0.686 -2.177,1.917 -2.177,3.336c-0.023,0.781 0.237,1.585 0.734,2.295l4.637,6.719c1.537,2.224 4.968,3.241 7.452,2.224l1.987,-0.805Z" style="fill:#fff;stroke:#fff;stroke-width:0.5px;stroke-linejoin:round;stroke-miterlimit:1.41421;"/><path d="M113.685,54.003l-0.166,19.447l2.886,-1.159c1.893,-0.781 3.218,-2.815 3.241,-4.945c0,-0.496 -0.071,-0.993 -0.213,-1.466l-2.838,-9.227c-0.355,-1.135 -1.089,-2.011 -2.059,-2.413c-0.26,-0.118 -0.544,-0.189 -0.851,-0.237Z" style="fill:#fff;stroke:#fff;stroke-width:0.5px;stroke-linejoin:round;stroke-miterlimit:1.41421;"/><path d="M153.903,62.757l0.166,-16.632l-8.541,0.119c-2.46,0.023 -4.495,2.058 -4.519,4.542l0.261,9.037c0.047,1.23 0.544,2.295 1.395,3.052c0.876,0.734 2.011,1.065 3.218,0.899l8.02,-1.017Z" style="fill:#fff;stroke:#fff;stroke-width:0.5px;stroke-linejoin:round;stroke-miterlimit:1.41421;"/><path d="M154.069,46.125l-0.166,16.632l1.277,-0.142c2.579,-0.331 4.779,-2.815 4.779,-5.418c0,-0.023 0,-0.047 0,-0.071l-0.023,-6.435c0,-1.23 -0.497,-2.389 -1.372,-3.264c-0.899,-0.876 -2.059,-1.349 -3.313,-1.325l-1.182,0.023Z" style="fill:#fff;stroke:#fff;stroke-width:0.5px;stroke-linejoin:round;stroke-miterlimit:1.41421;"/><path d="M214.207,76.029l0.094,-8.375c-0.378,0.237 -0.709,0.521 -1.017,0.852l-1.325,1.49c-0.662,0.71 -0.993,1.538 -1.017,2.366c0,1.159 0.686,2.224 1.893,2.886l1.372,0.781Z" style="fill:#fff;stroke:#fff;stroke-width:0.5px;stroke-linejoin:round;stroke-miterlimit:1.41421;"/><path d="M214.301,67.654l-0.094,8.375l1.325,0.71c2.484,1.395 6.624,1.253 9.013,-0.332l0.828,-0.52c0.947,-0.639 1.467,-1.443 1.491,-2.271c0,-0.805 -0.497,-1.609 -1.396,-2.248l-5.016,-3.619c-1.774,-1.278 -4.329,-1.254 -6.151,-0.095Z" style="fill:#fff;stroke:#fff;stroke-width:0.5px;stroke-linejoin:round;stroke-miterlimit:1.41421;"/><path d="M246.145,111.941l-0.095,8.896l1.041,3.951c0.71,2.649 3.62,4.897 6.34,4.921l0.592,0c2.153,0.023 3.69,-1.42 3.69,-3.478c0,-0.26 -0.023,-0.521 -0.07,-0.805l-2.153,-12.444c-0.213,-1.182 -0.828,-2.152 -1.775,-2.72c-0.946,-0.592 -2.105,-0.71 -3.241,-0.355l-2.247,0.71c-0.805,0.236 -1.514,0.709 -2.082,1.324Z" style="fill:#fff;stroke:#fff;stroke-width:0.5px;stroke-linejoin:round;stroke-miterlimit:1.41421;"/><path d="M146.782,101.485l0.331,-34.706l-0.828,0.094l-6.08,0.781c-2.46,0.308 -4.424,2.508 -4.448,5.015c0,0.119 0,0.237 0.024,0.332l1.088,17.317c0.166,2.934 2.461,6.695 4.968,8.186l4.945,2.981Z" style="fill:#fff;stroke:#fff;stroke-width:0.5px;stroke-linejoin:round;stroke-miterlimit:1.41421;"/><path d="M246.168,107.92l0.142,-14.645c-1.348,-2.223 -4.282,-3.028 -6.576,-1.798l-1.183,0.639c-1.373,0.734 -2.201,2.058 -2.201,3.525c0,0.805 0.237,1.633 0.734,2.366l1.159,1.703c1.751,2.603 3.833,6.317 4.353,8.139c0.331,0.236 1.633,0.496 3.572,0.071Z" style="fill:#fff;stroke:#fff;stroke-width:0.5px;stroke-linejoin:round;stroke-miterlimit:1.41421;"/><path d="M246.05,120.86l0.095,-8.942c-0.852,0.922 -1.372,2.129 -1.372,3.43c0,0.426 0.047,0.852 0.142,1.254l1.135,4.258Z" style="fill:#fff;stroke:#fff;stroke-width:0.5px;stroke-linejoin:round;stroke-miterlimit:1.41421;"/><path d="M230.341,88.094c-1.656,-2.413 -4.495,-5.512 -6.435,-6.671c0.142,-0.426 0.805,-1.372 2.366,-2.413l0.805,-0.521c2.247,-1.49 5.725,-1.112 7.594,0.805l4.353,4.495c0.71,0.709 1.088,1.514 1.064,2.318c0,1.041 -0.662,2.011 -1.821,2.626l-1.207,0.639c-2.295,1.23 -5.394,0.662 -6.719,-1.278Z" style="fill:#fff;stroke:#fff;stroke-width:0.5px;stroke-linejoin:round;stroke-miterlimit:1.41421;"/><path d="M201.928,69.168l-3.951,-2.2c-1.537,-0.852 -2.484,-2.508 -2.46,-4.306c0,-0.757 0.189,-1.49 0.544,-2.176l0.379,-0.71c1.206,-2.295 4.069,-3.194 6.364,-2.035l7.239,3.667c1.23,0.615 1.916,1.609 1.916,2.745c0,0.78 -0.355,1.561 -0.993,2.271l-1.325,1.467c-1.822,2.011 -5.347,2.602 -7.713,1.277Z" style="fill:#fff;stroke:#fff;stroke-width:0.5px;stroke-linejoin:round;stroke-miterlimit:1.41421;"/><path d="M190.289,61.74c-0.497,0.142 -1.254,0.236 -1.964,-0.166c-2.176,-1.207 -5.465,-2.366 -7.452,-2.224c-0.402,-0.378 -1.065,-1.94 -1.136,-4.377l-0.047,-1.821c0,-1.065 0.379,-1.94 1.041,-2.413c0.662,-0.473 1.632,-0.568 2.697,-0.213l8.115,2.578c1.632,0.545 2.626,1.822 2.626,3.384c-0.024,0.615 -0.19,1.23 -0.497,1.845l-0.379,0.71c-0.71,1.324 -1.821,2.342 -3.004,2.697Z" style="fill:#fff;stroke:#fff;stroke-width:0.5px;stroke-linejoin:round;stroke-miterlimit:1.41421;"/><path d="M244.229,126.704c0,0.852 -0.284,1.561 -0.852,2.082c-0.592,0.544 -1.42,0.828 -2.413,0.828l-15.851,-0.118c-2.863,0 -5.37,-1.42 -5.702,-2.674c-0.023,-0.118 -0.047,-0.26 -0.023,-0.426c0,-1.419 1.301,-3.879 3.478,-5.512l13.508,-10.125c0.899,-0.686 1.798,-0.923 2.555,-0.663c0.734,0.26 1.301,0.994 1.609,2.082l3.549,13.414c0.094,0.379 0.142,0.757 0.142,1.112Z" style="fill:#fff;stroke:#fff;stroke-width:0.5px;stroke-linejoin:round;stroke-miterlimit:1.41421;"/><path d="M176.567,53.412l0.047,1.798c-0.023,2.579 -2.105,4.945 -4.66,5.276l-4.4,0.544c-1.207,0.165 -2.319,-0.166 -3.171,-0.899c-0.828,-0.734 -1.301,-1.798 -1.301,-3.005l-0.023,-6.435c0,-1.23 0.449,-2.271 1.253,-2.933c0.805,-0.686 1.893,-0.947 3.076,-0.757l4.164,0.662c2.649,0.426 4.944,3.052 5.015,5.749Z" style="fill:#fff;stroke:#fff;stroke-width:0.5px;stroke-linejoin:round;stroke-miterlimit:1.41421;"/><path d="M136.656,64.957c-1.798,0.213 -5.748,1.42 -8.942,2.721c-1.018,0.426 -2.106,0.402 -3.076,-0.071c-1.064,-0.497 -1.845,-1.443 -2.224,-2.65l-2.839,-9.227c-0.142,-0.449 -0.212,-0.899 -0.212,-1.348c0.023,-1.964 1.348,-3.62 3.312,-4.069l10.906,-2.603c1.135,-0.26 2.224,-0.07 3.028,0.545c0.804,0.615 1.254,1.608 1.301,2.791l0.26,8.872c0,0.142 0,0.284 0,0.402c-0.023,3.028 -1.159,4.542 -1.514,4.637Z" style="fill:#fff;stroke:#fff;stroke-width:0.5px;stroke-linejoin:round;stroke-miterlimit:1.41421;"/><path d="M101.122,78.489c-2.862,1.16 -6.245,3.928 -7.736,6.293c-0.26,0.402 -0.662,0.663 -1.23,0.757c-1.088,0.19 -2.531,-0.284 -3.738,-1.254l-5.914,-4.684c-0.97,-0.757 -1.514,-1.774 -1.491,-2.862c0,-1.018 0.473,-1.988 1.325,-2.745l8.635,-7.617c0.899,-0.805 2.011,-1.16 3.123,-1.041c1.112,0.142 2.106,0.757 2.792,1.75l4.637,6.719c0.591,0.875 0.922,1.798 0.922,2.626c0,0.71 -0.236,1.632 -1.325,2.058Z" style="fill:#fff;stroke:#fff;stroke-width:0.5px;stroke-linejoin:round;stroke-miterlimit:1.41421;"/><path d="M194.594,124.717c0.166,2.531 -1.798,4.566 -4.305,4.542l-21.695,-0.166c-2.578,0 -4.66,-2.129 -4.66,-4.708l0.047,-5.441c0.024,-3.075 1.751,-7.594 3.785,-9.889l8.943,-10.031c0.804,-0.899 1.822,-1.372 2.886,-1.348c1.065,0.023 2.059,0.544 2.792,1.49l7.973,9.889c1.94,2.413 3.738,7.074 3.927,10.197l0.307,5.465Z" style="fill:#fff;stroke:#fff;stroke-width:0.5px;stroke-linejoin:round;stroke-miterlimit:1.41421;"/><path d="M66.889,102.62l-0.236,25.764l0.118,0c2.768,0.023 5.915,-2.177 6.814,-4.803l2.531,-7.145c0.213,-0.615 0.308,-1.301 0.331,-2.034c0,-2.342 -1.041,-4.779 -2.602,-6.08l-6.956,-5.702Z" style="fill:#fff;stroke:#fff;stroke-width:0.5px;stroke-linejoin:round;stroke-miterlimit:1.41421;"/><path d="M66.984,94.411l-0.024,2.177c0.261,1.088 0.97,2.034 1.988,2.649l8.114,4.874c1.231,0.733 2.65,0.97 3.738,0.638c0.521,-0.141 1.183,-0.473 1.562,-1.253c1.206,-2.532 3.667,-6.908 5.441,-9.795c0.473,-0.733 0.733,-1.632 0.733,-2.578c0,-1.727 -0.757,-3.36 -2.034,-4.377l-5.938,-4.684c-0.97,-0.757 -2.13,-1.089 -3.289,-0.899c-1.159,0.165 -2.176,0.828 -2.839,1.845l-6.837,10.078c-0.284,0.402 -0.497,0.852 -0.615,1.325Z" style="fill:#fff;stroke:#fff;stroke-width:0.5px;stroke-linejoin:round;stroke-miterlimit:1.41421;"/><path d="M259.859,131.355c0.253,0.618 7.914,-1.864 9.858,-2.437c1.05,-0.309 13.698,-8.411 15.079,-10.007c1.33,-1.523 1.821,-2.203 1.621,-3.358c-0.031,-0.165 -0.07,-0.306 -0.13,-0.423c-0.249,-0.508 -0.804,-1.001 -2.734,0.484c-0.62,0.477 -7.56,5.336 -12.974,7.635c-3.7,1.6 -7.982,2.498 -11.494,3.02c-0.011,1.13 -0.23,2.107 -0.628,2.883c0.359,0.366 0.689,0.808 0.976,1.317c0.155,0.277 0.298,0.572 0.426,0.886Z" style="fill:#fff;stroke:#fff;stroke-width:0.06px;"/></g><g><path id="f0_a" d="M119.791,102.721c-0.049,0.075 -0.138,0.139 -0.258,0.182c-0.121,0.042 -0.234,0.05 -0.329,0.028l-14.793,-4.098c-0.212,-0.057 -0.374,-0.189 -0.443,-0.369c-0.076,-0.17 -0.055,-0.345 0.05,-0.506l1.975,-3.037c0.049,-0.076 0.137,-0.14 0.264,-0.192c0.127,-0.052 0.251,-0.052 0.346,-0.031l6.614,1.904l-4.026,-5.956c-0.058,-0.078 -0.097,-0.185 -0.107,-0.313c0.011,-0.113 0.04,-0.229 0.083,-0.295l1.28,-1.969c0.049,-0.075 0.137,-0.139 0.236,-0.196c0.11,-0.05 0.234,-0.05 0.323,-0.019l7.007,1.324l-4.372,-5.305c-0.058,-0.078 -0.108,-0.192 -0.118,-0.32c-0.004,-0.137 0.019,-0.243 0.074,-0.328l2,-3.076c0.104,-0.161 0.256,-0.251 0.442,-0.251c0.186,0 0.373,0.095 0.511,0.265l9.748,11.858c0.058,0.078 0.097,0.184 0.107,0.312c0.01,0.128 -0.019,0.244 -0.062,0.31l-1.083,1.665c-0.049,0.076 -0.137,0.14 -0.224,0.178c-0.103,0.04 -0.217,0.047 -0.324,0.045l-9.265,-1.716l5.401,7.658c0.058,0.078 0.087,0.178 0.097,0.305c-0.012,0.114 -0.034,0.22 -0.084,0.296l-1.07,1.647Z" style="fill-rule:nonzero;stroke:#000;stroke-width:0.5px;stroke-linejoin:round;stroke-miterlimit:1.41421;"/><path id="f0_a1" serif:id="f0_a" d="M162.328,98.067c-0.057,0.089 -0.16,0.165 -0.3,0.217c-0.14,0.051 -0.27,0.062 -0.379,0.038l-16.996,-4.549c-0.243,-0.062 -0.428,-0.214 -0.506,-0.423c-0.084,-0.197 -0.058,-0.402 0.065,-0.591l2.319,-3.572c0.058,-0.089 0.161,-0.165 0.308,-0.228c0.147,-0.062 0.29,-0.064 0.399,-0.041l7.598,2.117l-4.557,-6.882c-0.066,-0.09 -0.11,-0.214 -0.12,-0.363c0.015,-0.132 0.05,-0.268 0.101,-0.346l1.503,-2.314c0.058,-0.089 0.16,-0.165 0.275,-0.233c0.127,-0.06 0.271,-0.062 0.372,-0.027l8.059,1.435l-4.965,-6.119c-0.065,-0.09 -0.122,-0.221 -0.132,-0.37c-0.002,-0.16 0.025,-0.284 0.09,-0.384l2.349,-3.617c0.123,-0.19 0.299,-0.297 0.513,-0.3c0.215,-0.003 0.429,0.105 0.585,0.301l11.071,13.675c0.066,0.09 0.11,0.213 0.12,0.362c0.009,0.149 -0.025,0.284 -0.076,0.362l-1.272,1.959c-0.058,0.089 -0.16,0.165 -0.261,0.21c-0.12,0.049 -0.25,0.059 -0.374,0.058l-10.657,-1.857l6.119,8.846c0.066,0.09 0.097,0.205 0.107,0.354c-0.015,0.132 -0.043,0.257 -0.1,0.346l-1.258,1.936Z" style="fill-rule:nonzero;stroke:#000;stroke-width:0.5px;stroke-linejoin:round;stroke-miterlimit:1.41421;"/><path id="f0_a2" serif:id="f0_a" d="M202.567,97.268c-0.047,0.074 -0.131,0.138 -0.243,0.183c-0.112,0.045 -0.216,0.056 -0.303,0.039l-13.43,-3.342c-0.192,-0.046 -0.336,-0.166 -0.394,-0.334c-0.063,-0.159 -0.038,-0.326 0.064,-0.483l1.921,-2.96c0.048,-0.073 0.131,-0.137 0.249,-0.191c0.118,-0.055 0.232,-0.059 0.319,-0.043l6.002,1.563l-3.483,-5.51c-0.05,-0.072 -0.083,-0.171 -0.087,-0.292c0.014,-0.109 0.045,-0.22 0.087,-0.284l1.244,-1.918c0.048,-0.074 0.131,-0.138 0.224,-0.196c0.103,-0.051 0.217,-0.056 0.297,-0.03l6.383,0.997l-3.823,-4.878c-0.05,-0.072 -0.092,-0.178 -0.097,-0.299c0.001,-0.13 0.026,-0.232 0.08,-0.315l1.944,-2.997c0.102,-0.157 0.244,-0.248 0.415,-0.255c0.171,-0.007 0.339,0.076 0.459,0.233l8.525,10.903c0.05,0.072 0.082,0.172 0.087,0.293c0.005,0.121 -0.026,0.232 -0.068,0.296l-1.053,1.623c-0.047,0.074 -0.131,0.138 -0.212,0.177c-0.096,0.042 -0.2,0.053 -0.299,0.055l-8.442,-1.285l4.685,7.076c0.05,0.072 0.073,0.165 0.078,0.286c-0.015,0.108 -0.04,0.21 -0.087,0.284l-1.042,1.604Z" style="fill-rule:nonzero;stroke:#000;stroke-width:0.5px;stroke-linejoin:round;stroke-miterlimit:1.41421;"/></g></g></svg>